fira-sans_two.sfdir

StartChar: exclam
Encoding: 33 33 985
Width: 234
Flags: MW
HStem: -3 14<115 119> 660 20G<116 118 118 118>
VStem: 110 14<2 6>
LayerCount: 2
Fore
SplineSet
118 188 m 1
 116 188 l 1
 116 680 l 1
 118 680 l 1
 118 188 l 1
117 11 m 0
 121 11 124 8 124 4 c 0
 124 0 121 -3 117 -3 c 0
 113 -3 110 0 110 4 c 0
 110 8 113 11 117 11 c 0
EndSplineSet
EndChar
StartChar: quotedbl
Encoding: 34 34 2129
Width: 316
Flags: MW
HStem: 660 20G<90 92 92 92 224 226 226 226>
VStem: 90 136<446 680 446 680>
LayerCount: 2
Back
Fore
SplineSet
90 446 m 1
 90 680 l 1
 92 680 l 1
 92 446 l 1
 90 446 l 1
224 446 m 1
 224 680 l 1
 226 680 l 1
 226 446 l 1
 224 446 l 1
EndSplineSet
EndChar

StartChar: numbersign
Encoding: 35 35 987
Width: 479
Flags: MW
HStem: 0 21G<80 82 80 80 314 316 314 314> 0 216<80 82 80 80 314 316 314 314> 214 254<52 108.12 15 141.5 110.12 141.5 143.5 342.12 110.12 110.12 344.12 375.5 377.5 427 344.12 344.12>
VStem: 15 449<214 468 216 468>
LayerCount: 2
Fore
SplineSet
377.24 466 m 1xb0
 344.38 216 l 1x50
 427 216 l 1
 427 214 l 1
 344.12 214 l 1
 316 0 l 1
 314 0 l 1
 342.12 214 l 1
 110.12 214 l 1
 82 0 l 1
 80 0 l 1
 108.12 214 l 1xb0
 15 214 l 1
 15 216 l 1
 108.38 216 l 1x50
 141.24 466 l 1
 52 466 l 1
 52 468 l 1
 141.5 468 l 1
 167 662 l 1
 169 662 l 1
 143.5 468 l 1
 375.5 468 l 1
 401 662 l 1
 403 662 l 1
 377.5 468 l 1
 464 468 l 1
 464 466 l 1
 377.24 466 l 1xb0
375.24 466 m 1
 143.24 466 l 1
 110.38 216 l 1
 342.38 216 l 1
 375.24 466 l 1
EndSplineSet
Substitution2: "'onum' Oldstyle Figures lookup 22 subtable" numbersign.osf
Substitution2: "'tnum' Tabular Numbers lookup 21 subtable" numbersign.tf
AlternateSubs2: "'aalt' Access All Alternates lookup 1 subtable" numbersign.tf numbersign.osf
EndChar

StartChar: dollar
Encoding: 36 36 1062
Width: 528
Flags: MW
HStem: -144 137<254 256 254 254> -9 21G<209.5 254> -8.99001 21G
VStem: 65 383<67 226> 254 194<-144 226 -9 226>
LayerCount: 2
Fore
SplineSet
261 669 m 1x30
 259 669 l 1
 259 805 l 1
 261 805 l 1
 261 669 l 1x30
448 173 m 0x28
 448 66.6104 371.87 -8.14062 256 -8.99023 c 1x28
 256 -144 l 1
 254 -144 l 1x88
 254 -9 l 1x48
 165 -9 113 21 65 67 c 1
 66 69 l 1
 114 23 165 -7 254 -7 c 0x88
 369 -7 446 67 446 173 c 0
 446 278 387 317 263 357 c 0
 130 400 87 434 87 521 c 0
 87 605 153 669 256 669 c 0
 337 669 383 643 424 607 c 1
 423 605 l 1
 382 642 335 667 256 667 c 0
 154 667 89 603 89 521 c 0
 89 436 130 402 264 359 c 0
 389 319 448 279 448 173 c 0x28
EndSplineSet
Substitution2: "'onum' Oldstyle Figures lookup 22 subtable" dollar.osf
Substitution2: "'tnum' Tabular Numbers lookup 21 subtable" dollar.tf
AlternateSubs2: "'aalt' Access All Alternates lookup 1 subtable" dollar.tf dollar.osf
EndChar

StartChar: percent
Encoding: 37 37 1111
Width: 745
Flags: MW
HStem: -9 21G<145 147 145 145 512 590.5> 670 20G
VStem: 70 248<474 565> 70 605<99 565> 427 248<99 190>
LayerCount: 2
Fore
SplineSet
603 690 m 1xd0
 147 -9 l 1
 145 -9 l 1
 601 690 l 1
 603 690 l 1xd0
194 670 m 0xe8
 271 670 318 615 318 520 c 0
 318 428 273 366 194 366 c 0
 116 366 70 426 70 517 c 0
 70 613 115 670 194 670 c 0xe8
194 668 m 0
 117 668 72 613 72 517 c 0
 72 426 118 368 194 368 c 0
 271 368 316 428 316 520 c 0
 316 615 269 668 194 668 c 0
551 295 m 0
 628 295 675 240 675 145 c 0
 675 53 630 -9 551 -9 c 0
 473 -9 427 51 427 142 c 0
 427 238 472 295 551 295 c 0
551 293 m 0
 474 293 429 238 429 142 c 0
 429 51 475 -7 551 -7 c 0
 628 -7 673 53 673 145 c 0
 673 240 626 293 551 293 c 0
EndSplineSet
Substitution2: "'onum' Oldstyle Figures lookup 22 subtable" percent.osf
Substitution2: "'tnum' Tabular Numbers lookup 21 subtable" percent.tf
AlternateSubs2: "'aalt' Access All Alternates lookup 1 subtable" percent.tf percent.osf
EndChar

StartChar: ampersand
Encoding: 38 38 1219
Width: 734
Flags: MW
HStem: -9 21G<253 360> 0 21G<654 654> 671 20G<265.5 347>
VStem: 119 535<0 204.5>
LayerCount: 2
Fore
SplineSet
306 691 m 0x70
 388 691 444 631 444 550 c 0
 444 461 378 420 274 361 c 1
 532 116 l 1
 570 189 588 258 604 347 c 1
 606 347 l 1
 590 258 571 187 533 115 c 1
 654 0 l 1
 652 -1 l 1x70
 532 114 l 1
 483 34 410 -9 310 -9 c 0xb0
 196 -9 119 62 119 158 c 0
 119 251 170 308 270 361 c 1
 190 436 163 473 163 549 c 0
 162 631 225 691 306 691 c 0x70
306 689 m 0
 225 689 165 631 165 549 c 1
 166 473 191 438 272 362 c 1
 377 422 442 463 442 550 c 0
 442 630 388 689 306 689 c 0
272 360 m 1
 172 306 121 251 121 158 c 0
 121 64 197 -7 310 -7 c 0
 410 -7 480 35 531 115 c 1
 272 360 l 1
EndSplineSet
EndChar

StartChar: quotesingle
Encoding: 39 39 992
Width: 182
Flags: MW
HStem: 660 20G<90 92 92 92>
VStem: 90 2<446 680 446 680>
LayerCount: 2
Fore
SplineSet
90 680 m 1
 92 680 l 1
 92 446 l 1
 90 446 l 1
 90 680 l 1
EndSplineSet
EndChar
StartChar: parenleft
Encoding: 40 40 2154
Width: 329
Flags: MW
HStem: -125 950<247 247>
VStem: 80 169
LayerCount: 2
Back
Fore
SplineSet
247 825 m 1
 249 824 l 1
 160 693 82 577 82 350 c 0
 82 123 160 7 249 -124 c 1
 247 -125 l 1
 157 7 80 123 80 350 c 0
 80 577 157 693 247 825 c 1
EndSplineSet
Substitution2: "'case' Case-Sensitive Forms lookup 28 subtable" parenleft.case
Substitution2: "'dnom' Denominators lookup 16 subtable" parenleft.dnom
Substitution2: "'numr' Numerators lookup 15 subtable" parenleft.numr
Substitution2: "'sups' Superscript lookup 14 subtable" uni207D
Substitution2: "'subs' Subscript lookup 13 subtable" uni208D
AlternateSubs2: "'aalt' Access All Alternates lookup 1 subtable" uni208D uni207D parenleft.numr parenleft.dnom parenleft.case
EndChar

StartChar: parenright
Encoding: 41 41 1008
Width: 329
Flags: MW
HStem: -125 950<82 82>
VStem: 80 169
LayerCount: 2
Fore
SplineSet
82 825 m 1
 172 693 249 577 249 350 c 0
 249 123 172 7 82 -125 c 1
 80 -124 l 1
 169 7 247 123 247 350 c 0
 247 577 169 693 80 824 c 1
 82 825 l 1
EndSplineSet
Substitution2: "'case' Case-Sensitive Forms lookup 25 subtable" parenright.case
Substitution2: "'dnom' Denominators lookup 14 subtable" parenright.dnom
Substitution2: "'numr' Numerators lookup 13 subtable" parenright.numr
Substitution2: "'sups' Superscript lookup 12 subtable" parenrightsuperior
Substitution2: "'subs' Subscript lookup 11 subtable" uni208E
AlternateSubs2: "'aalt' Access All Alternates lookup 1 subtable" uni208E parenrightsuperior parenright.numr parenright.dnom parenright.case
EndChar

StartChar: asterisk
Encoding: 42 42 978
Width: 428
Flags: MW
HStem: 545 20G<212 212 216 216> 547 20G<213 213 215 215> 707 20G<213 215 215 215>
VStem: 60 308<614 614> 60.5 154.5 213 154.5
LayerCount: 2
Fore
SplineSet
216 565 m 1xb0
 309 436 l 1
 307 435 l 1
 214 564 l 1
 120 435 l 1
 118 436 l 1
 212 565 l 1
 60 614 l 1
 61 616 l 1xa8
 213 567 l 1x64
 213 727 l 1
 215 727 l 1
 215 567 l 1x68
 367 616 l 1
 368 614 l 1x64
 216 565 l 1xb0
EndSplineSet
EndChar
StartChar: plus
Encoding: 43 43 2296
Width: 478
GlyphClass: 2
Flags: MW
HStem: 174 158<85 240 85 238> 330 158<85 240 85 240 238 393 238 240>
VStem: 85 155<174 332 174 332> 238 155<174 332 330 332 330 488>
LayerCount: 2
Back
Fore
SplineSet
240 488 m 1x60
 240 332 l 1xa0
 393 332 l 1
 393 330 l 1x50
 240 330 l 1x60
 240 174 l 1
 238 174 l 1x90
 238 330 l 1x50
 85 330 l 1
 85 332 l 1xa0
 238 332 l 1x90
 238 488 l 1
 240 488 l 1x60
EndSplineSet
Substitution2: "'onum' Oldstyle Figures lookup 25 subtable" plus.osf
Substitution2: "'tnum' Tabular Numbers lookup 24 subtable" plus.tf
Substitution2: "'dnom' Denominators lookup 16 subtable" plus.dnom
Substitution2: "'numr' Numerators lookup 15 subtable" plus.numr
Substitution2: "'sups' Superscript lookup 14 subtable" uni207A
Substitution2: "'subs' Subscript lookup 13 subtable" uni208A
AlternateSubs2: "'aalt' Access All Alternates lookup 1 subtable" uni208A uni207A plus.numr plus.dnom plus.tf plus.osf
EndChar

StartChar: comma
Encoding: 44 44 983
Width: 120
Flags: MW
HStem: -4 14<59 59>
VStem: 53 14<1.5 5>
LayerCount: 2
Fore
SplineSet
60 10 m 0
 64 10 67 7 67 3 c 0
 67 -1 66 -3 65 -6 c 2
 29 -109 l 1
 26 -109 l 1
 59 -4 l 1
 55 -3 53 0 53 3 c 0
 53 7 56 10 60 10 c 0
EndSplineSet
EndChar

StartChar: hyphen
Encoding: 45 45 1025
Width: 400
Flags: MW
HStem: 311 2<85 315 85 315>
VStem: 85 230<311 313 311 313>
LayerCount: 2
Fore
SplineSet
85 313 m 1
 315 313 l 1
 315 311 l 1
 85 311 l 1
 85 313 l 1
EndSplineSet
Substitution2: "'case' Case-Sensitive Forms lookup 25 subtable" hyphen.case
Substitution2: "'aalt' Access All Alternates lookup 0 subtable" hyphen.case
EndChar
StartChar: period
Encoding: 46 46 2126
Width: 120
Flags: MW
HStem: -4 14<58 62>
VStem: 53 14<1 5>
LayerCount: 2
Back
Fore
SplineSet
60 10 m 0
 64 10 67 7 67 3 c 0
 67 -1 64 -4 60 -4 c 0
 56 -4 53 -1 53 3 c 0
 53 7 56 10 60 10 c 0
EndSplineSet
EndChar

StartChar: slash
Encoding: 47 47 994
Width: 520
Flags: MW
HStem: -92 886<145 375>
VStem: 143 234
LayerCount: 2
Fore
SplineSet
377 793 m 1
 145 -92 l 1
 143 -91 l 1
 375 794 l 1
 377 793 l 1
EndSplineSet
Substitution2: "'frac' Diagonal Fractions lookup 15 subtable" fraction
Substitution2: "'aalt' Access All Alternates lookup 0 subtable" fraction
EndChar
StartChar: zero
Encoding: 48 48 2011
Width: 536
Flags: MW
HStem: -9 21G<204 332>
VStem: 80 376<218.5 443.5>
LayerCount: 2
Back
Fore
SplineSet
268 670 m 0
 396 670 456 556 456 331 c 0
 456 106 396 -9 268 -9 c 0
 140 -9 80 106 80 331 c 0
 80 556 140 670 268 670 c 0
268 668 m 0
 141 668 82 554 82 331 c 0
 82 108 141 -7 268 -7 c 0
 395 -7 454 108 454 331 c 0
 454 554 395 668 268 668 c 0
EndSplineSet
Substitution2: "'zero' Slashed Zero lookup 31 subtable" zero.zero
Substitution2: "'onum' Oldstyle Figures lookup 25 subtable" zero.osf
Substitution2: "'tnum' Tabular Numbers lookup 24 subtable" zero.tf
Substitution2: "'frac' Diagonal Fractions lookup 18 subtable" zero.numr
Substitution2: "'dnom' Denominators lookup 16 subtable" zero.dnom
Substitution2: "'numr' Numerators lookup 15 subtable" zero.numr
Substitution2: "'sups' Superscript lookup 14 subtable" uni2070
Substitution2: "'subs' Subscript lookup 13 subtable" uni2080
AlternateSubs2: "'aalt' Access All Alternates lookup 1 subtable" uni2080 uni2070 zero.numr zero.dnom zero.tf zero.osf zero.zero
EndChar
StartChar: one
Encoding: 49 49 2012
Width: 385
Flags: MW
HStem: 0 21G<243 245 243 243>
VStem: 60.5 184.5
LayerCount: 2
Back
Fore
SplineSet
245 660 m 1
 245 0 l 1
 243 0 l 1
 243 658 l 1
 61 541 l 1
 60 543 l 1
 243 660 l 1
 245 660 l 1
EndSplineSet
Substitution2: "'onum' Oldstyle Figures lookup 25 subtable" one.osf
Substitution2: "'tnum' Tabular Numbers lookup 24 subtable" one.tf
Substitution2: "'frac' Diagonal Fractions lookup 18 subtable" one.numr
Substitution2: "'dnom' Denominators lookup 16 subtable" one.dnom
Substitution2: "'numr' Numerators lookup 15 subtable" one.numr
Substitution2: "'sups' Superscript lookup 14 subtable" uni00B9
Substitution2: "'subs' Subscript lookup 13 subtable" uni2081
AlternateSubs2: "'aalt' Access All Alternates lookup 1 subtable" uni2081 uni00B9 one.numr one.dnom one.tf one.osf
EndChar
StartChar: two
Encoding: 50 50 2013
Width: 463
Flags: MW
HStem: 0 21G<50 393 50 50>
VStem: 50 343<0 2 0 2>
LayerCount: 2
Back
Fore
SplineSet
220 670 m 0
 324 670 386 596 386 507 c 0
 386 374 313 300 53 2 c 1
 393 2 l 1
 393 0 l 1
 50 0 l 1
 50 2 l 1
 312 301 384 376 384 507 c 0
 384 596 322 668 220 668 c 0
 146 668 100 636 54 581 c 1
 52 582 l 1
 98 637 145 670 220 670 c 0
EndSplineSet
Substitution2: "'onum' Oldstyle Figures lookup 25 subtable" two.osf
Substitution2: "'tnum' Tabular Numbers lookup 24 subtable" two.tf
Substitution2: "'frac' Diagonal Fractions lookup 18 subtable" two.numr
Substitution2: "'dnom' Denominators lookup 16 subtable" two.dnom
Substitution2: "'numr' Numerators lookup 15 subtable" two.numr
Substitution2: "'sups' Superscript lookup 14 subtable" uni00B2
Substitution2: "'subs' Subscript lookup 13 subtable" uni2082
AlternateSubs2: "'aalt' Access All Alternates lookup 1 subtable" uni2082 uni00B2 two.numr two.dnom two.tf two.osf
EndChar

StartChar: three
Encoding: 51 51 880
Width: 469
Flags: MW
HStem: -9 21G<173 266.5>
VStem: 35 359<72 235.5>
LayerCount: 2
Fore
SplineSet
216 670 m 0
 316 670 375 605 375 513 c 0
 375 407 304 359 231 353 c 1
 322 348 394 293 394 178 c 0
 394 68 321 -9 212 -9 c 0
 134 -9 85 15 35 72 c 1
 37 73 l 1
 87 16 135 -7 212 -7 c 0
 320 -7 392 70 392 178 c 0
 392 292 320 352 212 352 c 2
 178 352 l 1
 178 354 l 1
 215 354 l 2
 295 354 373 404 373 513 c 0
 373 604 314 668 216 668 c 0
 159 668 104 648 56 598 c 1
 54 599 l 1
 102 649 157 670 216 670 c 0
EndSplineSet
Substitution2: "'onum' Oldstyle Figures lookup 22 subtable" three.osf
Substitution2: "'tnum' Tabular Numbers lookup 21 subtable" three.tf
Substitution2: "'frac' Diagonal Fractions lookup 16 subtable" three.numr
Substitution2: "'dnom' Denominators lookup 14 subtable" three.dnom
Substitution2: "'numr' Numerators lookup 13 subtable" three.numr
Substitution2: "'sups' Superscript lookup 12 subtable" threesuperior
Substitution2: "'subs' Subscript lookup 11 subtable" threeinferior
AlternateSubs2: "'aalt' Access All Alternates lookup 1 subtable" threeinferior threesuperior three.numr three.dnom three.tf three.osf
EndChar
StartChar: four
Encoding: 52 52 2015
Width: 493
Flags: MW
HStem: 0 21G<356 358 356 356> 0 198<57 358 57 356> 196 222<55 358 356 453 356 358>
VStem: 356 97<0 198 196 198 196 418>
LayerCount: 2
Back
Fore
SplineSet
453 198 m 1x50
 453 196 l 1x50
 358 196 l 1
 358 0 l 1
 356 0 l 1
 356 196 l 1
 55 196 l 1
 55 199 l 1xb0
 264 670 l 1
 266 669 l 1
 57 198 l 1
 356 198 l 1x50
 356 418 l 1
 358 418 l 1xb0
 358 198 l 1
 453 198 l 1x50
EndSplineSet
Substitution2: "'onum' Oldstyle Figures lookup 25 subtable" four.osf
Substitution2: "'tnum' Tabular Numbers lookup 24 subtable" four.tf
Substitution2: "'frac' Diagonal Fractions lookup 18 subtable" four.numr
Substitution2: "'dnom' Denominators lookup 16 subtable" four.dnom
Substitution2: "'numr' Numerators lookup 15 subtable" four.numr
Substitution2: "'sups' Superscript lookup 14 subtable" uni2074
Substitution2: "'subs' Subscript lookup 13 subtable" uni2084
AlternateSubs2: "'aalt' Access All Alternates lookup 1 subtable" uni2084 uni2074 four.numr four.dnom four.tf four.osf
EndChar

StartChar: five
Encoding: 53 53 882
Width: 470
Flags: MW
HStem: -9 21G<178 273> 407 253<197.5 280.5>
VStem: 50 350<63 274>
LayerCount: 2
Fore
SplineSet
379 658 m 1
 93 658 l 1
 93 362 l 1
 128 390 168 409 226 409 c 0
 336 409 400 335 400 213 c 0
 400 84 335 -9 211 -9 c 0
 145 -9 88 18 50 63 c 1
 52 64 l 1
 89 20 146 -7 211 -7 c 0
 334 -7 398 86 398 213 c 0
 398 333 335 407 226 407 c 0
 169 407 133 390 94 360 c 1
 91 360 l 1
 91 660 l 1
 379 660 l 1
 379 658 l 1
EndSplineSet
Substitution2: "'onum' Oldstyle Figures lookup 22 subtable" five.osf
Substitution2: "'tnum' Tabular Numbers lookup 21 subtable" five.tf
Substitution2: "'frac' Diagonal Fractions lookup 16 subtable" five.numr
Substitution2: "'dnom' Denominators lookup 14 subtable" five.dnom
Substitution2: "'numr' Numerators lookup 13 subtable" five.numr
Substitution2: "'sups' Superscript lookup 12 subtable" fivesuperior
Substitution2: "'subs' Subscript lookup 11 subtable" fiveinferior
AlternateSubs2: "'aalt' Access All Alternates lookup 1 subtable" fiveinferior fivesuperior five.numr five.dnom five.tf five.osf
EndChar

StartChar: six
Encoding: 54 54 883
Width: 505
Flags: MW
HStem: -9.00999 21G 420.99 249
VStem: 80 360
LayerCount: 2
Fore
SplineSet
274 423 m 0
 374 423 440.001 355.99 440.001 221.99 c 0
 440.001 76.9902 380.001 -9.00977 270.001 -9.00977 c 0
 134.001 -9.00977 80.001 123.99 80.001 286.99 c 0
 80.001 505.99 154.001 669.99 300.001 669.99 c 0
 342.001 669.99 373.001 655.99 399.001 634.99 c 1
 398.001 632.99 l 1
 372.001 654.99 341.001 667.99 300.001 667.99 c 0
 156.221 667.99 82.2305 502.51 82 289 c 1
 123 359 184 423 274 423 c 0
270.001 -7.00977 m 0
 379.001 -7.00977 438.002 78.9902 438.002 221.99 c 0
 438.002 354.99 373.002 420.99 274.002 420.99 c 0
 185.002 420.99 125.002 357.99 82.002 285.99 c 1
 82.2217 125.44 135.281 -7.00977 270.001 -7.00977 c 0
EndSplineSet
Substitution2: "'onum' Oldstyle Figures lookup 22 subtable" six.osf
Substitution2: "'tnum' Tabular Numbers lookup 21 subtable" six.tf
Substitution2: "'frac' Diagonal Fractions lookup 16 subtable" six.numr
Substitution2: "'dnom' Denominators lookup 14 subtable" six.dnom
Substitution2: "'numr' Numerators lookup 13 subtable" six.numr
Substitution2: "'sups' Superscript lookup 12 subtable" sixsuperior
Substitution2: "'subs' Subscript lookup 11 subtable" sixinferior
AlternateSubs2: "'aalt' Access All Alternates lookup 1 subtable" sixinferior sixsuperior six.numr six.dnom six.tf six.osf
EndChar
StartChar: seven
Encoding: 55 55 2018
Width: 435
Flags: MW
HStem: -4 21G<99 99>
VStem: 45 340<658 660 658 660>
LayerCount: 2
Back
Fore
SplineSet
385 660 m 1
 385 658 l 1
 101 -5 l 1
 99 -4 l 1
 383 658 l 1
 45 658 l 1
 45 660 l 1
 385 660 l 1
EndSplineSet
Substitution2: "'onum' Oldstyle Figures lookup 25 subtable" seven.osf
Substitution2: "'tnum' Tabular Numbers lookup 24 subtable" seven.tf
Substitution2: "'frac' Diagonal Fractions lookup 18 subtable" seven.numr
Substitution2: "'dnom' Denominators lookup 16 subtable" seven.dnom
Substitution2: "'numr' Numerators lookup 15 subtable" seven.numr
Substitution2: "'sups' Superscript lookup 14 subtable" uni2077
Substitution2: "'subs' Subscript lookup 13 subtable" uni2087
AlternateSubs2: "'aalt' Access All Alternates lookup 1 subtable" uni2087 uni2077 seven.numr seven.dnom seven.tf seven.osf
EndChar
StartChar: eight
Encoding: 56 56 2019
Width: 523
Flags: MW
HStem: -9 21G<203.5 322>
VStem: 70 383<115 207.5 113 216.5>
LayerCount: 2
Back
Fore
SplineSet
297 339 m 1
 410 294 453 251 453 164 c 0
 453 62 380 -9 264 -9 c 0
 143 -9 70 61 70 169 c 0
 70 264 125 321 227 365 c 1
 132 403 100 448 100 514 c 0
 100 609 175 670 262 670 c 0
 350 670 425 615 425 513 c 0
 425 435 390 388 297 339 c 1
102 514 m 0
 102 439 145 399 239 362 c 2
 295 340 l 1
 385 388 423 433 423 513 c 0
 423 614 349 668 262 668 c 0
 176 668 102 608 102 514 c 0
264 -7 m 0
 379 -7 451 64 451 164 c 0
 451 262 394 300 270 348 c 2
 229 364 l 1
 125 319 72 261 72 169 c 0
 72 63 143 -7 264 -7 c 0
EndSplineSet
Substitution2: "'onum' Oldstyle Figures lookup 25 subtable" eight.osf
Substitution2: "'tnum' Tabular Numbers lookup 24 subtable" eight.tf
Substitution2: "'frac' Diagonal Fractions lookup 18 subtable" eight.numr
Substitution2: "'dnom' Denominators lookup 16 subtable" eight.dnom
Substitution2: "'numr' Numerators lookup 15 subtable" eight.numr
Substitution2: "'sups' Superscript lookup 14 subtable" uni2078
Substitution2: "'subs' Subscript lookup 13 subtable" uni2088
AlternateSubs2: "'aalt' Access All Alternates lookup 1 subtable" uni2088 uni2078 eight.numr eight.dnom eight.tf eight.osf
EndChar
StartChar: nine
Encoding: 57 57 2020
Width: 499
Flags: MW
HStem: -9 21G<124 124>
VStem: 65 359<398.5 479 272 525>
LayerCount: 2
Back
Fore
SplineSet
244 670 m 0
 375 670 424 565 424 393 c 0
 424 151 315 48 125 -11 c 1
 124 -9 l 1
 313 51 418 148 422 387 c 1
 378 307 317 261 233 261 c 0
 137 261 65 337 65 460 c 0
 65 590 141 670 244 670 c 0
233 263 m 0
 316 263 378 310 422 391 c 1
 422 565 373 668 244 668 c 0
 143 668 67 589 67 460 c 0
 67 338 138 263 233 263 c 0
EndSplineSet
Substitution2: "'onum' Oldstyle Figures lookup 25 subtable" nine.osf
Substitution2: "'tnum' Tabular Numbers lookup 24 subtable" nine.tf
Substitution2: "'frac' Diagonal Fractions lookup 18 subtable" nine.numr
Substitution2: "'dnom' Denominators lookup 16 subtable" nine.dnom
Substitution2: "'numr' Numerators lookup 15 subtable" nine.numr
Substitution2: "'sups' Superscript lookup 14 subtable" uni2079
Substitution2: "'subs' Subscript lookup 13 subtable" uni2089
AlternateSubs2: "'aalt' Access All Alternates lookup 1 subtable" uni2089 uni2079 nine.numr nine.dnom nine.tf nine.osf
EndChar

StartChar: colon
Encoding: 58 58 982
Width: 120
Flags: MW
HStem: -4 14<58 62> 425 14<58 62>
VStem: 53 14<1 5 430 434>
LayerCount: 2
Fore
SplineSet
60 439 m 0
 64 439 67 436 67 432 c 0
 67 428 64 425 60 425 c 0
 56 425 53 428 53 432 c 0
 53 436 56 439 60 439 c 0
60 10 m 0
 64 10 67 7 67 3 c 0
 67 -1 64 -4 60 -4 c 0
 56 -4 53 -1 53 3 c 0
 53 7 56 10 60 10 c 0
EndSplineSet
EndChar

StartChar: semicolon
Encoding: 59 59 993
Width: 120
Flags: MW
HStem: -4 14<59 59> -4 21G<59 59> 425 14<58 62>
VStem: 53 14<1.5 5 430 434>
LayerCount: 2
Fore
SplineSet
60 439 m 0x70
 64 439 67 436 67 432 c 0
 67 428 64 425 60 425 c 0
 56 425 53 428 53 432 c 0
 53 436 56 439 60 439 c 0x70
60 10 m 0xb0
 64 10 67 7 67 3 c 0
 67 -1 66 -3 65 -6 c 2
 29 -109 l 1
 26 -109 l 1
 59 -4 l 1
 55 -3 53 0 53 3 c 0
 53 7 56 10 60 10 c 0xb0
EndSplineSet
EndChar

StartChar: less
Encoding: 60 60 1101
Width: 496
Flags: MW
HStem: 175 312<405 405>
VStem: 90 316<177 334 177 334>
LayerCount: 2
Fore
SplineSet
406 485 m 1
 92 333 l 1
 406 177 l 1
 405 175 l 1
 90 332 l 1
 90 334 l 1
 405 487 l 1
 406 485 l 1
EndSplineSet
Substitution2: "'onum' Oldstyle Figures lookup 22 subtable" less.osf
Substitution2: "'tnum' Tabular Numbers lookup 21 subtable" less.tf
AlternateSubs2: "'aalt' Access All Alternates lookup 1 subtable" less.tf less.osf
EndChar

StartChar: equal
Encoding: 61 61 1093
Width: 478
Flags: MW
HStem: 255 152<85 393 85 393>
VStem: 85 308<255 257 255 257 405 407 255 407>
LayerCount: 2
Fore
SplineSet
85 407 m 1
 393 407 l 1
 393 405 l 1
 85 405 l 1
 85 407 l 1
85 257 m 1
 393 257 l 1
 393 255 l 1
 85 255 l 1
 85 257 l 1
EndSplineSet
Substitution2: "'onum' Oldstyle Figures lookup 22 subtable" equal.osf
Substitution2: "'tnum' Tabular Numbers lookup 21 subtable" equal.tf
Substitution2: "'dnom' Denominators lookup 14 subtable" equal.dnom
Substitution2: "'numr' Numerators lookup 13 subtable" equal.numr
Substitution2: "'sups' Superscript lookup 12 subtable" equalsuperior
AlternateSubs2: "'aalt' Access All Alternates lookup 1 subtable" equalsuperior equal.numr equal.dnom equal.tf equal.osf
EndChar
StartChar: greater
Encoding: 62 62 2254
Width: 496
GlyphClass: 2
Flags: MW
HStem: 175 312<91 91>
VStem: 90 316<177 334 332 485>
LayerCount: 2
Back
Fore
SplineSet
91 487 m 1
 406 334 l 1
 406 332 l 1
 91 175 l 1
 90 177 l 1
 404 333 l 1
 90 485 l 1
 91 487 l 1
EndSplineSet
Substitution2: "'onum' Oldstyle Figures lookup 25 subtable" greater.osf
Substitution2: "'tnum' Tabular Numbers lookup 24 subtable" greater.tf
AlternateSubs2: "'aalt' Access All Alternates lookup 1 subtable" greater.tf greater.osf
EndChar

StartChar: question
Encoding: 63 63 989
Width: 448
Flags: MW
HStem: -3 14<190 194> 670 20G<201 276>
VStem: 191 187<271 595.5>
LayerCount: 2
Fore
SplineSet
235 690 m 0
 317 690 378 635 378 556 c 0
 378 412 193 432 193 271 c 2
 193 188 l 1
 191 188 l 1
 191 271 l 2
 191 434 376 412 376 556 c 0
 376 634 317 688 235 688 c 0
 167 688 116 661 72 608 c 1
 70 610 l 1
 115 663 167 690 235 690 c 0
192 11 m 0
 196 11 199 8 199 4 c 0
 199 0 196 -3 192 -3 c 0
 188 -3 185 0 185 4 c 0
 185 8 188 11 192 11 c 0
EndSplineSet
EndChar
StartChar: at
Encoding: 64 64 2372
Width: 1020
GlyphClass: 2
Flags: MW
HStem: -192 210<445.5 526 445.5 556> 472 219<475.5 550>
VStem: 108 228<159.5 316.5 159.5 362.5> 334 309<159.5 175 175 316.5> 641 271<169 408 194 408 194 441 194 441>
LayerCount: 2
Back
Fore
SplineSet
528 691 m 0xe8
 786 691 912 507 912 309 c 0
 912 79 831 14 755 14 c 0
 690 14 645 67 641 163 c 1xe8
 613 68 561 16 489 16 c 0
 402 16 334 88 334 231 c 0
 334 402 426 474 525 474 c 0
 575 474 616 457 643 442 c 1
 643 175 l 2xd0
 643 72 687 16 755 16 c 0
 831 16 910 81 910 309 c 0
 910 507 786 689 528 689 c 0
 276 689 110 481 110 244 c 0
 110 -35 290 -190 526 -190 c 0
 586 -190 656 -178 705 -159 c 1
 705 -161 l 1
 656 -180 586 -192 526 -192 c 0
 290 -192 108 -35 108 244 c 0
 108 481 276 691 528 691 c 0xe8
641 169 m 1
 641 175 l 1
 641 441 l 1
 616 455 575 472 525 472 c 0
 426 472 336 402 336 231 c 0
 336 88 402 18 489 18 c 0
 563 18 613 72 641 169 c 1
EndSplineSet
EndChar

StartChar: B
Encoding: 66 66 13
Width: 581
GlyphClass: 2
Flags: MW
HStem: 0 21G<130 287 130 130> 359 321<132 264 264 317 132 132> 660 20G<130 264 264 333.5>
VStem: 130 386<114.5 238.5 114.5 680>
LayerCount: 2
Fore
SplineSet
336 360 m 1xb0
 432 355 516 294 516 183 c 0
 516 46 417 0 287 0 c 2
 130 0 l 1
 130 680 l 1
 264 680 l 2
 403 680 478 619 478 513 c 0
 478 428 414 370 336 360 c 1xb0
132 678 m 1
 132 361 l 1
 312 361 l 2
 408 361 476 429 476 513 c 0
 476 617 403 678 265 678 c 2
 132 678 l 1
288 2 m 2
 415 2 514 46 514 183 c 0
 514 292 430 359 317 359 c 2
 132 359 l 1xd0
 132 2 l 1
 288 2 l 2
EndSplineSet
Substitution2: "'c2sc' Capitals to Small Capitals lookup 23 subtable" b.sc
Substitution2: "'aalt' Access All Alternates lookup 0 subtable" b.sc
Position2: "'cpsp' Capital Spacing lookup 0 subtable" dx=5 dy=0 dh=10 dv=0
EndChar

StartChar: D
Encoding: 68 68 20
Width: 613
GlyphClass: 2
Flags: MW
HStem: 0 21G<130 241 130 130> 660 20G<130 234 234 306>
VStem: 130 398<208.5 487 208.5 680 208.5 680>
AnchorPoint: "Anchor-11" 0 0 basechar 0
AnchorPoint: "Anchor-10" 0 0 basechar 0
AnchorPoint: "Anchor-9" 289 680 basechar 0
AnchorPoint: "Anchor-8" 0 0 basechar 0
LayerCount: 2
Fore
SplineSet
234 680 m 2
 378 680 528 626 528 348 c 0
 528 69 380 0 241 0 c 2
 130 0 l 1
 130 680 l 1
 234 680 l 2
132 678 m 1
 132 2 l 1
 241 2 l 2
 380 2 526 71 526 348 c 0
 526 624 377 678 234 678 c 2
 132 678 l 1
EndSplineSet
Substitution2: "'c2sc' Capitals to Small Capitals lookup 23 subtable" d.sc
Substitution2: "'aalt' Access All Alternates lookup 0 subtable" d.sc
Position2: "'cpsp' Capital Spacing lookup 0 subtable" dx=5 dy=0 dh=10 dv=0
EndChar

StartChar: F
Encoding: 70 70 34
Width: 470
GlyphClass: 2
Flags: MW
HStem: 0 21G<130 132 130 130> 345 335<132 390 132 132>
VStem: 130 300<678 678 678 680 678 680>
LayerCount: 2
Fore
SplineSet
430 678 m 1
 132 678 l 1
 132 347 l 1
 390 347 l 1
 390 345 l 1
 132 345 l 1
 132 0 l 1
 130 0 l 1
 130 680 l 1
 430 680 l 1
 430 678 l 1
EndSplineSet
Substitution2: "'c2sc' Capitals to Small Capitals lookup 23 subtable" f.sc
Substitution2: "'aalt' Access All Alternates lookup 0 subtable" f.sc
Position2: "'cpsp' Capital Spacing lookup 0 subtable" dx=5 dy=0 dh=10 dv=0
EndChar
StartChar: H
Encoding: 72 72 109
Width: 654
GlyphClass: 2
Flags: MW
HStem: 0 21G<130 132 130 130 522 524 522 522> 660 20G<130 132 132 132 522 524 524 524>
VStem: 130 394<0 680 0 680>
AnchorPoint: "Anchor-14" 326 340 basechar 0
AnchorPoint: "Anchor-13" 0 0 basechar 0
AnchorPoint: "Anchor-12" 326 680 basechar 0
AnchorPoint: "Anchor-11" 0 0 basechar 0
AnchorPoint: "Anchor-10" 327 0 basechar 0
LayerCount: 2
Back
Fore
SplineSet
522 0 m 1
 522 360 l 1
 132 360 l 1
 132 0 l 1
 130 0 l 1
 130 680 l 1
 132 680 l 1
 132 362 l 1
 522 362 l 1
 522 680 l 1
 524 680 l 1
 524 0 l 1
 522 0 l 1
EndSplineSet
Substitution2: "'c2sc' Capitals to Small Capitals lookup 26 subtable" h.sc
Substitution2: "'aalt' Access All Alternates lookup 0 subtable" h.sc
Position2: "'cpsp' Capital Spacing lookup 0 subtable" dx=5 dy=0 dh=10 dv=0
EndChar
StartChar: I
Encoding: 73 73 118
Width: 262
GlyphClass: 2
Flags: MW
HStem: 0 21G<130 132 130 130> 660 20G<130 132 132 132>
VStem: 130 2<0 680 0 680>
AnchorPoint: "Anchor-14" 0 0 basechar 0
AnchorPoint: "Anchor-13" 0 0 basechar 0
AnchorPoint: "Anchor-12" 131 680 basechar 0
AnchorPoint: "Anchor-11" 142 0 basechar 0
AnchorPoint: "Anchor-10" 131 0 basechar 0
LayerCount: 2
Back
Fore
SplineSet
132 680 m 1
 132 0 l 1
 130 0 l 1
 130 680 l 1
 132 680 l 1
EndSplineSet
Substitution2: "'c2sc' Capitals to Small Capitals lookup 26 subtable" i.sc
Substitution2: "'aalt' Access All Alternates lookup 0 subtable" i.sc
Position2: "'cpsp' Capital Spacing lookup 0 subtable" dx=5 dy=0 dh=10 dv=0
EndChar

StartChar: J
Encoding: 74 74 54
Width: 274
GlyphClass: 2
Flags: MW
HStem: 660 20G<148 150 150 150>
VStem: 30 120
AnchorPoint: "Anchor-11" 0 0 basechar 0
AnchorPoint: "Anchor-10" 0 0 basechar 0
AnchorPoint: "Anchor-9" 150 680 basechar 0
AnchorPoint: "Anchor-8" 0 0 basechar 0
LayerCount: 2
Fore
SplineSet
150 85 m 2
 150 -7 131 -50 31 -91 c 1
 30 -89 l 1
 129 -49 148 -6 148 85 c 2
 148 680 l 1
 150 680 l 1
 150 85 l 2
EndSplineSet
Substitution2: "'c2sc' Capitals to Small Capitals lookup 23 subtable" j.sc
Substitution2: "'aalt' Access All Alternates lookup 0 subtable" j.sc
Position2: "'cpsp' Capital Spacing lookup 0 subtable" dx=5 dy=0 dh=10 dv=0
EndChar

StartChar: K
Encoding: 75 75 56
Width: 504
GlyphClass: 2
Flags: MW
HStem: 0 21G<486 489 486 486> 1 21G<130 132 130 130> 660 20G<130 132 132 132 470 473 473 473>
VStem: 130 8<366 366 366 680>
AnchorPoint: "Anchor-11" 284 0 basechar 0
AnchorPoint: "Anchor-10" 0 0 basechar 0
AnchorPoint: "Anchor-9" 284 680 basechar 0
AnchorPoint: "Anchor-8" 0 0 basechar 0
LayerCount: 2
Fore
SplineSet
132 1 m 1x70
 130 1 l 1
 130 680 l 1
 132 680 l 1
 132 1 l 1x70
138 366 m 1
 489 0 l 1
 486 0 l 1xb0
 135 366 l 1
 470 680 l 1
 473 680 l 1
 138 366 l 1
EndSplineSet
Substitution2: "'c2sc' Capitals to Small Capitals lookup 23 subtable" k.sc
Substitution2: "'aalt' Access All Alternates lookup 0 subtable" k.sc
Position2: "'cpsp' Capital Spacing lookup 0 subtable" dx=5 dy=0 dh=10 dv=0
EndChar
StartChar: L
Encoding: 76 76 144
Width: 445
GlyphClass: 2
Flags: MW
HStem: 0 21G<130 420 130 130> 660 20G<130 132 132 132>
VStem: 130 290<0 2 0 680>
AnchorPoint: "Anchor-14" 350 355 basechar 0
AnchorPoint: "Anchor-13" 182 680 basechar 0
AnchorPoint: "Anchor-12" 131 680 basechar 0
AnchorPoint: "Anchor-11" 0 0 basechar 0
AnchorPoint: "Anchor-10" 275 0 basechar 0
LayerCount: 2
Back
Fore
SplineSet
132 680 m 1
 132 2 l 1
 420 2 l 1
 420 0 l 1
 130 0 l 1
 130 680 l 1
 132 680 l 1
EndSplineSet
Substitution2: "'c2sc' Capitals to Small Capitals lookup 26 subtable" l.sc
Substitution2: "'aalt' Access All Alternates lookup 0 subtable" l.sc
Position2: "'cpsp' Capital Spacing lookup 0 subtable" dx=5 dy=0 dh=10 dv=0
EndChar
StartChar: N
Encoding: 78 78 159
Width: 654
GlyphClass: 2
Flags: MW
HStem: 0 21G<130 132 130 130 521 524 521 521> 660 20G<130 133 133 133 522 524 524 524>
VStem: 130 394<0 680 0 680>
AnchorPoint: "Anchor-14" 0 0 basechar 0
AnchorPoint: "Anchor-13" 0 0 basechar 0
AnchorPoint: "Anchor-12" 331 680 basechar 0
AnchorPoint: "Anchor-11" 0 0 basechar 0
AnchorPoint: "Anchor-10" 321 0 basechar 0
LayerCount: 2
Back
Fore
SplineSet
524 680 m 1
 524 0 l 1
 521 0 l 1
 132 678 l 1
 132 575 l 1
 132 0 l 1
 130 0 l 1
 130 680 l 1
 133 680 l 1
 522 2 l 1
 522 136 l 1
 522 680 l 1
 524 680 l 1
EndSplineSet
Substitution2: "'c2sc' Capitals to Small Capitals lookup 26 subtable" n.sc
Substitution2: "'aalt' Access All Alternates lookup 0 subtable" n.sc
Position2: "'cpsp' Capital Spacing lookup 0 subtable" dx=5 dy=0 dh=10 dv=0
EndChar

StartChar: Q
Encoding: 81 81 85
Width: 674
GlyphClass: 2
Flags: MW
HStem: -8.92 21G -7 21G<264.001 426.001> 670 20G<265.5 423.5>
VStem: 85 531
LayerCount: 2
Fore
SplineSet
373 -7 m 1x70
 480 -8 553.001 -21 616.001 -72 c 1
 614.001 -73 l 1
 554.061 -24.8496 487.36 -7.59961 350.33 -8.91992 c 0
 347.43 -9 345.21 -9 343 -9 c 0xb0
 184 -9 85 119 85 338 c 0
 85 557 188 690 343 690 c 0
 504 690 602 563 602 340 c 0
 602 133 520 6 373 -7 c 1x70
87.001 338 m 0
 87.001 121 185.001 -7 343.001 -7 c 0
 509.001 -7 600.001 122 600.001 340 c 0
 600.001 561 503.001 688 343.001 688 c 0
 189.001 688 87.001 555 87.001 338 c 0
EndSplineSet
Substitution2: "'c2sc' Capitals to Small Capitals lookup 23 subtable" q.sc
Substitution2: "'aalt' Access All Alternates lookup 0 subtable" q.sc
Position2: "'cpsp' Capital Spacing lookup 0 subtable" dx=5 dy=0 dh=10 dv=0
EndChar

StartChar: T
Encoding: 84 84 96
Width: 472
GlyphClass: 2
Flags: MW
HStem: 0 21G<235 237 235 235> 660 20G<20 452 452 452>
VStem: 20 217<0 680 0 680> 20 432<678 680 678 680>
AnchorPoint: "Anchor-11" 236 0 basechar 0
AnchorPoint: "Anchor-10" 0 0 basechar 0
AnchorPoint: "Anchor-9" 223 680 basechar 0
AnchorPoint: "Anchor-8" 0 0 basechar 0
LayerCount: 2
Fore
SplineSet
452 678 m 1xd0
 237 678 l 1
 237 0 l 1
 235 0 l 1
 235 678 l 1
 20 678 l 1
 20 680 l 1xe0
 452 680 l 1
 452 678 l 1xd0
EndSplineSet
Substitution2: "'c2sc' Capitals to Small Capitals lookup 23 subtable" t.sc
Substitution2: "'aalt' Access All Alternates lookup 0 subtable" t.sc
Position2: "'cpsp' Capital Spacing lookup 0 subtable" dx=5 dy=0 dh=10 dv=0
EndChar

StartChar: V
Encoding: 86 86 112
Width: 523
GlyphClass: 2
Flags: MW
HStem: 0 21G<262 264 262 262> 660 20G<35 37 37 37 486 488 488 488>
VStem: 35 453<680 680>
LayerCount: 2
Fore
SplineSet
264 0 m 1
 262 0 l 1
 35 680 l 1
 37 680 l 1
 263 2 l 1
 486 680 l 1
 488 680 l 1
 264 0 l 1
EndSplineSet
Substitution2: "'c2sc' Capitals to Small Capitals lookup 23 subtable" v.sc
Substitution2: "'aalt' Access All Alternates lookup 0 subtable" v.sc
Position2: "'cpsp' Capital Spacing lookup 0 subtable" dx=5 dy=0 dh=10 dv=0
EndChar
StartChar: X
Encoding: 88 88 301
Width: 467
GlyphClass: 2
Flags: MW
HStem: 0 21G<20 22 20 20 445 447 445 445> 660 20G<51 53 53 53 414 416 416 416>
VStem: 20 427<0 0>
LayerCount: 2
Back
Fore
SplineSet
235 370 m 1
 447 0 l 1
 445 0 l 1
 233 369 l 1
 22 0 l 1
 20 0 l 1
 231 370 l 1
 51 680 l 1
 53 680 l 1
 233 371 l 1
 414 680 l 1
 416 680 l 1
 235 370 l 1
EndSplineSet
Substitution2: "'c2sc' Capitals to Small Capitals lookup 26 subtable" x.sc
Substitution2: "'aalt' Access All Alternates lookup 0 subtable" x.sc
Position2: "'cpsp' Capital Spacing lookup 0 subtable" dx=5 dy=0 dh=10 dv=0
EndChar
StartChar: Y
Encoding: 89 89 302
Width: 479
GlyphClass: 2
Flags: MW
HStem: 0 21G<239 241 239 239> 660 20G<25 27 27 27 452 454 454 454>
VStem: 25 429<680 680>
AnchorPoint: "Anchor-14" 0 0 basechar 0
AnchorPoint: "Anchor-13" 0 0 basechar 0
AnchorPoint: "Anchor-12" 240 680 basechar 0
AnchorPoint: "Anchor-11" 0 0 basechar 0
AnchorPoint: "Anchor-10" 240 0 basechar 0
LayerCount: 2
Back
Fore
SplineSet
454 680 m 1
 241 271 l 1
 241 0 l 1
 239 0 l 1
 239 271 l 1
 25 680 l 1
 27 680 l 1
 240 273 l 1
 452 680 l 1
 454 680 l 1
EndSplineSet
Substitution2: "'c2sc' Capitals to Small Capitals lookup 26 subtable" y.sc
Substitution2: "'aalt' Access All Alternates lookup 0 subtable" y.sc
Position2: "'cpsp' Capital Spacing lookup 0 subtable" dx=5 dy=0 dh=10 dv=0
EndChar

StartChar: Z
Encoding: 90 90 124
Width: 504
GlyphClass: 2
Flags: MW
HStem: 0 21G<45 437 45 45> 660 20G<82 454 454 454>
VStem: 45 409
AnchorPoint: "Anchor-11" 0 0 basechar 0
AnchorPoint: "Anchor-10" 0 0 basechar 0
AnchorPoint: "Anchor-9" 254 680 basechar 0
AnchorPoint: "Anchor-8" 0 0 basechar 0
LayerCount: 2
Fore
SplineSet
454 678 m 1
 48 2 l 1
 437 2 l 1
 437 0 l 1
 45 0 l 1
 45 2 l 1
 451 678 l 1
 82 678 l 1
 82 680 l 1
 454 680 l 1
 454 678 l 1
EndSplineSet
Substitution2: "'c2sc' Capitals to Small Capitals lookup 23 subtable" z.sc
Substitution2: "'aalt' Access All Alternates lookup 0 subtable" z.sc
Position2: "'cpsp' Capital Spacing lookup 0 subtable" dx=5 dy=0 dh=10 dv=0
EndChar
StartChar: bracketleft
Encoding: 91 91 2142
Width: 310
Flags: MW
HStem: -100 890<110 220 110 220>
VStem: 110 110<-100 -98 788 790>
LayerCount: 2
Back
Fore
SplineSet
220 790 m 1
 220 788 l 1
 112 788 l 1
 112 -98 l 1
 220 -98 l 1
 220 -100 l 1
 110 -100 l 1
 110 790 l 1
 220 790 l 1
EndSplineSet
Substitution2: "'case' Case-Sensitive Forms lookup 28 subtable" bracketleft.case
Substitution2: "'aalt' Access All Alternates lookup 0 subtable" bracketleft.case
EndChar

StartChar: backslash
Encoding: 92 92 979
Width: 520
Flags: MW
HStem: -92 886<145 375>
VStem: 143 234
LayerCount: 2
Fore
SplineSet
377 -91 m 1
 375 -92 l 1
 143 793 l 1
 145 794 l 1
 377 -91 l 1
EndSplineSet
EndChar

StartChar: bracketright
Encoding: 93 93 1006
Width: 310
Flags: MW
HStem: -100 890<90 200 90 200>
VStem: 90 110<-100 -98 -98 -98 788 790>
LayerCount: 2
Fore
SplineSet
200 -100 m 1
 90 -100 l 1
 90 -98 l 1
 198 -98 l 1
 198 788 l 1
 90 788 l 1
 90 790 l 1
 200 790 l 1
 200 -100 l 1
EndSplineSet
Substitution2: "'case' Case-Sensitive Forms lookup 25 subtable" bracketright.case
Substitution2: "'aalt' Access All Alternates lookup 0 subtable" bracketright.case
EndChar

StartChar: asciicircum
Encoding: 94 94 1228
Width: 528
Flags: MW
HStem: 507 20G<90 92 90 90 426 428 426 426>
VStem: 90 338<527 527>
LayerCount: 2
Fore
SplineSet
428 527 m 1
 426 527 l 1
 259 815 l 1
 92 527 l 1
 90 527 l 1
 258 817 l 1
 260 817 l 1
 428 527 l 1
EndSplineSet
EndChar
StartChar: underscore
Encoding: 95 95 2136
Width: 520
Flags: MW
HStem: -87 2<53 467 53 467>
VStem: 53 414<-87 -85 -87 -85>
LayerCount: 2
Back
Fore
SplineSet
53 -87 m 1
 53 -85 l 1
 467 -85 l 1
 467 -87 l 1
 53 -87 l 1
EndSplineSet
EndChar
StartChar: grave
Encoding: 96 96 2531
Width: 228
Flags: MW
HStem: 662 84
VStem: 30 168<664 744>
LayerCount: 2
Back
Fore
SplineSet
31 746 m 1
 198 664 l 1
 197 662 l 1
 30 744 l 1
 31 746 l 1
EndSplineSet
Substitution2: "Single Substitution lookup 41 subtable" grave.case
Substitution2: "'case' Case-Sensitive Forms lookup 28 subtable" grave.case
Substitution2: "'smcp' Lowercase to Small Capitals lookup 27 subtable" grave.sc
Substitution2: "'c2sc' Capitals to Small Capitals lookup 26 subtable" grave.sc
AlternateSubs2: "'aalt' Access All Alternates lookup 1 subtable" grave.sc grave.case
EndChar

StartChar: b
Encoding: 98 98 146
Width: 567
GlyphClass: 2
Flags: MW
HStem: -9 21G<262.325 360.99> 0 21G<125 127 125 125> 507 20G<264.325 363> 710 20G<125 127 127 127>
VStem: 125 356.99
LayerCount: 2
Fore
SplineSet
306 527 m 0x78
 420 527 481.99 431 481.99 264 c 0
 481.99 95 419.99 -9 301.99 -9 c 0xb8
 222.66 -9 166.93 35.25 127 98.4102 c 1
 127 0 l 1
 125 0 l 1
 125 730 l 1
 127 730 l 1
 127 421.41 l 1
 169.82 481.71 222.65 527 306 527 c 0x78
301.99 -7 m 0
 418.99 -7 479.99 96.9893 479.99 263.989 c 0
 479.99 428.989 419.99 524.989 305.99 524.989 c 0
 224.59 524.989 172.75 482.609 126.99 418.399 c 1
 126.99 101.43 l 1
 168.86 36.2998 223.62 -7 301.99 -7 c 0
EndSplineSet
Substitution2: "'smcp' Lowercase to Small Capitals lookup 24 subtable" b.sc
Substitution2: "'aalt' Access All Alternates lookup 0 subtable" b.sc
EndChar
StartChar: c
Encoding: 99 99 380
Width: 469
GlyphClass: 2
Flags: MW
HStem: -9 21G<222.5 310.5> 507 20G<219 308.5>
VStem: 80 334<44 341>
AnchorPoint: "Anchor-14" 0 0 basechar 0
AnchorPoint: "Anchor-13" 0 0 basechar 0
AnchorPoint: "Anchor-12" 269 517 basechar 0
AnchorPoint: "Anchor-11" 0 0 basechar 0
AnchorPoint: "Anchor-10" 285 -1 basechar 0
LayerCount: 2
Back
Fore
SplineSet
282 527 m 0
 335 527 375 510 410 477 c 1
 408 476 l 1
 373 509 333 525 282 525 c 0
 158 525 82 424 82 256 c 0
 82 88 166 -7 280 -7 c 0
 339 -7 379 14 412 45 c 1
 414 44 l 1
 381 13 341 -9 280 -9 c 0
 165 -9 80 86 80 256 c 0
 80 426 156 527 282 527 c 0
EndSplineSet
Substitution2: "'smcp' Lowercase to Small Capitals lookup 27 subtable" c.sc
Substitution2: "'aalt' Access All Alternates lookup 0 subtable" c.sc
EndChar

StartChar: d
Encoding: 100 100 153
Width: 572
GlyphClass: 2
Flags: MW
HStem: -9 21G<216 318.07> 0 21G<445 447 445 445> 507 20G<218.5 323.905> 710 20G<445 447 447 447>
VStem: 85 362<172 337>
LayerCount: 2
Fore
SplineSet
447 730 m 1x78
 447 0 l 1
 445 0 l 1x78
 445 100.24 l 1
 410.1 39.0703 363.14 -9 273 -9 c 0xb8
 159 -9 85 87 85 257 c 0
 85 417 156 527 281 527 c 0
 366.81 527 420.52 473.49 445 424.05 c 1
 445 730 l 1
 447 730 l 1x78
273 -7 m 0
 363.13 -7 410.101 41.0703 444.99 104.181 c 1
 444.99 420.971 l 1
 418.65 472.36 365.91 525 281 525 c 0
 158 525 87 415 87 257 c 0
 87 89 160 -7 273 -7 c 0
EndSplineSet
Substitution2: "'smcp' Lowercase to Small Capitals lookup 24 subtable" d.sc
Substitution2: "'aalt' Access All Alternates lookup 0 subtable" d.sc
EndChar

StartChar: e
Encoding: 101 101 157
Width: 528
GlyphClass: 2
Flags: MW
HStem: -9 263<216.5 309.5> 252 275<216 337.5 216 452.001 82.001 337.5>
VStem: 80 373<281 339.5>
AnchorPoint: "Anchor-11" 276 0 basechar 0
AnchorPoint: "Anchor-10" 0 0 basechar 0
AnchorPoint: "Anchor-9" 276 517 basechar 0
AnchorPoint: "Anchor-8" 364 4 basechar 0
LayerCount: 2
Fore
SplineSet
453 288 m 0x60
 453 274 453.001 266 452.001 252 c 1
 82.001 252 l 1x60
 82.3105 85.6299 159.23 -7 276 -7 c 0
 341 -7 384 14 429 52 c 1
 430 50 l 1
 385 13 343 -9 276 -9 c 0xa0
 157 -9 80 85 80 253 c 0
 80 426 156 527 276 527 c 0
 399 527 453 424 453 288 c 0x60
450.001 254 m 1xa0
 451.001 267 451.001 275 451.001 288 c 0
 451.001 422 398.001 525 276.001 525 c 0
 157.231 525 82.291 424.39 82.001 254 c 1
 450.001 254 l 1xa0
EndSplineSet
Substitution2: "'smcp' Lowercase to Small Capitals lookup 24 subtable" e.sc
Substitution2: "'aalt' Access All Alternates lookup 0 subtable" e.sc
EndChar
StartChar: f
Encoding: 102 102 448
Width: 299
GlyphClass: 2
Flags: MW
HStem: 0 21G<127 129 127 127> 497 20G<35 127 127 127 129 280 280 280> 515 218<35 260 35 260 206 260 206 280 129 260>
VStem: 35 94<0 517 0 517> 127 153<0 517 515 517 515 618 515 656>
AnchorPoint: "Anchor-14" 0 0 basechar 0
AnchorPoint: "Anchor-13" 0 0 basechar 0
AnchorPoint: "Anchor-12" 240 727 basechar 0
AnchorPoint: "Anchor-11" 0 0 basechar 0
AnchorPoint: "Anchor-10" 128 0 basechar 0
LayerCount: 2
Back
Fore
SplineSet
238 731 m 0xb0
 175 731 129 693 129 618 c 2
 129 517 l 1xd0
 280 517 l 1
 280 515 l 1xa8
 129 515 l 1xb0
 129 0 l 1
 127 0 l 1
 127 515 l 1xa8
 35 515 l 1
 35 517 l 1xd0
 127 517 l 1xc8
 127 618 l 2xa8
 127 694 174 733 238 733 c 0
 282 733 319 719 349 700 c 1
 348 698 l 1
 318 717 282 731 238 731 c 0xb0
EndSplineSet
Substitution2: "'smcp' Lowercase to Small Capitals lookup 27 subtable" f.sc
Substitution2: "'aalt' Access All Alternates lookup 0 subtable" f.sc
EndChar
StartChar: h
Encoding: 104 104 469
Width: 580
GlyphClass: 2
Flags: MW
HStem: 0 21G<125 127 125 125 458 460 458 458> 507 20G<282.5 373> 710 20G<125 127 127 127>
VStem: 125 335<0 368 0 730>
AnchorPoint: "Anchor-14" 293 260 basechar 0
AnchorPoint: "Anchor-13" 0 0 basechar 0
AnchorPoint: "Anchor-12" 293 727 basechar 0
AnchorPoint: "Anchor-11" 0 0 basechar 0
AnchorPoint: "Anchor-10" 293 0 basechar 0
LayerCount: 2
Back
Fore
SplineSet
326 527 m 0
 420 527 460 465 460 368 c 2
 460 0 l 1
 458 0 l 1
 458 368 l 2
 458 464 419 525 326 525 c 0
 239 525 175 473 127 387 c 1
 127 0 l 1
 125 0 l 1
 125 730 l 1
 127 730 l 1
 127 391 l 1
 175 476 239 527 326 527 c 0
EndSplineSet
Substitution2: "'smcp' Lowercase to Small Capitals lookup 27 subtable" h.sc
Substitution2: "'aalt' Access All Alternates lookup 0 subtable" h.sc
EndChar
StartChar: k
Encoding: 107 107 506
Width: 448
GlyphClass: 2
Flags: MW
HStem: 0 21G<125 127 125 125 420 420 420 423> 497 20G<393 396 396 396> 710 20G<125 127 127 127>
VStem: 125 11<283 283 283 730>
AnchorPoint: "Anchor-14" 0 0 basechar 0
AnchorPoint: "Anchor-13" 0 0 basechar 0
AnchorPoint: "Anchor-12" 260 727 basechar 0
AnchorPoint: "Anchor-11" 0 0 basechar 0
AnchorPoint: "Anchor-10" 269 0 basechar 0
LayerCount: 2
Back
Fore
SplineSet
127 730 m 1
 127 0 l 1
 125 0 l 1
 125 730 l 1
 127 730 l 1
396 517 m 1
 136 283 l 1
 423 0 l 1
 420 0 l 1
 133 283 l 1
 393 517 l 1
 396 517 l 1
EndSplineSet
Substitution2: "'smcp' Lowercase to Small Capitals lookup 27 subtable" k.sc
Substitution2: "'aalt' Access All Alternates lookup 0 subtable" k.sc
EndChar
StartChar: l
Encoding: 108 108 512
Width: 275
GlyphClass: 2
Flags: MW
HStem: -9 21G<159 186.5> 710 20G<120 122 122 122>
VStem: 120 100<-1 730>
AnchorPoint: "Anchor-14" 256 375 basechar 0
AnchorPoint: "Anchor-13" 182 727 basechar 0
AnchorPoint: "Anchor-12" 121 730 basechar 0
AnchorPoint: "Anchor-11" 0 0 basechar 0
AnchorPoint: "Anchor-10" 174 0 basechar 0
LayerCount: 2
Back
Fore
SplineSet
179 -9 m 0
 139 -9 120 19 120 64 c 2
 120 730 l 1
 122 730 l 1
 122 64 l 2
 122 21 140 -7 179 -7 c 0
 194 -7 208 -4 220 1 c 1
 220 -1 l 1
 208 -6 194 -9 179 -9 c 0
EndSplineSet
Substitution2: "'smcp' Lowercase to Small Capitals lookup 27 subtable" l.sc
Substitution2: "'sups' Superscript lookup 14 subtable" uni02E1
AlternateSubs2: "'aalt' Access All Alternates lookup 1 subtable" uni02E1 l.sc
EndChar

StartChar: m
Encoding: 109 109 200
Width: 845
GlyphClass: 2
Flags: MW
HStem: 0 21G<125 127 125 125 424 426 424 424 723 725 723 723> 497 20G<125 127 127 127> 507 20G<262.31 340.2 561.285 642.5>
VStem: 125 301<0 387 0 517 0 517> 424 301<0 368 0 378 0 421>
LayerCount: 2
Fore
SplineSet
600 527 m 0xa8
 685 527 725 465 725 368 c 2
 725 0 l 1
 723 0 l 1
 723 368 l 2xa8
 723 464 684 525 600 525 c 0
 523 525 468 473 426 387 c 1xb0
 426 0 l 1
 424 0 l 1
 424 378 l 2xc8
 424 464 385 525 301 525 c 0
 224 525 169 473 127 387 c 1
 127 0 l 1
 125 0 l 1
 125 517 l 1
 127 517 l 1xd0
 127 391.03 l 1xb0
 168.87 475.82 223.62 527 301 527 c 0
 379.4 527 422.351 473.8 425.921 390.88 c 1
 467.801 475.76 522.57 527 600 527 c 0xa8
EndSplineSet
Substitution2: "'smcp' Lowercase to Small Capitals lookup 24 subtable" m.sc
Substitution2: "'aalt' Access All Alternates lookup 0 subtable" m.sc
EndChar
StartChar: n
Encoding: 110 110 536
Width: 580
GlyphClass: 2
Flags: MW
HStem: 0 21G<125 127 125 125 458 460 458 458> 497 20G<125 127 127 127> 507 20G<282.5 373.5>
VStem: 125 335<0 368 0 517 0 517>
AnchorPoint: "Anchor-14" 0 0 basechar 0
AnchorPoint: "Anchor-13" 0 0 basechar 0
AnchorPoint: "Anchor-12" 295 517 basechar 0
AnchorPoint: "Anchor-11" 0 0 basechar 0
AnchorPoint: "Anchor-10" 287 0 basechar 0
LayerCount: 2
Back
Fore
SplineSet
326 527 m 0xb0
 421 527 460 467 460 368 c 2
 460 0 l 1
 458 0 l 1
 458 368 l 2
 458 466 420 525 326 525 c 0
 239 525 175 473 127 387 c 1
 127 0 l 1
 125 0 l 1
 125 517 l 1
 127 517 l 1xd0
 127 391 l 1
 175 476 239 527 326 527 c 0xb0
EndSplineSet
Substitution2: "'smcp' Lowercase to Small Capitals lookup 27 subtable" n.sc
Substitution2: "'aalt' Access All Alternates lookup 0 subtable" n.sc
EndChar
StartChar: o
Encoding: 111 111 553
Width: 559
GlyphClass: 2
Flags: MW
HStem: -9 21G<217 340.5> 507 20G<220.5 342>
VStem: 80 399<175.5 344.5>
AnchorPoint: "Anchor-14" 0 0 basechar 0
AnchorPoint: "Anchor-13" 431 517 basechar 0
AnchorPoint: "Anchor-12" 280 517 basechar 0
AnchorPoint: "Anchor-11" 348 0 basechar 0
AnchorPoint: "Anchor-10" 280 0 basechar 0
LayerCount: 2
Back
Fore
SplineSet
281 527 m 0
 403 527 479 429 479 262 c 0
 479 89 402 -9 279 -9 c 0
 155 -9 80 91 80 258 c 0
 80 431 160 527 281 527 c 0
281 525 m 0
 161 525 82 429 82 258 c 0
 82 93 156 -7 279 -7 c 0
 401 -7 477 91 477 262 c 0
 477 427 402 525 281 525 c 0
EndSplineSet
Substitution2: "Single Substitution lookup 41 subtable" ordmasculine
Substitution2: "'smcp' Lowercase to Small Capitals lookup 27 subtable" o.sc
AlternateSubs2: "'aalt' Access All Alternates lookup 1 subtable" ordmasculine o.sc
EndChar

StartChar: q
Encoding: 113 113 222
Width: 567
GlyphClass: 2
Flags: MW
HStem: -190 21G<439.99 441.99 439.99 439.99> -9 21G<210.5 312.56> 497 20G<440 442 442 442> 507 20G<213.5 318.925>
VStem: 80 362<172 517>
LayerCount: 2
Fore
SplineSet
442 517 m 1xe8
 441.99 -190 l 1
 439.99 -190 l 1
 439.99 100.24 l 1
 405.101 39.0703 358.12 -9 267 -9 c 0
 154 -9 80 87 80 257 c 0
 80 417 151 527 276 527 c 0xd8
 361.85 527 414.6 473.43 440 424.93 c 1
 440 517 l 1
 442 517 l 1xe8
266.99 -7 m 0
 358.12 -7 405.09 41.0703 439.99 104.181 c 1
 439.99 420.971 l 1
 413.641 472.36 360.9 525 275.99 525 c 0
 152.99 525 81.9902 415 81.9902 257 c 0
 81.9902 89 154.99 -7 266.99 -7 c 0
EndSplineSet
Substitution2: "'smcp' Lowercase to Small Capitals lookup 24 subtable" q.sc
Substitution2: "'aalt' Access All Alternates lookup 0 subtable" q.sc
EndChar
StartChar: t
Encoding: 116 116 638
Width: 322
GlyphClass: 2
Flags: MW
HStem: -9 21G<187.5 241> 497 20G<30 117 117 117 119 265 265 265> 515 136<30 119 30 119 117 119 117 265>
VStem: 30 89<515 515 517 517> 117 148<113 517 515 517 515 651 515 651>
AnchorPoint: "Anchor-14" 145 259 basechar 0
AnchorPoint: "Anchor-13" 157 730 basechar 0
AnchorPoint: "Anchor-12" 118 651 basechar 0
AnchorPoint: "Anchor-11" 0 0 basechar 0
AnchorPoint: "Anchor-10" 225 0 basechar 0
LayerCount: 2
Back
Fore
SplineSet
313 21 m 1xd0
 314 19 l 1xd0
 289 4 262 -9 220 -9 c 0
 155 -9 117 35 117 113 c 2
 117 515 l 1xa8
 30 515 l 1
 30 517 l 1xd0
 117 517 l 1xc8
 117 651 l 1
 119 651 l 1xb0
 119 517 l 1xd0
 265 517 l 1
 265 515 l 1xa8
 119 515 l 1xb0
 119 113 l 2
 119 37 156 -7 220 -7 c 0
 262 -7 290 6 313 21 c 1xd0
EndSplineSet
Substitution2: "'smcp' Lowercase to Small Capitals lookup 27 subtable" t.sc
Substitution2: "'aalt' Access All Alternates lookup 0 subtable" t.sc
EndChar
StartChar: u
Encoding: 117 117 661
Width: 575
GlyphClass: 2
Flags: MW
HStem: -9 21G<217.5 304> 0 21G<448 450 448 448> 497 20G<120 122 122 122 448 450 450 450>
VStem: 120 330<150 517 0 517>
AnchorPoint: "Anchor-14" 0 0 basechar 0
AnchorPoint: "Anchor-13" 460 517 basechar 0
AnchorPoint: "Anchor-12" 290 517 basechar 0
AnchorPoint: "Anchor-11" 460 0 basechar 0
AnchorPoint: "Anchor-10" 290 0 basechar 0
LayerCount: 2
Back
Fore
SplineSet
450 517 m 1x70
 450 0 l 1
 448 0 l 1x70
 448 116 l 1
 406 40 347 -9 261 -9 c 0xb0
 174 -9 120 46 120 150 c 2
 120 517 l 1
 122 517 l 1
 122 150 l 2
 122 48 175 -7 261 -7 c 0
 348 -7 407 45 448 120 c 1
 448 517 l 1
 450 517 l 1x70
EndSplineSet
Substitution2: "'smcp' Lowercase to Small Capitals lookup 27 subtable" u.sc
Substitution2: "'aalt' Access All Alternates lookup 0 subtable" u.sc
EndChar

StartChar: v
Encoding: 118 118 250
Width: 435
GlyphClass: 2
Flags: MW
HStem: 0 21G<222 224 222 222> 497 20G<30 32 32 32 403 405 405 405>
VStem: 30 375<517 517>
LayerCount: 2
Fore
SplineSet
224 0 m 1
 222 0 l 1
 30 517 l 1
 32 517 l 1
 223 2 l 1
 403 517 l 1
 405 517 l 1
 224 0 l 1
EndSplineSet
Substitution2: "'smcp' Lowercase to Small Capitals lookup 24 subtable" v.sc
Substitution2: "'aalt' Access All Alternates lookup 0 subtable" v.sc
EndChar
StartChar: x
Encoding: 120 120 702
Width: 424
GlyphClass: 2
Flags: MW
HStem: 0 21G<25 27 25 25 397 399 397 397> 497 20G<52 54 54 54 370 372 372 372>
VStem: 25 374<0 0>
AnchorPoint: "Anchor-14" 0 0 basechar 0
AnchorPoint: "Anchor-13" 0 0 basechar 0
AnchorPoint: "Anchor-12" 212 517 basechar 0
AnchorPoint: "Anchor-11" 0 0 basechar 0
AnchorPoint: "Anchor-10" 212 0 basechar 0
LayerCount: 2
Back
Fore
SplineSet
211 278 m 1
 399 0 l 1
 397 0 l 1
 210 277 l 1
 27 0 l 1
 25 0 l 1
 209 278 l 1
 52 517 l 1
 54 517 l 1
 210 279 l 1
 370 517 l 1
 372 517 l 1
 211 278 l 1
EndSplineSet
Substitution2: "'smcp' Lowercase to Small Capitals lookup 27 subtable" x.sc
Substitution2: "'sups' Superscript lookup 14 subtable" uni02E3
AlternateSubs2: "'aalt' Access All Alternates lookup 1 subtable" uni02E3 x.sc
EndChar
StartChar: z
Encoding: 122 122 716
Width: 410
GlyphClass: 2
Flags: MW
HStem: 0 21G<35 359 35 35> 497 20G<66 370 370 370>
VStem: 35 335
AnchorPoint: "Anchor-14" 0 0 basechar 0
AnchorPoint: "Anchor-13" 0 0 basechar 0
AnchorPoint: "Anchor-12" 215 517 basechar 0
AnchorPoint: "Anchor-11" 0 0 basechar 0
AnchorPoint: "Anchor-10" 207 0 basechar 0
LayerCount: 2
Back
Fore
SplineSet
370 517 m 1
 370 515 l 1
 38 2 l 1
 359 2 l 1
 359 0 l 1
 35 0 l 1
 35 2 l 1
 367 515 l 1
 66 515 l 1
 66 517 l 1
 370 517 l 1
EndSplineSet
Substitution2: "'smcp' Lowercase to Small Capitals lookup 27 subtable" z.sc
Substitution2: "'aalt' Access All Alternates lookup 0 subtable" z.sc
EndChar

StartChar: braceleft
Encoding: 123 123 1003
Width: 326
Flags: MW
HStem: -110 918<206.5 231>
VStem: 75 78 151 80
LayerCount: 2
Fore
SplineSet
231 806 m 1xc0
 182 806 153 779 153 713 c 2
 153 427 l 2
 153 378 125 349 77 349 c 1
 125 349 153 320 153 271 c 2
 153 -15 l 2xc0
 153 -81 182 -108 231 -108 c 1
 231 -110 l 1
 182 -110 151 -84 151 -16 c 2
 151 271 l 2xa0
 151 323 120 348 75 348 c 1
 75 350 l 1
 120 350 151 375 151 427 c 2
 151 714 l 2
 151 782 182 808 231 808 c 1
 231 806 l 1xc0
EndSplineSet
Substitution2: "'case' Case-Sensitive Forms lookup 25 subtable" braceleft.case
Substitution2: "'aalt' Access All Alternates lookup 0 subtable" braceleft.case
EndChar
StartChar: bar
Encoding: 124 124 2370
Width: 420
GlyphClass: 2
Flags: MW
HStem: -97 897<209 211 209 211>
VStem: 209 2<-97 800 -97 800>
LayerCount: 2
Back
Fore
SplineSet
211 800 m 1
 211 -97 l 1
 209 -97 l 1
 209 800 l 1
 211 800 l 1
EndSplineSet
EndChar
StartChar: braceright
Encoding: 125 125 2141
Width: 326
Flags: MW
HStem: -110 918<95 119.5>
VStem: 95 80<-110 -16 -108 -16> 173 78<-15 350 271 350 348 713>
LayerCount: 2
Back
Fore
SplineSet
95 808 m 1xa0
 144 808 175 782 175 714 c 2
 175 427 l 2
 175 375 206 350 251 350 c 1
 251 348 l 1xa0
 206 348 175 323 175 271 c 2
 175 -16 l 2
 175 -84 144 -110 95 -110 c 1
 95 -108 l 1xc0
 144 -108 173 -81 173 -15 c 2
 173 271 l 2
 173 320 201 349 249 349 c 1
 201 349 173 378 173 427 c 2
 173 713 l 2
 173 779 144 806 95 806 c 1
 95 808 l 1xa0
EndSplineSet
Substitution2: "'case' Case-Sensitive Forms lookup 28 subtable" braceright.case
Substitution2: "'aalt' Access All Alternates lookup 0 subtable" braceright.case
EndChar

StartChar: asciitilde
Encoding: 126 126 1087
Width: 454
Flags: MW
HStem: 291 57
VStem: 85 284<303 336>
LayerCount: 2
Fore
SplineSet
157 346 m 0
 205 346 252 291 299 291 c 0
 334 291 358 314 369 336 c 1
 367 336 l 1
 354 313 333 293 299 293 c 0
 252 293 205 348 157 348 c 0
 123 348 99 325 85 303 c 1
 87 303 l 1
 103 326 124 346 157 346 c 0
EndSplineSet
Substitution2: "'onum' Oldstyle Figures lookup 22 subtable" asciitilde.osf
Substitution2: "'tnum' Tabular Numbers lookup 21 subtable" asciitilde.tf
AlternateSubs2: "'aalt' Access All Alternates lookup 1 subtable" asciitilde.tf asciitilde.osf
EndChar

StartChar: exclamdown
Encoding: 161 161 986
Width: 234
Flags: MW
HStem: -188 21G<116 118 116 116> 425 14<115 119>
VStem: 110 14<430 434>
LayerCount: 2
Fore
SplineSet
117 439 m 0
 121 439 124 436 124 432 c 0
 124 428 121 425 117 425 c 0
 113 425 110 428 110 432 c 0
 110 436 113 439 117 439 c 0
118 -188 m 1
 116 -188 l 1
 116 254 l 1
 118 254 l 1
 118 -188 l 1
EndSplineSet
Substitution2: "'case' Case-Sensitive Forms lookup 25 subtable" exclamdown.case
Substitution2: "'aalt' Access All Alternates lookup 0 subtable" exclamdown.case
EndChar
StartChar: cent
Encoding: 162 162 2198
Width: 469
GlyphClass: 2
Flags: MW
HStem: -144 137<275 277 275 275> -9 21G<275 275 277 280 277 277> 507 20G<281 281 283 309.5> 525 147<281 283 281 307.5>
VStem: 80 334<44 341>
LayerCount: 2
Back
Fore
SplineSet
414 44 m 1x68
 381 13 341 -9 280 -9 c 2
 277 -9 l 1x68
 277 -144 l 1
 275 -144 l 1xa8
 275 -9 l 1
 163 -6 80 88 80 256 c 0
 80 426 156 526 281 527 c 1x68
 281 672 l 1
 283 672 l 1x58
 283 527 l 1x68
 336 527 375 510 410 477 c 1
 408 476 l 1
 373 509 333 525 282 525 c 0
 158 525 82 424 82 256 c 0
 82 88 166 -7 280 -7 c 0x98
 339 -7 379 14 412 45 c 1
 414 44 l 1x68
EndSplineSet
Substitution2: "'onum' Oldstyle Figures lookup 25 subtable" cent.osf
Substitution2: "'tnum' Tabular Numbers lookup 24 subtable" cent.tf
AlternateSubs2: "'aalt' Access All Alternates lookup 1 subtable" cent.tf cent.osf
EndChar

StartChar: sterling
Encoding: 163 163 1065
Width: 492
Flags: MW
HStem: 0 21G<70 423 70 70> 354 316<93 324 93 324 245.5 324 245.5 361 151 324>
VStem: 93 58<354 354 356 356> 149 212<118 356 354 356 354 506 354 552>
LayerCount: 2
Fore
SplineSet
295 668 m 0xe0
 198 668 151 597 151 506 c 2
 151 356 l 1xe0
 361 356 l 1
 361 354 l 1xd0
 151 354 l 1
 151 118 l 2
 151 52 128 23 75 2 c 1xe0
 423 2 l 1
 423 0 l 1
 70 0 l 1
 70 2 l 1
 125 23 149 51 149 118 c 2
 149 354 l 1xd0
 93 354 l 1
 93 356 l 1xe0
 149 356 l 1
 149 506 l 2xd0
 149 598 196 670 295 670 c 0
 353 670 394 648 427 609 c 1
 425 608 l 1
 393 646 353 668 295 668 c 0xe0
EndSplineSet
Substitution2: "'onum' Oldstyle Figures lookup 22 subtable" sterling.osf
Substitution2: "'tnum' Tabular Numbers lookup 21 subtable" sterling.tf
AlternateSubs2: "'aalt' Access All Alternates lookup 1 subtable" sterling.tf sterling.osf
EndChar
StartChar: brokenbar
Encoding: 166 166 2371
Width: 420
GlyphClass: 2
Flags: MW
HStem: -97 897<209 211 209 211>
VStem: 209 2<-97 262 -97 262 443 800>
LayerCount: 2
Back
Fore
SplineSet
211 800 m 1
 211 443 l 1
 209 443 l 1
 209 800 l 1
 211 800 l 1
211 262 m 1
 211 -97 l 1
 209 -97 l 1
 209 262 l 1
 211 262 l 1
EndSplineSet
EndChar

StartChar: section
Encoding: 167 167 1223
Width: 531
Flags: MW
HStem: -59 729.01
VStem: 110 311<284.49 321 254.405 347.755>
LayerCount: 2
Fore
SplineSet
336.01 156.14 m 1
 381.279 132.12 395.91 104.75 398 60.9902 c 1
 398 -12.0098 340 -59.0098 261 -59.0098 c 0
 201 -59.0098 157 -46.0098 115 -18.0098 c 1
 117 -16.0098 l 1
 157 -44.0098 201 -57.0098 261 -57.0098 c 0
 338 -57.0098 396 -12.0098 396 60.9902 c 1
 393 123.99 364 150.99 257 184.99 c 1
 152 219.99 110 247.99 110 320.99 c 0
 110 374.521 139.47 414.29 203.279 454.91 c 1
 150.77 481.68 135 509.22 135 552 c 0
 135 625 202 670 272 670 c 0
 327 670 366 657 410 630 c 1
 409 628 l 1
 366 655 327 668 272 668 c 0
 202 668 137 623 137 552 c 0
 137 493 167 465 280 426 c 0
 383 390 421 358 421 284 c 0
 421 224.81 384.99 184.109 336.01 156.14 c 1
112.001 320.99 m 0
 112.001 249.99 151.992 221.99 256.992 186.99 c 0
 288.982 177.01 314.082 167.46 333.662 157.36 c 1
 382.332 184.351 418.992 224.261 418.992 283.991 c 0
 418.992 357.991 380.992 387.991 279.992 423.991 c 0
 249.592 434.301 225.132 443.98 205.602 453.74 c 1
 141.871 412.83 112.001 374.88 112.001 320.99 c 0
EndSplineSet
Substitution2: "'onum' Oldstyle Figures lookup 22 subtable" section.osf
Substitution2: "'tnum' Tabular Numbers lookup 21 subtable" section.tf
AlternateSubs2: "'aalt' Access All Alternates lookup 1 subtable" section.tf section.osf
EndChar
StartChar: dieresis
Encoding: 168 168 2529
Width: 221
Flags: MW
HStem: 679 12<34 38 183 187>
VStem: 30 161<683.5 686.5>
LayerCount: 2
Back
Fore
SplineSet
36 691 m 0
 40 691 42 688 42 685 c 0
 42 682 40 679 36 679 c 0
 32 679 30 682 30 685 c 0
 30 688 32 691 36 691 c 0
185 691 m 0
 189 691 191 688 191 685 c 0
 191 682 189 679 185 679 c 0
 181 679 179 682 179 685 c 0
 179 688 181 691 185 691 c 0
EndSplineSet
Substitution2: "Single Substitution lookup 41 subtable" dieresis.case
Substitution2: "'case' Case-Sensitive Forms lookup 28 subtable" dieresis.case
Substitution2: "'smcp' Lowercase to Small Capitals lookup 27 subtable" dieresis.sc
Substitution2: "'c2sc' Capitals to Small Capitals lookup 26 subtable" dieresis.sc
AlternateSubs2: "'aalt' Access All Alternates lookup 1 subtable" dieresis.sc dieresis.case
EndChar
StartChar: ordfeminine
Encoding: 170 170 1050
Width: 500
GlyphClass: 2
Flags: MW
HStem: 0 21G<99 407 99 99> 0 280<180 252.5 180 401 180 407 99 252.5> 278 235<179 356 257 400> 511 169<226.5 257 257 287 226.5 356>
VStem: 98 260<360.5 368 368 432>
LayerCount: 2
Back
Fore
SplineSet
257 513 m 2xa8
 356 513 l 1
 356 564 l 2xa8
 356 634 328 678 245 678 c 0
 209 678 172 670 128 653 c 1
 127 655 l 1
 171 672 208 680 245 680 c 0
 329 680 358 636 358 564 c 2
 358 368 l 2
 358 313 366 290 401 280 c 1
 400 278 l 1x58
 365 289 356 310 356 363 c 1
 328 308 286 278 218 278 c 0
 140 278 98 327 98 394 c 0
 98 470 159 513 257 513 c 2xa8
218 280 m 0x58
 287 280 327 311 356 367 c 1
 356 511 l 1
 257 511 l 2
 160 511 100 468 100 394 c 0
 100 328 142 280 218 280 c 0x58
99 2 m 1
 407 2 l 1
 407 0 l 1
 99 0 l 1
 99 2 l 1
EndSplineSet
EndChar

StartChar: guillemotleft
Encoding: 171 171 1034
Width: 519
Flags: MW
HStem: 83 411<243 244 243 417>
VStem: 100 319<84 289 84 289>
LayerCount: 2
Fore
SplineSet
245 493 m 1
 102 288 l 1
 246 84 l 1
 244 83 l 1
 100 287 l 1
 100 289 l 1
 243 494 l 1
 245 493 l 1
418 493 m 1
 275 288 l 1
 419 84 l 1
 417 83 l 1
 273 287 l 1
 273 289 l 1
 416 494 l 1
 418 493 l 1
EndSplineSet
Substitution2: "'case' Case-Sensitive Forms lookup 25 subtable" guillemotleft.case
Substitution2: "'aalt' Access All Alternates lookup 0 subtable" guillemotleft.case
EndChar
StartChar: logicalnot
Encoding: 172 172 2261
Width: 488
GlyphClass: 2
Flags: MW
HStem: 215 107<401 403 401 401>
VStem: 85 318<320 322 215 322>
LayerCount: 2
Back
Fore
SplineSet
403 322 m 1
 403 215 l 1
 401 215 l 1
 401 320 l 1
 85 320 l 1
 85 322 l 1
 403 322 l 1
EndSplineSet
Substitution2: "'onum' Oldstyle Figures lookup 25 subtable" logicalnot.osf
Substitution2: "'tnum' Tabular Numbers lookup 24 subtable" logicalnot.tf
AlternateSubs2: "'aalt' Access All Alternates lookup 1 subtable" logicalnot.tf logicalnot.osf
EndChar

StartChar: softhyphen
Encoding: 173 173 1026
Width: 400
Flags: MW
HStem: 311 2<85 315 85 315>
VStem: 85 230<311 313 311 313>
LayerCount: 2
Fore
SplineSet
85 313 m 1
 315 313 l 1
 315 311 l 1
 85 311 l 1
 85 313 l 1
EndSplineSet
Substitution2: "'case' Case-Sensitive Forms lookup 25 subtable" softhyphen.case
Substitution2: "'aalt' Access All Alternates lookup 0 subtable" softhyphen.case
EndChar
StartChar: registered
Encoding: 174 174 2376
Width: 634
GlyphClass: 2
Flags: MW
HStem: 294 203<254 324 324 343.5 252 385> 495 144<252 306 306 330 252 252 332 332> 637 72<252 306 252 252>
VStem: 110 142<441.5 495 497 556.5> 250 147<542 591 542 639 542 639> 395 129<542.5 561.5 446.5 590>
LayerCount: 2
Back
Fore
SplineSet
317 709 m 0xb4
 443 709 524 619 524 504 c 0
 524 389 453 294 317 294 c 0
 191 294 110 384 110 499 c 0
 110 614 181 709 317 709 c 0xb4
317 296 m 0
 453 296 522 391 522 504 c 0
 522 617 443 707 317 707 c 0
 181 707 112 612 112 499 c 0
 112 386 191 296 317 296 c 0
397 566 m 0x48
 397 518 364 497 332 495 c 1
 406 371 l 1
 404 371 l 1
 330 495 l 1x48
 252 495 l 1x54
 252 372 l 1
 250 372 l 1xa8
 250 639 l 1
 306 639 l 2
 362 639 397 616 397 566 c 0x48
252 497 m 1xb4
 324 497 l 2
 363 497 395 519 395 566 c 0
 395 614 362 637 306 637 c 2
 252 637 l 1
 252 497 l 1xb4
EndSplineSet
EndChar
StartChar: macron
Encoding: 175 175 2535
Width: 250
Flags: MW
HStem: 671 20G<30 220 220 220>
VStem: 30 190<689 691 689 691>
LayerCount: 2
Back
Fore
SplineSet
220 689 m 1
 30 689 l 1
 30 691 l 1
 220 691 l 1
 220 689 l 1
EndSplineSet
Substitution2: "Single Substitution lookup 41 subtable" macron.case
Substitution2: "'case' Case-Sensitive Forms lookup 28 subtable" macron.case
Substitution2: "'smcp' Lowercase to Small Capitals lookup 27 subtable" macron.sc
Substitution2: "'c2sc' Capitals to Small Capitals lookup 26 subtable" macron.sc
AlternateSubs2: "'aalt' Access All Alternates lookup 1 subtable" macron.sc macron.case
EndChar
StartChar: degree
Encoding: 176 176 2379
Width: 521
GlyphClass: 2
Flags: MW
HStem: 670 20G<183 260>
VStem: 95 251<516 593.5 515.5 594>
LayerCount: 2
Back
Fore
SplineSet
220 421 m 0
 147 421 95 476 95 556 c 0
 95 632 146 690 220 690 c 0
 300 690 346 632 346 555 c 0
 346 476 300 421 220 421 c 0
220 423 m 0
 298 423 344 476 344 555 c 0
 344 632 298 688 220 688 c 0
 148 688 97 632 97 556 c 0
 97 476 149 423 220 423 c 0
EndSplineSet
Substitution2: "'onum' Oldstyle Figures lookup 25 subtable" degree.osf
Substitution2: "'tnum' Tabular Numbers lookup 24 subtable" degree.tf
AlternateSubs2: "'aalt' Access All Alternates lookup 1 subtable" degree.tf degree.osf
EndChar

StartChar: plusminus
Encoding: 177 177 1115
Width: 479
Flags: MW
HStem: 0 332<86 239 241 393 85 239> 174 158<86 241 86 239> 330 158<86 241 86 241 239 394 239 241>
VStem: 86 155<174 332 174 332> 239 155<174 332 330 332 330 488>
LayerCount: 2
Fore
SplineSet
241 332 m 1x90
 394 332 l 1
 394 330 l 1x28
 241 330 l 1x30
 241 174 l 1
 239 174 l 1x48
 239 330 l 1x28
 86 330 l 1
 86 332 l 1x90
 239 332 l 1x88
 239 488 l 1
 241 488 l 1x30
 241 332 l 1x90
85 2 m 1x90
 393 2 l 1
 393 0 l 1
 85 0 l 1
 85 2 l 1x90
EndSplineSet
Substitution2: "'onum' Oldstyle Figures lookup 22 subtable" plusminus.osf
Substitution2: "'tnum' Tabular Numbers lookup 21 subtable" plusminus.tf
AlternateSubs2: "'aalt' Access All Alternates lookup 1 subtable" plusminus.tf plusminus.osf
EndChar
StartChar: uni00B2
Encoding: 178 178 2104
Width: 400
Flags: MW
HStem: 660 20G<89 89> 714 20G<175 232.5>
VStem: 88 224<318 320 318 320>
LayerCount: 2
Back
Fore
SplineSet
199 734 m 0
 266 734 300 689 300 633 c 0
 300 548 259 504 91 320 c 1
 312 320 l 1
 312 318 l 1
 88 318 l 1
 88 320 l 1
 258 505 298 549 298 633 c 0
 298 688 265 732 199 732 c 0
 151 732 121 713 91 679 c 1
 89 680 l 1
 119 714 151 734 199 734 c 0
EndSplineSet
EndChar
StartChar: uni00B3
Encoding: 179 179 2105
Width: 400
Flags: MW
HStem: 312 226<176 200 200 226 176 233.5> 536 198<180 198 176 233.5> 669 20G<95 95> 714 20G<180 233.5>
VStem: 83 234<363 464.5>
LayerCount: 2
Back
Fore
SplineSet
201 734 m 0xb8
 266 734 305 693 305 636 c 0
 305 571 259 541 211 537 c 1
 270 534 317 500 317 429 c 0
 317 360 269 312 198 312 c 0
 148 312 115 327 83 363 c 1
 85 364 l 1
 117 328 149 314 198 314 c 0xb8
 268 314 315 362 315 428 c 0
 315 499 269 536 198 536 c 2x48
 176 536 l 1
 176 538 l 1
 200 538 l 2
 252 538 303 569 303 636 c 0
 303 692 265 732 201 732 c 0
 161 732 128 719 97 688 c 1
 95 689 l 1
 127 720 159 734 201 734 c 0xb8
EndSplineSet
EndChar
StartChar: acute
Encoding: 180 180 2511
Width: 228
Flags: MW
HStem: 662 84
VStem: 30 168<664 744>
LayerCount: 2
Back
Fore
SplineSet
197 746 m 1
 198 744 l 1
 31 662 l 1
 30 664 l 1
 197 746 l 1
EndSplineSet
Substitution2: "Single Substitution lookup 41 subtable" acute.case
Substitution2: "'case' Case-Sensitive Forms lookup 28 subtable" acute.case
Substitution2: "'smcp' Lowercase to Small Capitals lookup 27 subtable" acute.sc
Substitution2: "'c2sc' Capitals to Small Capitals lookup 26 subtable" acute.sc
Substitution2: "'locl' Localized Forms in Latin lookup 7 subtable" acute.loclPLK
AlternateSubs2: "'aalt' Access All Alternates lookup 1 subtable" acute.loclPLK acute.sc acute.case
EndChar
StartChar: paragraph
Encoding: 182 182 2374
Width: 683
GlyphClass: 2
Flags: MW
HStem: -190 21G<341 343 341 341 491 493 491 491> 661 20G<493 493>
VStem: 130 213<447.5 554.5> 341 152<-190 312 312 312>
LayerCount: 2
Back
Fore
SplineSet
342 680 m 2xd0
 493 681 l 1
 493 -190 l 1
 491 -190 l 1
 491 679 l 1xd0
 343 678 l 1xe0
 343 -190 l 1
 341 -190 l 1
 341 312 l 1xd0
 186 312 130 399 130 496 c 0xe0
 130 613 217 680 342 680 c 2xd0
EndSplineSet
EndChar
StartChar: cedilla
Encoding: 184 184 2527
Width: 189
Flags: MW
HStem: -202 120<69 108> -8 21G<71 73 73 73>
VStem: 69 90<-163.5 -82>
LayerCount: 2
Back
Fore
SplineSet
73 -8 m 1
 69 -82 l 1
 124 -83 159 -98 159 -141 c 0
 159 -186 125 -202 91 -202 c 0
 62 -202 46 -196 30 -186 c 1
 31 -184 l 1
 48 -195 64 -200 91 -200 c 0
 124 -200 157 -185 157 -141 c 0
 157 -104 131 -85 67 -84 c 1
 71 -8 l 1
 73 -8 l 1
EndSplineSet
Substitution2: "Single Substitution lookup 41 subtable" cedilla.case
Substitution2: "'case' Case-Sensitive Forms lookup 28 subtable" cedilla.case
Substitution2: "'smcp' Lowercase to Small Capitals lookup 27 subtable" cedilla.sc
Substitution2: "'c2sc' Capitals to Small Capitals lookup 26 subtable" cedilla.sc
AlternateSubs2: "'aalt' Access All Alternates lookup 1 subtable" cedilla.sc cedilla.case
EndChar

StartChar: onesuperior
Encoding: 185 185 969
Width: 400
Flags: MW
HStem: 707 20G<258 260 260 260>
VStem: 140 120<653 653>
LayerCount: 2
Fore
SplineSet
260 318 m 1
 258 318 l 1
 258 725 l 1
 140 653 l 1
 139 655 l 1
 258 727 l 1
 260 727 l 1
 260 318 l 1
EndSplineSet
EndChar
StartChar: uni00B9
Encoding: 185 185 2103
Width: 400
Flags: MW
HStem: 707 20G<258 260 260 260>
VStem: 140 120<653 653>
LayerCount: 2
Back
Fore
SplineSet
260 727 m 1
 260 318 l 1
 258 318 l 1
 258 725 l 1
 140 653 l 1
 139 655 l 1
 258 727 l 1
 260 727 l 1
EndSplineSet
EndChar
StartChar: ordmasculine
Encoding: 186 186 1051
Width: 500
GlyphClass: 2
Flags: MW
HStem: 0 21G<96 96 96 404> 0 280<96 298 200 298 200 404> 660 20G<202.5 300>
VStem: 90 320<417 543.5>
LayerCount: 2
Back
Fore
SplineSet
251 680 m 0xb0
 349 680 410 607 410 482 c 0
 410 352 348 278 249 278 c 0
 150 278 90 353 90 479 c 0
 90 608 154 680 251 680 c 0xb0
251 678 m 0
 155 678 92 607 92 479 c 0
 92 355 151 280 249 280 c 0x70
 347 280 407 353 407 482 c 0
 407 605 348 678 251 678 c 0
96 0 m 1
 96 2 l 1
 404 2 l 1
 404 0 l 1
 96 0 l 1
EndSplineSet
EndChar
StartChar: guillemotright
Encoding: 187 187 2176
Width: 513
Flags: MW
HStem: 83 411<102 103 103 269>
VStem: 100 313<84 289>
LayerCount: 2
Back
Fore
SplineSet
103 494 m 1
 246 289 l 1
 246 287 l 1
 102 83 l 1
 100 84 l 1
 244 288 l 1
 101 493 l 1
 103 494 l 1
270 494 m 1
 413 289 l 1
 413 287 l 1
 269 83 l 1
 267 84 l 1
 411 288 l 1
 268 493 l 1
 270 494 l 1
EndSplineSet
Substitution2: "'case' Case-Sensitive Forms lookup 28 subtable" guillemotright.case
Substitution2: "'aalt' Access All Alternates lookup 0 subtable" guillemotright.case
EndChar
StartChar: onequarter
Encoding: 188 188 2060
Width: 872
Flags: MW
HStem: 0 123<544 740 544 738> 121 138<542 740 738 801 738 740> 660 20G<228 230 230 230> 713 20G<637 639 639 639>
VStem: 110 120<606 606> 542 198<0 123 123 124 124 124> 738 63<0 123 121 123 121 259>
LayerCount: 2
Back
Fore
SplineSet
637 733 m 1xba
 639 733 l 1
 235 -67 l 1
 233 -67 l 1
 637 733 l 1xba
109 608 m 1
 228 680 l 1
 230 680 l 1
 230 271 l 1
 228 271 l 1
 228 678 l 1
 110 606 l 1
 109 608 l 1
801 123 m 1
 801 121 l 1xba
 740 121 l 1x7c
 740 0 l 1
 738 0 l 1xba
 738 121 l 1x7a
 542 121 l 1
 542 124 l 1x7c
 678 416 l 1
 680 415 l 1
 544 123 l 1
 738 123 l 1xba
 738 259 l 1
 740 259 l 1x7c
 740 123 l 1xbc
 801 123 l 1
EndSplineSet
EndChar

StartChar: onehalf
Encoding: 189 189 923
Width: 872
Flags: MW
HStem: 0 21G<560 784 560 560> 660 20G<228 230 230 230> 713 20G<637 639 639 639>
VStem: 110 120<606 606>
LayerCount: 2
Fore
SplineSet
639 733 m 1
 235 -67 l 1
 233 -67 l 1
 637 733 l 1
 639 733 l 1
230 271 m 1
 228 271 l 1
 228 678 l 1
 110 606 l 1
 109 608 l 1
 228 680 l 1
 230 680 l 1
 230 271 l 1
671 416 m 0
 738 416 772 371 772 315 c 0
 772 230 731 186 563 2 c 1
 784 2 l 1
 784 0 l 1
 560 0 l 1
 560 2 l 1
 730 187 770 231 770 315 c 0
 770 370 737 414 671 414 c 0
 623 414 593 395 563 361 c 1
 561 362 l 1
 591 396 623 416 671 416 c 0
EndSplineSet
EndChar
StartChar: threequarters
Encoding: 190 190 2061
Width: 872
Flags: MW
HStem: 0 123<544 740 544 738> 121 138<542 740 738 801 738 740> 265 226<176 200 200 226 176 233.5> 489 198<180 198 176 233.5> 667 20G<180 233.5> 713 20G<637 639 639 639>
VStem: 542 198<0 123 123 124 124 124> 738 63<0 123 121 123 121 259>
LayerCount: 2
Back
Fore
SplineSet
637 733 m 1xad
 639 733 l 1
 235 -67 l 1
 233 -67 l 1
 637 733 l 1xad
317 382 m 0
 317 313 269 265 198 265 c 0
 148 265 115 280 83 316 c 1
 85 317 l 1
 117 281 149 267 198 267 c 0xad
 268 267 315 315 315 381 c 0
 315 452 269 489 198 489 c 2x95
 176 489 l 1
 176 491 l 1
 200 491 l 2
 252 491 303 522 303 589 c 0
 303 645 265 685 201 685 c 0
 161 685 128 672 97 641 c 1
 95 642 l 1
 127 673 159 687 201 687 c 0
 266 687 305 646 305 589 c 0
 305 524 259 494 211 490 c 1
 270 487 317 453 317 382 c 0
801 123 m 1
 801 121 l 1xad
 740 121 l 1x4e
 740 0 l 1
 738 0 l 1xad
 738 121 l 1x4d
 542 121 l 1
 542 124 l 1x4e
 678 416 l 1
 680 415 l 1
 544 123 l 1
 738 123 l 1xad
 738 259 l 1
 740 259 l 1x4e
 740 123 l 1xae
 801 123 l 1
EndSplineSet
EndChar
StartChar: questiondown
Encoding: 191 191 2128
Width: 448
Flags: MW
HStem: -192 21G<172 247> 425 14<254 258>
VStem: 70 308<-112 4>
LayerCount: 2
Back
Fore
SplineSet
256 439 m 0
 260 439 263 436 263 432 c 0
 263 428 260 425 256 425 c 0
 252 425 249 428 249 432 c 0
 249 436 252 439 256 439 c 0
213 -192 m 0
 131 -192 70 -137 70 -68 c 0
 70 76 255 56 255 217 c 2
 255 255 l 1
 257 255 l 1
 257 217 l 2
 257 54 72 76 72 -68 c 0
 72 -136 131 -190 213 -190 c 0
 281 -190 332 -163 376 -110 c 1
 378 -112 l 1
 333 -165 281 -192 213 -192 c 0
EndSplineSet
Substitution2: "'case' Case-Sensitive Forms lookup 28 subtable" questiondown.case
Substitution2: "'aalt' Access All Alternates lookup 0 subtable" questiondown.case
EndChar
StartChar: Acircumflex
Encoding: 194 194 11
Width: 556
GlyphClass: 2
Flags: MW
HStem: 0 21G<35 37 35 35 519 521 519 519> 660 20G<276 278 278 278>
VStem: 35 486<0 0>
AnchorPoint: "Anchor-14" 0 0 basechar 0
AnchorPoint: "Anchor-13" 348 700 basechar 0
AnchorPoint: "Anchor-12" 277 850 basechar 0
AnchorPoint: "Anchor-11" 531 0 basechar 0
AnchorPoint: "Anchor-10" 278 0 basechar 0
LayerCount: 2
Back
Fore
SplineSet
277 848 m 1
 171 770 l 1
 169 771 l 1
 276 850 l 1
 278 850 l 1
 387 771 l 1
 385 770 l 1
 277 848 l 1
519 0 m 1
 443 213 l 1
 112 213 l 1
 37 0 l 1
 35 0 l 1
 276 680 l 1
 278 680 l 1
 521 0 l 1
 519 0 l 1
113 215 m 1
 442 215 l 1
 277 678 l 1
 113 215 l 1
EndSplineSet
Substitution2: "'c2sc' Capitals to Small Capitals lookup 26 subtable" acircumflex.sc
Substitution2: "'aalt' Access All Alternates lookup 0 subtable" acircumflex.sc
Position2: "'cpsp' Capital Spacing lookup 0 subtable" dx=5 dy=0 dh=10 dv=0
EndChar

StartChar: Atilde
Encoding: 195 195 10
Width: 556
GlyphClass: 2
Flags: MW
HStem: 0 21G<35 37 35 35 519 519 519 521> 660 20G<276 278 278 278> 812 46
VStem: 35 486<0 0>
AnchorPoint: "Anchor-11" 0 0 basechar 0
AnchorPoint: "Anchor-10" 140 680 basechar 0
AnchorPoint: "Anchor-9" 278 680 basechar 0
AnchorPoint: "Anchor-8" 531 0 basechar 0
LayerCount: 2
Fore
SplineSet
222 856 m 0
 195 856 180 845 158 821 c 1
 156 822 l 1
 179 847 194 858 222 858 c 0
 257 858 292 814 335 814 c 0
 361 814 377 825 397 851 c 1
 399 850 l 1
 378 823 362 812 335 812 c 0
 292 812 255 856 222 856 c 0
442.97 213 m 1
 112.4 213 l 1
 37 0 l 1
 35 0 l 1
 276 680 l 1
 278 680 l 1
 521 0 l 1
 519 0 l 1
 442.97 213 l 1
442.261 215 m 1
 277.001 678 l 1
 113.101 215 l 1
 442.261 215 l 1
EndSplineSet
Substitution2: "'c2sc' Capitals to Small Capitals lookup 23 subtable" atilde.sc
Substitution2: "'aalt' Access All Alternates lookup 0 subtable" atilde.sc
Position2: "'cpsp' Capital Spacing lookup 0 subtable" dx=5 dy=0 dh=10 dv=0
EndChar
StartChar: Adieresis
Encoding: 196 196 18
Width: 556
GlyphClass: 2
Flags: MW
HStem: 0 21G<35 37 35 35 519 521 519 519> 660 20G<276 278 278 278> 805 12<201 205 350 354>
VStem: 35 486<0 0>
AnchorPoint: "Anchor-14" 0 0 basechar 0
AnchorPoint: "Anchor-13" 0 0 basechar 0
AnchorPoint: "Anchor-12" 280 817 basechar 0
AnchorPoint: "Anchor-11" 531 0 basechar 0
AnchorPoint: "Anchor-10" 278 0 basechar 0
LayerCount: 2
Back
Fore
SplineSet
203 805 m 0
 199 805 197 808 197 811 c 0
 197 814 199 817 203 817 c 0
 207 817 209 814 209 811 c 0
 209 808 207 805 203 805 c 0
352 805 m 0
 348 805 346 808 346 811 c 0
 346 814 348 817 352 817 c 0
 356 817 358 814 358 811 c 0
 358 808 356 805 352 805 c 0
519 0 m 1
 443 213 l 1
 112 213 l 1
 37 0 l 1
 35 0 l 1
 276 680 l 1
 278 680 l 1
 521 0 l 1
 519 0 l 1
113 215 m 1
 442 215 l 1
 277 678 l 1
 113 215 l 1
EndSplineSet
Substitution2: "'c2sc' Capitals to Small Capitals lookup 26 subtable" adieresis.sc
Substitution2: "'aalt' Access All Alternates lookup 0 subtable" adieresis.sc
Position2: "'cpsp' Capital Spacing lookup 0 subtable" dx=5 dy=0 dh=10 dv=0
EndChar
StartChar: Aring
Encoding: 197 197 29
Width: 556
GlyphClass: 2
Flags: MW
HStem: 0 21G<35 37 35 35 519 521 519 519> 660 20G<276 278 278 278> 781 127<258.5 297.5>
VStem: 215 126<826 863>
AnchorPoint: "Anchor-14" 0 0 basechar 0
AnchorPoint: "Anchor-13" 0 0 basechar 0
AnchorPoint: "Anchor-12" 280 908 basechar 0
AnchorPoint: "Anchor-11" 531 0 basechar 0
AnchorPoint: "Anchor-10" 278 0 basechar 0
LayerCount: 2
Back
Fore
SplineSet
278 781 m 0
 237 781 215 807 215 844 c 0
 215 882 239 908 278 908 c 0
 319 908 341 882 341 845 c 0
 341 807 317 781 278 781 c 0
278 906 m 0
 240 906 217 880 217 844 c 0
 217 807 239 783 278 783 c 0
 316 783 339 809 339 845 c 0
 339 882 317 906 278 906 c 0
519 0 m 1
 443 213 l 1
 112 213 l 1
 37 0 l 1
 35 0 l 1
 276 680 l 1
 278 680 l 1
 521 0 l 1
 519 0 l 1
113 215 m 1
 442 215 l 1
 277 678 l 1
 113 215 l 1
EndSplineSet
Substitution2: "'c2sc' Capitals to Small Capitals lookup 26 subtable" aring.sc
Substitution2: "'aalt' Access All Alternates lookup 0 subtable" aring.sc
Position2: "'cpsp' Capital Spacing lookup 0 subtable" dx=5 dy=0 dh=10 dv=0
EndChar

StartChar: Ccedilla
Encoding: 199 199 17
Width: 529
GlyphClass: 2
Flags: MW
HStem: -202 120<335 374> -84 77<333 333> -8.99001 21G -8.97 21G 670 20G<266.501 379.001>
VStem: 334.97 90.03
AnchorPoint: "Anchor-11" 341 0 basechar 0
AnchorPoint: "Anchor-10" 0 0 basechar 0
AnchorPoint: "Anchor-9" 343 680 basechar 0
AnchorPoint: "Anchor-8" 0 0 basechar 0
LayerCount: 2
Fore
SplineSet
335 -82 m 1xac
 390 -83 425 -98 425 -141 c 0
 425 -186 391 -202 357 -202 c 0
 328 -202 312 -196 296 -186 c 1
 297 -184 l 1
 314 -195 330 -200 357 -200 c 0x9c
 390 -200 423 -185 423 -141 c 0
 423 -104 397 -85 333 -84 c 1x4c
 336.95 -8.96973 l 1x9c
 186.181 -6.81934 85.001 115.99 85.001 339 c 0
 85.001 577 191.001 690 342.001 690 c 0
 416.001 690 459.001 664 494.001 633 c 1
 493.001 631 l 1
 458.001 662 415.001 688 342.001 688 c 0
 193.001 688 87.001 575 87.001 339 c 0
 87.001 115 190.001 -7 341.001 -7 c 0x4c
 422.001 -7 470.001 25 502.001 52 c 1
 503.001 50 l 1
 471.001 23 423.001 -9 341.001 -9 c 0
 340.311 -9 339.631 -9 338.94 -8.99023 c 2
 335 -82 l 1xac
EndSplineSet
Substitution2: "'c2sc' Capitals to Small Capitals lookup 23 subtable" ccedilla.sc
Substitution2: "'aalt' Access All Alternates lookup 0 subtable" ccedilla.sc
Position2: "'cpsp' Capital Spacing lookup 0 subtable" dx=5 dy=0 dh=10 dv=0
EndChar

StartChar: Eacute
Encoding: 201 201 25
Width: 495
GlyphClass: 2
Flags: MW
HStem: 0 21G<130 445 130 130> 360 320<132 392 132 132>
VStem: 130 315<0 2 0 680>
AnchorPoint: "Anchor-11" 284 0 basechar 0
AnchorPoint: "Anchor-10" 80 680 basechar 0
AnchorPoint: "Anchor-9" 284 680 basechar 0
AnchorPoint: "Anchor-8" 425 0 basechar 0
LayerCount: 2
Fore
SplineSet
374 840 m 1
 208 771 l 1
 207 773 l 1
 373 842 l 1
 374 840 l 1
435 678 m 1
 132 678 l 1
 132 362 l 1
 392 362 l 1
 392 360 l 1
 132 360 l 1
 132 2 l 1
 445 2 l 1
 445 0 l 1
 130 0 l 1
 130 680 l 1
 435 680 l 1
 435 678 l 1
EndSplineSet
Substitution2: "'c2sc' Capitals to Small Capitals lookup 23 subtable" eacute.sc
Substitution2: "'aalt' Access All Alternates lookup 0 subtable" eacute.sc
Position2: "'cpsp' Capital Spacing lookup 0 subtable" dx=5 dy=0 dh=10 dv=0
EndChar

StartChar: Ecircumflex
Encoding: 202 202 28
Width: 495
GlyphClass: 2
Flags: MW
HStem: 0 21G<130 445 130 130> 360 320<132 392 132 132> 678 93<175 175 132 175>
VStem: 130 315<0 2 0 680>
AnchorPoint: "Anchor-11" 284 0 basechar 0
AnchorPoint: "Anchor-10" 80 680 basechar 0
AnchorPoint: "Anchor-9" 284 680 basechar 0
AnchorPoint: "Anchor-8" 425 0 basechar 0
LayerCount: 2
Fore
SplineSet
283 848 m 1xb0
 177 770 l 1
 175 771 l 1
 282 850 l 1
 284 850 l 1
 393 771 l 1
 391 770 l 1
 283 848 l 1xb0
435 678 m 1
 132 678 l 1xb0
 132 362 l 1
 392 362 l 1
 392 360 l 1
 132 360 l 1
 132 2 l 1
 445 2 l 1
 445 0 l 1
 130 0 l 1
 130 680 l 1xd0
 435 680 l 1
 435 678 l 1
EndSplineSet
Substitution2: "'c2sc' Capitals to Small Capitals lookup 23 subtable" ecircumflex.sc
Substitution2: "'aalt' Access All Alternates lookup 0 subtable" ecircumflex.sc
Position2: "'cpsp' Capital Spacing lookup 0 subtable" dx=5 dy=0 dh=10 dv=0
EndChar
StartChar: Edieresis
Encoding: 203 203 79
Width: 495
GlyphClass: 2
Flags: MW
HStem: 0 21G<130 445 130 130> 360 320<132 392 132 132> 805 12<207 211 356 360>
VStem: 130 79
AnchorPoint: "Anchor-14" 0 0 basechar 0
AnchorPoint: "Anchor-13" 0 0 basechar 0
AnchorPoint: "Anchor-12" 286 817 basechar 0
AnchorPoint: "Anchor-11" 425 0 basechar 0
AnchorPoint: "Anchor-10" 284 0 basechar 0
LayerCount: 2
Back
Fore
SplineSet
209 817 m 0
 213 817 215 814 215 811 c 0
 215 808 213 805 209 805 c 0
 205 805 203 808 203 811 c 0
 203 814 205 817 209 817 c 0
358 817 m 0
 362 817 364 814 364 811 c 0
 364 808 362 805 358 805 c 0
 354 805 352 808 352 811 c 0
 352 814 354 817 358 817 c 0
435 680 m 1
 435 678 l 1
 132 678 l 1
 132 362 l 1
 392 362 l 1
 392 360 l 1
 132 360 l 1
 132 2 l 1
 445 2 l 1
 445 0 l 1
 130 0 l 1
 130 680 l 1
 435 680 l 1
EndSplineSet
Substitution2: "'c2sc' Capitals to Small Capitals lookup 26 subtable" edieresis.sc
Substitution2: "'aalt' Access All Alternates lookup 0 subtable" edieresis.sc
Position2: "'cpsp' Capital Spacing lookup 0 subtable" dx=5 dy=0 dh=10 dv=0
EndChar
StartChar: Igrave
Encoding: 204 204 129
Width: 262
GlyphClass: 2
Flags: MW
HStem: 0 21G<130 132 130 130> 660 20G<130 132 132 132>
VStem: 54 167<773 840>
AnchorPoint: "Anchor-14" 0 0 basechar 0
AnchorPoint: "Anchor-13" 0 0 basechar 0
AnchorPoint: "Anchor-12" 132 842 basechar 0
AnchorPoint: "Anchor-11" 142 0 basechar 0
AnchorPoint: "Anchor-10" 131 0 basechar 0
LayerCount: 2
Back
Fore
SplineSet
55 842 m 1
 221 773 l 1
 220 771 l 1
 54 840 l 1
 55 842 l 1
132 680 m 1
 132 0 l 1
 130 0 l 1
 130 680 l 1
 132 680 l 1
EndSplineSet
Substitution2: "'c2sc' Capitals to Small Capitals lookup 26 subtable" igrave.sc
Substitution2: "'aalt' Access All Alternates lookup 0 subtable" igrave.sc
Position2: "'cpsp' Capital Spacing lookup 0 subtable" dx=5 dy=0 dh=10 dv=0
EndChar
StartChar: Iacute
Encoding: 205 205 120
Width: 262
GlyphClass: 2
Flags: MW
HStem: 0 21G<130 132 130 130> 660 20G<130 132 132 132>
VStem: 45 167<773 840>
AnchorPoint: "Anchor-14" 0 0 basechar 0
AnchorPoint: "Anchor-13" 0 0 basechar 0
AnchorPoint: "Anchor-12" 131 842 basechar 0
AnchorPoint: "Anchor-11" 142 0 basechar 0
AnchorPoint: "Anchor-10" 131 0 basechar 0
LayerCount: 2
Back
Fore
SplineSet
211 842 m 1
 212 840 l 1
 46 771 l 1
 45 773 l 1
 211 842 l 1
132 680 m 1
 132 0 l 1
 130 0 l 1
 130 680 l 1
 132 680 l 1
EndSplineSet
Substitution2: "'c2sc' Capitals to Small Capitals lookup 26 subtable" iacute.sc
Substitution2: "'aalt' Access All Alternates lookup 0 subtable" iacute.sc
Position2: "'cpsp' Capital Spacing lookup 0 subtable" dx=5 dy=0 dh=10 dv=0
EndChar
StartChar: Icircumflex
Encoding: 206 206 123
Width: 262
GlyphClass: 2
Flags: MW
HStem: 0 21G<130 132 130 130> 660 20G<130 132 132 132>
VStem: 22 218<771 771>
AnchorPoint: "Anchor-14" 0 0 basechar 0
AnchorPoint: "Anchor-13" 201 700 basechar 0
AnchorPoint: "Anchor-12" 130 850 basechar 0
AnchorPoint: "Anchor-11" 142 0 basechar 0
AnchorPoint: "Anchor-10" 131 0 basechar 0
LayerCount: 2
Back
Fore
SplineSet
238 770 m 1
 130 848 l 1
 24 770 l 1
 22 771 l 1
 129 850 l 1
 131 850 l 1
 240 771 l 1
 238 770 l 1
132 680 m 1
 132 0 l 1
 130 0 l 1
 130 680 l 1
 132 680 l 1
EndSplineSet
Substitution2: "'c2sc' Capitals to Small Capitals lookup 26 subtable" icircumflex.sc
Substitution2: "'aalt' Access All Alternates lookup 0 subtable" icircumflex.sc
Position2: "'cpsp' Capital Spacing lookup 0 subtable" dx=5 dy=0 dh=10 dv=0
EndChar
StartChar: Eth
Encoding: 208 208 56
Width: 607
GlyphClass: 2
Flags: MW
HStem: 0 21G<124 235 124 124> 352 328<30 228 30 228 126 126 126 228 228 300 124 322> 660 20G<124 228 228 300>
VStem: 30 96<2 354 2 354> 124 198<0 354 352 354 352 680>
AnchorPoint: "Anchor-14" 303 340 basechar 0
AnchorPoint: "Anchor-13" 0 0 basechar 0
AnchorPoint: "Anchor-12" 283 680 basechar 0
AnchorPoint: "Anchor-11" 0 0 basechar 0
AnchorPoint: "Anchor-10" 304 0 basechar 0
LayerCount: 2
Back
Fore
SplineSet
228 680 m 2xb0
 372 680 522 626 522 348 c 0
 522 69 374 0 235 0 c 2
 124 0 l 1
 124 352 l 1xc8
 30 352 l 1
 30 354 l 1xd0
 124 354 l 1xc8
 124 680 l 1xa8
 228 680 l 2xb0
235 2 m 2
 374 2 520 71 520 348 c 0
 520 624 371 678 228 678 c 2
 126 678 l 1
 126 354 l 1xd0
 322 354 l 1
 322 352 l 1xc8
 126 352 l 1xd0
 126 2 l 1
 235 2 l 2
EndSplineSet
Substitution2: "'c2sc' Capitals to Small Capitals lookup 26 subtable" eth.sc
Substitution2: "'aalt' Access All Alternates lookup 0 subtable" eth.sc
Position2: "'cpsp' Capital Spacing lookup 0 subtable" dx=5 dy=0 dh=10 dv=0
EndChar

StartChar: Ntilde
Encoding: 209 209 70
Width: 654
GlyphClass: 2
Flags: MW
HStem: 0 21G<130 132 130 130 521 524 521 521> 660 20G<130 133 133 133 522 524 524 524> 814 42
VStem: 130 394<0 680>
AnchorPoint: "Anchor-11" 321 0 basechar 0
AnchorPoint: "Anchor-10" 0 0 basechar 0
AnchorPoint: "Anchor-9" 331 680 basechar 0
AnchorPoint: "Anchor-8" 0 0 basechar 0
LayerCount: 2
Fore
SplineSet
388 814 m 0
 345 814 310 858 275 858 c 0
 247 858 232 847 209 822 c 1
 211 821 l 1
 233 845 248 856 275 856 c 0
 308 856 345 812 388 812 c 0
 415 812 431 823 452 850 c 1
 450 851 l 1
 430 825 414 814 388 814 c 0
524 0 m 1
 521 0 l 1
 132 678 l 1
 132 655 132 622 132 575 c 2
 132 0 l 1
 130 0 l 1
 130 680 l 1
 133 680 l 1
 522 2 l 1
 522 43 522 95 522 136 c 2
 522 680 l 1
 524 680 l 1
 524 0 l 1
EndSplineSet
Substitution2: "'c2sc' Capitals to Small Capitals lookup 23 subtable" ntilde.sc
Substitution2: "'aalt' Access All Alternates lookup 0 subtable" ntilde.sc
Position2: "'cpsp' Capital Spacing lookup 0 subtable" dx=5 dy=0 dh=10 dv=0
EndChar
StartChar: Ograve
Encoding: 210 210 195
Width: 687
GlyphClass: 2
Flags: MW
HStem: -9 21G<263.5 426.5> 670 20G<265.5 423.5>
VStem: 85 517<230 447.5>
AnchorPoint: "Anchor-14" 0 0 basechar 0
AnchorPoint: "Anchor-13" 517 680 basechar 0
AnchorPoint: "Anchor-12" 345 842 basechar 0
AnchorPoint: "Anchor-11" 422 0 basechar 0
AnchorPoint: "Anchor-10" 344 0 basechar 0
LayerCount: 2
Back
Fore
SplineSet
268 842 m 1
 434 773 l 1
 433 771 l 1
 267 840 l 1
 268 842 l 1
343 690 m 0
 504 690 602 563 602 340 c 0
 602 120 510 -9 343 -9 c 0
 184 -9 85 119 85 338 c 0
 85 557 188 690 343 690 c 0
343 688 m 0
 189 688 87 555 87 338 c 0
 87 121 185 -7 343 -7 c 0
 509 -7 600 122 600 340 c 0
 600 561 503 688 343 688 c 0
EndSplineSet
Substitution2: "'c2sc' Capitals to Small Capitals lookup 26 subtable" ograve.sc
Substitution2: "'aalt' Access All Alternates lookup 0 subtable" ograve.sc
Position2: "'cpsp' Capital Spacing lookup 0 subtable" dx=5 dy=0 dh=10 dv=0
EndChar

StartChar: Otilde
Encoding: 213 213 81
Width: 687
GlyphClass: 2
Flags: MW
HStem: -9 21G<263.5 426.5> 670 20G<265.5 423.5> 688 124<377.5 412.5 377.5 423> 814 42
VStem: 85 517<230 447.5>
AnchorPoint: "Anchor-11" 0 0 basechar 0
AnchorPoint: "Anchor-10" 102 680 basechar 0
AnchorPoint: "Anchor-9" 342 680 basechar 0
AnchorPoint: "Anchor-8" 0 0 basechar 0
LayerCount: 2
Fore
SplineSet
399 814 m 0xd8
 356 814 321 858 286 858 c 0
 258 858 243 847 220 822 c 1
 222 821 l 1
 244 845 259 856 286 856 c 0xd8
 319 856 356 812 399 812 c 0xa8
 426 812 442 823 463 850 c 1
 461 851 l 1
 441 825 425 814 399 814 c 0xd8
343 690 m 0
 504 690 602 563 602 340 c 0
 602 120 510 -9 343 -9 c 0
 184 -9 85 119 85 338 c 0
 85 557 188 690 343 690 c 0
343 688 m 0xa8
 189 688 87 555 87 338 c 0
 87 121 185 -7 343 -7 c 0
 509 -7 600 122 600 340 c 0
 600 561 503 688 343 688 c 0xa8
EndSplineSet
Substitution2: "'c2sc' Capitals to Small Capitals lookup 23 subtable" otilde.sc
Substitution2: "'aalt' Access All Alternates lookup 0 subtable" otilde.sc
Position2: "'cpsp' Capital Spacing lookup 0 subtable" dx=5 dy=0 dh=10 dv=0
EndChar
StartChar: Odieresis
Encoding: 214 214 190
Width: 687
GlyphClass: 2
Flags: MW
HStem: -9 21G<263.5 426.5> 670 20G<265.5 423.5> 805 12<267 271 416 420>
VStem: 85 517<230 447.5>
AnchorPoint: "Anchor-14" 0 0 basechar 0
AnchorPoint: "Anchor-13" 517 680 basechar 0
AnchorPoint: "Anchor-12" 346 817 basechar 0
AnchorPoint: "Anchor-11" 422 0 basechar 0
AnchorPoint: "Anchor-10" 344 0 basechar 0
LayerCount: 2
Back
Fore
SplineSet
269 817 m 0
 273 817 275 814 275 811 c 0
 275 808 273 805 269 805 c 0
 265 805 263 808 263 811 c 0
 263 814 265 817 269 817 c 0
418 817 m 0
 422 817 424 814 424 811 c 0
 424 808 422 805 418 805 c 0
 414 805 412 808 412 811 c 0
 412 814 414 817 418 817 c 0
343 690 m 0
 504 690 602 563 602 340 c 0
 602 120 510 -9 343 -9 c 0
 184 -9 85 119 85 338 c 0
 85 557 188 690 343 690 c 0
343 688 m 0
 189 688 87 555 87 338 c 0
 87 121 185 -7 343 -7 c 0
 509 -7 600 122 600 340 c 0
 600 561 503 688 343 688 c 0
EndSplineSet
Substitution2: "'c2sc' Capitals to Small Capitals lookup 26 subtable" odieresis.sc
Substitution2: "'aalt' Access All Alternates lookup 0 subtable" odieresis.sc
Position2: "'cpsp' Capital Spacing lookup 0 subtable" dx=5 dy=0 dh=10 dv=0
EndChar
StartChar: multiply
Encoding: 215 215 2266
Width: 478
GlyphClass: 2
Flags: MW
HStem: 171 273<107 107 107 371>
VStem: 105 268<172 172>
LayerCount: 2
Back
Fore
SplineSet
371 444 m 1
 373 443 l 1
 241 308 l 1
 373 172 l 1
 371 171 l 1
 239 306 l 1
 107 171 l 1
 105 172 l 1
 237 308 l 1
 105 443 l 1
 107 444 l 1
 239 309 l 1
 371 444 l 1
EndSplineSet
Substitution2: "'onum' Oldstyle Figures lookup 25 subtable" multiply.osf
Substitution2: "'tnum' Tabular Numbers lookup 24 subtable" multiply.tf
AlternateSubs2: "'aalt' Access All Alternates lookup 1 subtable" multiply.tf multiply.osf
EndChar
StartChar: Udieresis
Encoding: 220 220 269
Width: 634
GlyphClass: 2
Flags: MW
HStem: -9 21G<244 389> 660 20G<120 122 122 122 512 514 514 514> 805 12<240 244 389 393>
VStem: 120 394<206 680>
AnchorPoint: "Anchor-14" 0 0 basechar 0
AnchorPoint: "Anchor-13" 524 680 basechar 0
AnchorPoint: "Anchor-12" 319 817 basechar 0
AnchorPoint: "Anchor-11" 397 0 basechar 0
AnchorPoint: "Anchor-10" 317 0 basechar 0
LayerCount: 2
Back
Fore
SplineSet
242 817 m 0
 246 817 248 814 248 811 c 0
 248 808 246 805 242 805 c 0
 238 805 236 808 236 811 c 0
 236 814 238 817 242 817 c 0
391 817 m 0
 395 817 397 814 397 811 c 0
 397 808 395 805 391 805 c 0
 387 805 385 808 385 811 c 0
 385 814 387 817 391 817 c 0
514 680 m 1
 514 206 l 2
 514 83 461 -9 317 -9 c 0
 171 -9 120 83 120 206 c 2
 120 680 l 1
 122 680 l 1
 122 206 l 2
 122 84 173 -7 317 -7 c 0
 460 -7 512 84 512 206 c 2
 512 680 l 1
 514 680 l 1
EndSplineSet
Substitution2: "'c2sc' Capitals to Small Capitals lookup 26 subtable" udieresis.sc
Substitution2: "'aalt' Access All Alternates lookup 0 subtable" udieresis.sc
Position2: "'cpsp' Capital Spacing lookup 0 subtable" dx=5 dy=0 dh=10 dv=0
EndChar
StartChar: Yacute
Encoding: 221 221 303
Width: 479
GlyphClass: 2
Flags: MW
HStem: 0 21G<239 241 239 239> 660 20G<25 27 27 27 452 454 454 454>
VStem: 25 429<680 680>
AnchorPoint: "Anchor-14" 0 0 basechar 0
AnchorPoint: "Anchor-13" 0 0 basechar 0
AnchorPoint: "Anchor-12" 240 842 basechar 0
AnchorPoint: "Anchor-11" 0 0 basechar 0
AnchorPoint: "Anchor-10" 240 0 basechar 0
LayerCount: 2
Back
Fore
SplineSet
320 842 m 1
 321 840 l 1
 155 771 l 1
 154 773 l 1
 320 842 l 1
454 680 m 1
 241 271 l 1
 241 0 l 1
 239 0 l 1
 239 271 l 1
 25 680 l 1
 27 680 l 1
 240 273 l 1
 452 680 l 1
 454 680 l 1
EndSplineSet
Substitution2: "'c2sc' Capitals to Small Capitals lookup 26 subtable" yacute.sc
Substitution2: "'aalt' Access All Alternates lookup 0 subtable" yacute.sc
Position2: "'cpsp' Capital Spacing lookup 0 subtable" dx=5 dy=0 dh=10 dv=0
EndChar
StartChar: Thorn
Encoding: 222 222 222
Width: 552
GlyphClass: 2
Flags: MW
HStem: 0 21G<130 132 130 130> 0 156<130 249 130 249> 548 132<130 252 130 132> 660 20G<130 132 132 132>
VStem: 130 357<280 421.5 280 680 280 680>
LayerCount: 2
Back
Fore
SplineSet
252 550 m 2x98
 411 550 487 492 487 351 c 0
 487 209 396 154 249 154 c 2
 132 154 l 1
 132 0 l 1
 130 0 l 1
 130 680 l 1
 132 680 l 1
 132 550 l 1
 252 550 l 2x98
249 156 m 2x68
 394 156 485 210 485 351 c 0
 485 491 410 548 252 548 c 2
 132 548 l 1
 132 156 l 1
 249 156 l 2x68
EndSplineSet
Substitution2: "'c2sc' Capitals to Small Capitals lookup 26 subtable" thorn.sc
Substitution2: "'aalt' Access All Alternates lookup 0 subtable" thorn.sc
Position2: "'cpsp' Capital Spacing lookup 0 subtable" dx=5 dy=0 dh=10 dv=0
EndChar
StartChar: germandbls
Encoding: 223 223 634
Width: 570
GlyphClass: 2
Flags: MW
HStem: -10 21G<348 412.5> 0 21G<125 127 125 125> 713 20G<241 333.5>
VStem: 125 184<373 455 373 541 373 602> 307 122<372 646.5>
LayerCount: 2
Back
Fore
SplineSet
289 733 m 0x68
 378 733 429 681 429 612 c 0
 429 506 309 489 309 421 c 0x70
 309 325 505 328 505 142 c 0
 505 53 455 -10 370 -10 c 0
 326 -10 299 1 279 13 c 1
 280 15 l 1
 301 2 327 -8 370 -8 c 0
 454 -8 503 54 503 142 c 0
 503 327 307 323 307 421 c 0xa8
 307 490 427 507 427 612 c 0
 427 679 378 731 289 731 c 0
 194 731 127 662 127 541 c 2
 127 0 l 1
 125 0 l 1
 125 541 l 2x70
 125 663 193 733 289 733 c 0x68
EndSplineSet
Substitution2: "'smcp' Lowercase to Small Capitals lookup 27 subtable" germandbls.sc
Substitution2: "'aalt' Access All Alternates lookup 0 subtable" germandbls.sc
EndChar
StartChar: agrave
Encoding: 224 224 356
Width: 523
GlyphClass: 2
Flags: MW
HStem: -9 21G<171.5 262.5 447 447> -7 21G<172 263.5 448 448> 302 225<231 269 269 306 231 393>
VStem: 70 378<-7 195.5>
AnchorPoint: "Anchor-14" 0 0 basechar 0
AnchorPoint: "Anchor-13" 0 0 basechar 0
AnchorPoint: "Anchor-12" 257 746 basechar 0
AnchorPoint: "Anchor-11" 457 -9 basechar 0
AnchorPoint: "Anchor-10" 250 0 basechar 0
LayerCount: 2
Back
Fore
SplineSet
339 664 m 1x70
 338 662 l 1
 171 744 l 1
 172 746 l 1
 339 664 l 1x70
395 110 m 2
 395 37 405 6 448 -7 c 1
 447 -9 l 1x70
 404 5 393 34 393 105 c 1
 358 31 305 -9 220 -9 c 0xb0
 123 -9 70 56 70 145 c 0
 70 246 146 304 269 304 c 2
 393 304 l 1
 393 372 l 2
 393 466 357 525 254 525 c 0
 208 525 162 514 107 491 c 1
 106 493 l 1
 161 516 208 527 254 527 c 0
 358 527 395 468 395 372 c 2
 395 110 l 2
220 -7 m 0
 307 -7 357 34 393 109 c 1
 393 302 l 1
 269 302 l 2
 147 302 72 244 72 145 c 0
 72 57 124 -7 220 -7 c 0
EndSplineSet
Substitution2: "'smcp' Lowercase to Small Capitals lookup 27 subtable" agrave.sc
Substitution2: "'aalt' Access All Alternates lookup 0 subtable" agrave.sc
EndChar

StartChar: acircumflex
Encoding: 226 226 137
Width: 523
GlyphClass: 2
Flags: MW
HStem: -9 21G<171.5 262.59> -7 21G 302 225
VStem: 70 378<-6.99805 195.5>
AnchorPoint: "Anchor-11" 0 0 basechar 0
AnchorPoint: "Anchor-10" 0 0 basechar 0
AnchorPoint: "Anchor-9" 250 517 basechar 0
AnchorPoint: "Anchor-8" 457 -9 basechar 0
LayerCount: 2
Fore
SplineSet
146 660 m 1x70
 144 661 l 1
 253 745 l 1
 255 745 l 1
 362 661 l 1
 360 660 l 1
 254 743 l 1
 146 660 l 1x70
395 110 m 2
 395 37 405 6.00195 448 -6.99805 c 1
 447 -8.99805 l 1x70
 404.22 4.93164 393.109 33.7012 392.999 104.881 c 1
 357.989 31.2305 305.18 -9 220 -9 c 0xb0
 123 -9 70 56 70 145 c 0
 70 246 146 304 269 304 c 2
 393 304 l 1
 393 372 l 2
 393 466 357 525 254 525 c 0
 208 525 162 514 107 491 c 1
 106 493 l 1
 161 516 208 527 254 527 c 0
 358 527 395 468 395 372 c 2
 395 110 l 2
220 -6.99805 m 0
 307.19 -6.99805 357.07 34.2324 393 108.912 c 1
 393 302.002 l 1
 269 302.002 l 2
 147 302.002 72 244.002 72 145.002 c 0
 72 57.002 124 -6.99805 220 -6.99805 c 0
EndSplineSet
Substitution2: "'smcp' Lowercase to Small Capitals lookup 24 subtable" acircumflex.sc
Substitution2: "'aalt' Access All Alternates lookup 0 subtable" acircumflex.sc
EndChar

StartChar: atilde
Encoding: 227 227 143
Width: 523
GlyphClass: 2
Flags: MW
HStem: -9 21G<171.5 262.59> -7 21G 302 225 525 163<288.5 305.5> 668 20G<288.5 323> 712 20G<183 214.5>
VStem: 70 378<-6.99805 195.5>
AnchorPoint: "Anchor-11" 0 0 basechar 0
AnchorPoint: "Anchor-10" 0 0 basechar 0
AnchorPoint: "Anchor-9" 250 517 basechar 0
AnchorPoint: "Anchor-8" 457 -9 basechar 0
LayerCount: 2
Fore
SplineSet
197 730 m 0x6e
 170 730 155 719 133 695 c 1
 131 696 l 1
 154 721 169 732 197 732 c 0
 232 732 267 688 310 688 c 0
 336 688 352 699 372 725 c 1
 374 724 l 1
 353 697 337 686 310 686 c 0
 267 686 230 730 197 730 c 0x6e
395 110 m 2
 395 37 405 6.00195 448 -6.99805 c 1
 447 -8.99805 l 1x6e
 404.22 4.93164 393.109 33.7012 392.999 104.881 c 1
 357.989 31.2305 305.18 -9 220 -9 c 0
 123 -9 70 56 70 145 c 0
 70 246 146 304 269 304 c 2
 393 304 l 1
 393 372 l 2
 393 466 357 525 254 525 c 0x96
 208 525 162 514 107 491 c 1
 106 493 l 1
 161 516 208 527 254 527 c 0
 358 527 395 468 395 372 c 2
 395 110 l 2
220 -6.99805 m 0
 307.19 -6.99805 357.07 34.2324 393 108.912 c 1
 393 302.002 l 1
 269 302.002 l 2
 147 302.002 72 244.002 72 145.002 c 0
 72 57.002 124 -6.99805 220 -6.99805 c 0
EndSplineSet
Substitution2: "'smcp' Lowercase to Small Capitals lookup 24 subtable" atilde.sc
Substitution2: "'aalt' Access All Alternates lookup 0 subtable" atilde.sc
EndChar
StartChar: adieresis
Encoding: 228 228 351
Width: 523
GlyphClass: 2
Flags: MW
HStem: -9 21G<171.5 262.5 447 447> -7 21G<172 263.5 448 448> 302 225<231 269 269 306 231 393> 679 12<173 177 322 326>
VStem: 70 378<-7 195.5>
AnchorPoint: "Anchor-14" 0 0 basechar 0
AnchorPoint: "Anchor-13" 0 0 basechar 0
AnchorPoint: "Anchor-12" 252 691 basechar 0
AnchorPoint: "Anchor-11" 457 -9 basechar 0
AnchorPoint: "Anchor-10" 250 0 basechar 0
LayerCount: 2
Back
Fore
SplineSet
175 679 m 0x78
 171 679 169 682 169 685 c 0
 169 688 171 691 175 691 c 0
 179 691 181 688 181 685 c 0
 181 682 179 679 175 679 c 0x78
324 679 m 0
 320 679 318 682 318 685 c 0
 318 688 320 691 324 691 c 0
 328 691 330 688 330 685 c 0
 330 682 328 679 324 679 c 0
395 110 m 2
 395 37 405 6 448 -7 c 1
 447 -9 l 1x78
 404 5 393 34 393 105 c 1
 358 31 305 -9 220 -9 c 0xb8
 123 -9 70 56 70 145 c 0
 70 246 146 304 269 304 c 2
 393 304 l 1
 393 372 l 2
 393 466 357 525 254 525 c 0
 208 525 162 514 107 491 c 1
 106 493 l 1
 161 516 208 527 254 527 c 0
 358 527 395 468 395 372 c 2
 395 110 l 2
220 -7 m 0
 307 -7 357 34 393 109 c 1
 393 302 l 1
 269 302 l 2
 147 302 72 244 72 145 c 0
 72 57 124 -7 220 -7 c 0
EndSplineSet
Substitution2: "'smcp' Lowercase to Small Capitals lookup 27 subtable" adieresis.sc
Substitution2: "'aalt' Access All Alternates lookup 0 subtable" adieresis.sc
EndChar

StartChar: aring
Encoding: 229 229 142
Width: 523
GlyphClass: 2
Flags: MW
HStem: -9 21G<171.5 262.59> -7 21G 302 225 525 132<231 269 230.5 305.5> 655 127<230.5 269.5>
VStem: 187 126<700 737>
AnchorPoint: "Anchor-11" 0 0 basechar 0
AnchorPoint: "Anchor-10" 0 0 basechar 0
AnchorPoint: "Anchor-9" 250 517 basechar 0
AnchorPoint: "Anchor-8" 457 -9 basechar 0
LayerCount: 2
Fore
SplineSet
250 655 m 0x6c
 209 655 187 681 187 718 c 0
 187 756 211 782 250 782 c 0
 291 782 313 756 313 719 c 0
 313 681 289 655 250 655 c 0x6c
250 780 m 0
 212 780 189 754 189 718 c 0
 189 681 211 657 250 657 c 0
 288 657 311 683 311 719 c 0x54
 311 756 289 780 250 780 c 0
395 110 m 2
 395 37 405 6.00195 448 -6.99805 c 1
 447 -8.99805 l 1x6c
 404.22 4.93164 393.109 33.7012 392.999 104.881 c 1
 357.989 31.2305 305.18 -9 220 -9 c 0
 123 -9 70 56 70 145 c 0
 70 246 146 304 269 304 c 2
 393 304 l 1
 393 372 l 2
 393 466 357 525 254 525 c 0x94
 208 525 162 514 107 491 c 1
 106 493 l 1
 161 516 208 527 254 527 c 0
 358 527 395 468 395 372 c 2
 395 110 l 2
220 -6.99805 m 0
 307.19 -6.99805 357.07 34.2324 393 108.912 c 1
 393 302.002 l 1
 269 302.002 l 2
 147 302.002 72 244.002 72 145.002 c 0
 72 57.002 124 -6.99805 220 -6.99805 c 0
EndSplineSet
Substitution2: "'smcp' Lowercase to Small Capitals lookup 24 subtable" aring.sc
Substitution2: "'aalt' Access All Alternates lookup 0 subtable" aring.sc
EndChar
StartChar: ae
Encoding: 230 230 368
Width: 841
GlyphClass: 2
Flags: MW
HStem: -9 263<171.5 763 529.5 622.5> 252 52<269 765 269 395> 302 225<231 269 269 306 231 393>
VStem: 70 696<100.5 356>
AnchorPoint: "Anchor-14" 0 0 basechar 0
AnchorPoint: "Anchor-13" 0 0 basechar 0
AnchorPoint: "Anchor-12" 421 517 basechar 0
AnchorPoint: "Anchor-11" 0 0 basechar 0
AnchorPoint: "Anchor-10" 417 0 basechar 0
LayerCount: 2
Back
Fore
SplineSet
766 288 m 0x50
 766 274 766 266 765 252 c 1
 395 252 l 1x50
 395 86 472 -7 589 -7 c 0
 654 -7 697 14 742 52 c 1
 743 50 l 1
 698 13 656 -9 589 -9 c 0
 470 -9 393 85 393 253 c 2
 393 302 l 1
 269 302 l 2
 147 302 72 244 72 145 c 0
 72 57 124 -7 220 -7 c 0
 308 -7 358 35 410 124 c 1
 411 122 l 1
 358 30 306 -9 220 -9 c 0xb0
 123 -9 70 56 70 145 c 0
 70 246 146 304 269 304 c 2
 393 304 l 1
 393 372 l 2x50
 393 466 357 525 254 525 c 0
 208 525 162 514 107 491 c 1
 106 493 l 1
 161 516 208 527 254 527 c 0
 358 527 395 468 395 372 c 2
 395 301 l 1
 408 444 480 527 589 527 c 0x30
 712 527 766 424 766 288 c 0x50
763 254 m 1x90
 764 267 764 275 764 288 c 0
 764 422 711 525 589 525 c 0
 470 525 395 424 395 254 c 1
 763 254 l 1x90
EndSplineSet
Substitution2: "'smcp' Lowercase to Small Capitals lookup 27 subtable" ae.sc
Substitution2: "'aalt' Access All Alternates lookup 0 subtable" ae.sc
EndChar
StartChar: ccedilla
Encoding: 231 231 384
Width: 469
GlyphClass: 2
Flags: MW
HStem: -203 120<274 313> -85 78<272 272> -9 21G<222.5 310.5 276 278 278 278> 507 20G<219 308.5>
VStem: 274 90<-164.5 -83>
AnchorPoint: "Anchor-14" 0 0 basechar 0
AnchorPoint: "Anchor-13" 0 0 basechar 0
AnchorPoint: "Anchor-12" 269 517 basechar 0
AnchorPoint: "Anchor-11" 0 0 basechar 0
AnchorPoint: "Anchor-10" 302 -203 basechar 0
LayerCount: 2
Back
Fore
SplineSet
282 527 m 0xb8
 335 527 375 510 410 477 c 1
 408 476 l 1
 373 509 333 525 282 525 c 0
 158 525 82 424 82 256 c 0
 82 88 166 -7 280 -7 c 0x58
 339 -7 379 14 412 45 c 1
 414 44 l 1
 381 13 341 -9 280 -9 c 0
 165 -9 80 86 80 256 c 0
 80 426 156 527 282 527 c 0xb8
278 -9 m 1
 274 -83 l 1
 329 -84 364 -99 364 -142 c 0
 364 -187 330 -203 296 -203 c 0
 267 -203 251 -197 235 -187 c 1
 236 -185 l 1
 253 -196 269 -201 296 -201 c 0xb8
 329 -201 362 -186 362 -142 c 0
 362 -105 336 -86 272 -85 c 1x58
 276 -9 l 1
 278 -9 l 1
EndSplineSet
Substitution2: "'smcp' Lowercase to Small Capitals lookup 27 subtable" ccedilla.sc
Substitution2: "'aalt' Access All Alternates lookup 0 subtable" ccedilla.sc
EndChar
StartChar: igrave
Encoding: 236 236 489
Width: 252
GlyphClass: 2
Flags: MW
HStem: 0 21G<125 127 125 125> 497 20G<125 127 127 127>
VStem: 47 168<664 744>
AnchorPoint: "Anchor-14" 0 0 basechar 0
AnchorPoint: "Anchor-13" 0 0 basechar 0
AnchorPoint: "Anchor-12" 133 746 basechar 0
AnchorPoint: "Anchor-11" 137 0 basechar 0
AnchorPoint: "Anchor-10" 126 0 basechar 0
LayerCount: 2
Back
Fore
SplineSet
48 746 m 1
 215 664 l 1
 214 662 l 1
 47 744 l 1
 48 746 l 1
127 517 m 1
 127 0 l 1
 125 0 l 1
 125 517 l 1
 127 517 l 1
EndSplineSet
Substitution2: "'smcp' Lowercase to Small Capitals lookup 27 subtable" igrave.sc
Substitution2: "'aalt' Access All Alternates lookup 0 subtable" igrave.sc
EndChar
StartChar: iacute
Encoding: 237 237 480
Width: 252
GlyphClass: 2
Flags: MW
HStem: 0 21G<125 127 125 125> 497 20G<125 127 127 127>
VStem: 37 168<664 744>
AnchorPoint: "Anchor-14" 0 0 basechar 0
AnchorPoint: "Anchor-13" 0 0 basechar 0
AnchorPoint: "Anchor-12" 126 746 basechar 0
AnchorPoint: "Anchor-11" 137 0 basechar 0
AnchorPoint: "Anchor-10" 126 0 basechar 0
LayerCount: 2
Back
Fore
SplineSet
204 746 m 1
 205 744 l 1
 38 662 l 1
 37 664 l 1
 204 746 l 1
127 517 m 1
 127 0 l 1
 125 0 l 1
 125 517 l 1
 127 517 l 1
EndSplineSet
Substitution2: "'smcp' Lowercase to Small Capitals lookup 27 subtable" iacute.sc
Substitution2: "'aalt' Access All Alternates lookup 0 subtable" iacute.sc
EndChar
StartChar: icircumflex
Encoding: 238 238 483
Width: 252
GlyphClass: 2
Flags: MW
HStem: 0 21G<125 127 125 125> 497 20G<125 127 127 127>
VStem: 17 218<661 661>
AnchorPoint: "Anchor-14" 0 0 basechar 0
AnchorPoint: "Anchor-13" 0 0 basechar 0
AnchorPoint: "Anchor-12" 128 745 basechar 0
AnchorPoint: "Anchor-11" 137 0 basechar 0
AnchorPoint: "Anchor-10" 126 0 basechar 0
LayerCount: 2
Back
Fore
SplineSet
19 660 m 1
 17 661 l 1
 126 745 l 1
 128 745 l 1
 235 661 l 1
 233 660 l 1
 127 743 l 1
 19 660 l 1
127 517 m 1
 127 0 l 1
 125 0 l 1
 125 517 l 1
 127 517 l 1
EndSplineSet
Substitution2: "'smcp' Lowercase to Small Capitals lookup 27 subtable" icircumflex.sc
Substitution2: "'aalt' Access All Alternates lookup 0 subtable" icircumflex.sc
EndChar
StartChar: idieresis
Encoding: 239 239 485
Width: 252
GlyphClass: 2
Flags: MW
HStem: 0 21G<125 127 125 125> 497 20G<125 127 127 127> 679 12<49 53 198 202>
VStem: 45 161<683.5 686.5>
AnchorPoint: "Anchor-14" 0 0 basechar 0
AnchorPoint: "Anchor-13" 0 0 basechar 0
AnchorPoint: "Anchor-12" 128 691 basechar 0
AnchorPoint: "Anchor-11" 137 0 basechar 0
AnchorPoint: "Anchor-10" 126 0 basechar 0
LayerCount: 2
Back
Fore
SplineSet
51 691 m 0
 55 691 57 688 57 685 c 0
 57 682 55 679 51 679 c 0
 47 679 45 682 45 685 c 0
 45 688 47 691 51 691 c 0
200 691 m 0
 204 691 206 688 206 685 c 0
 206 682 204 679 200 679 c 0
 196 679 194 682 194 685 c 0
 194 688 196 691 200 691 c 0
127 517 m 1
 127 0 l 1
 125 0 l 1
 125 517 l 1
 127 517 l 1
EndSplineSet
Substitution2: "'smcp' Lowercase to Small Capitals lookup 27 subtable" idieresis.sc
Substitution2: "'aalt' Access All Alternates lookup 0 subtable" idieresis.sc
EndChar

StartChar: eth
Encoding: 240 240 154
Width: 540
GlyphClass: 2
Flags: MW
HStem: -9 21G 713.99 20G 717 20G<359 359>
VStem: 80 375<207.499 289.499>
LayerCount: 2
Fore
SplineSet
298.58 669.58 m 1xb0
 400.21 597.57 455 485.679 455 321.999 c 0
 455 92.999 388 -9.00098 264 -9.00098 c 0
 149 -9.00098 80 87.999 80 227.999 c 0
 80 350.999 145 456.999 260 456.999 c 0
 343.38 456.999 406.07 407.729 452.96 336.569 c 1
 449.64 491.1 395.1 597.38 297.18 668.149 c 1
 209 575.999 l 1
 207 576.999 l 1
 295.42 669.399 l 1
 252.53 699.18 200.78 720.05 152 731.99 c 1
 152 733.99 l 1
 201.55 722.101 254.04 701.37 296.83 670.83 c 1
 297 671 l 1xd0
 359 737 l 1
 361 736 l 1
 299 670 l 1
 298.58 669.58 l 1xb0
264 -7.00195 m 0
 386 -7.00195 453 92.9893 453 321.989 c 0
 453 325.829 453 329.669 453 333.509 c 1
 405.14 405.688 343.42 454.998 260 454.998 c 0
 147 454.998 82 350.998 82 227.998 c 0
 82 87.998 151 -7.00195 264 -7.00195 c 0
EndSplineSet
Substitution2: "'smcp' Lowercase to Small Capitals lookup 24 subtable" eth.sc
Substitution2: "'aalt' Access All Alternates lookup 0 subtable" eth.sc
EndChar
StartChar: ntilde
Encoding: 241 241 552
Width: 580
GlyphClass: 2
Flags: MW
HStem: 0 21G<125 127 125 125 458 460 458 458> 497 20G<125 127 127 127> 507 20G<282.5 373.5> 525 163<331.5 367 331.5 373> 686 46 712 20G<227 260>
VStem: 125 335<0 368 0 517 0 517>
AnchorPoint: "Anchor-14" 0 0 basechar 0
AnchorPoint: "Anchor-13" 0 0 basechar 0
AnchorPoint: "Anchor-12" 295 692 basechar 0
AnchorPoint: "Anchor-11" 0 0 basechar 0
AnchorPoint: "Anchor-10" 287 0 basechar 0
LayerCount: 2
Back
Fore
SplineSet
240 730 m 0xaa
 215 730 200 719 178 695 c 1
 176 696 l 1
 199 721 214 732 240 732 c 0
 280 732 310 688 353 688 c 0x96
 381 688 397 699 417 725 c 1
 419 724 l 1
 398 697 382 686 353 686 c 0
 310 686 278 730 240 730 c 0xaa
326 527 m 0xa6
 421 527 460 467 460 368 c 2
 460 0 l 1
 458 0 l 1
 458 368 l 2
 458 466 420 525 326 525 c 0x96
 239 525 175 473 127 387 c 1
 127 0 l 1
 125 0 l 1
 125 517 l 1
 127 517 l 1xc6
 127 391 l 1
 175 476 239 527 326 527 c 0xa6
EndSplineSet
Substitution2: "'smcp' Lowercase to Small Capitals lookup 27 subtable" ntilde.sc
Substitution2: "'aalt' Access All Alternates lookup 0 subtable" ntilde.sc
EndChar

StartChar: ograve
Encoding: 242 242 213
Width: 559
GlyphClass: 2
Flags: MW
HStem: -9 21G<217 340.5> 507 20G<220.5 342>
VStem: 80 399<175.5 344.5>
AnchorPoint: "Anchor-11" 0 0 basechar 0
AnchorPoint: "Anchor-10" 0 0 basechar 0
AnchorPoint: "Anchor-9" 280 517 basechar 0
AnchorPoint: "Anchor-8" 0 0 basechar 0
LayerCount: 2
Fore
SplineSet
369 664 m 1
 368 662 l 1
 201 744 l 1
 202 746 l 1
 369 664 l 1
281 527 m 0
 403 527 479 429 479 262 c 0
 479 89 402 -9 279 -9 c 0
 155 -9 80 91 80 258 c 0
 80 431 160 527 281 527 c 0
281 525 m 0
 161 525 82 429 82 258 c 0
 82 93 156 -7 279 -7 c 0
 401 -7 477 91 477 262 c 0
 477 427 402 525 281 525 c 0
EndSplineSet
Substitution2: "'smcp' Lowercase to Small Capitals lookup 24 subtable" ograve.sc
Substitution2: "'aalt' Access All Alternates lookup 0 subtable" ograve.sc
EndChar
StartChar: otilde
Encoding: 245 245 591
Width: 559
GlyphClass: 2
Flags: MW
HStem: -9 21G<217 340.5> 507 20G<220.5 342> 525 163<316.5 341.5> 686 46 712 20G<212 245>
VStem: 80 399<175.5 344.5>
AnchorPoint: "Anchor-14" 0 0 basechar 0
AnchorPoint: "Anchor-13" 431 517 basechar 0
AnchorPoint: "Anchor-12" 280 692 basechar 0
AnchorPoint: "Anchor-11" 348 0 basechar 0
AnchorPoint: "Anchor-10" 280 0 basechar 0
LayerCount: 2
Back
Fore
SplineSet
338 686 m 0xd4
 295 686 263 730 225 730 c 0xd4
 200 730 185 719 163 695 c 1
 161 696 l 1
 184 721 199 732 225 732 c 0
 265 732 295 688 338 688 c 0xac
 366 688 382 699 402 725 c 1
 404 724 l 1
 383 697 367 686 338 686 c 0xd4
281 527 m 0xcc
 403 527 479 429 479 262 c 0
 479 89 402 -9 279 -9 c 0
 155 -9 80 91 80 258 c 0
 80 431 160 527 281 527 c 0xcc
281 525 m 0xac
 161 525 82 429 82 258 c 0
 82 93 156 -7 279 -7 c 0
 401 -7 477 91 477 262 c 0
 477 427 402 525 281 525 c 0xac
EndSplineSet
Substitution2: "'smcp' Lowercase to Small Capitals lookup 27 subtable" otilde.sc
Substitution2: "'aalt' Access All Alternates lookup 0 subtable" otilde.sc
EndChar
StartChar: odieresis
Encoding: 246 246 566
Width: 559
GlyphClass: 2
Flags: MW
HStem: -9 21G<217 340.5> 507 20G<220.5 342> 679 12<203 207 352 356>
VStem: 80 399<175.5 344.5>
AnchorPoint: "Anchor-14" 0 0 basechar 0
AnchorPoint: "Anchor-13" 431 517 basechar 0
AnchorPoint: "Anchor-12" 282 691 basechar 0
AnchorPoint: "Anchor-11" 348 0 basechar 0
AnchorPoint: "Anchor-10" 280 0 basechar 0
LayerCount: 2
Back
Fore
SplineSet
205 691 m 0
 209 691 211 688 211 685 c 0
 211 682 209 679 205 679 c 0
 201 679 199 682 199 685 c 0
 199 688 201 691 205 691 c 0
354 691 m 0
 358 691 360 688 360 685 c 0
 360 682 358 679 354 679 c 0
 350 679 348 682 348 685 c 0
 348 688 350 691 354 691 c 0
281 527 m 0
 403 527 479 429 479 262 c 0
 479 89 402 -9 279 -9 c 0
 155 -9 80 91 80 258 c 0
 80 431 160 527 281 527 c 0
281 525 m 0
 161 525 82 429 82 258 c 0
 82 93 156 -7 279 -7 c 0
 401 -7 477 91 477 262 c 0
 477 427 402 525 281 525 c 0
EndSplineSet
Substitution2: "'smcp' Lowercase to Small Capitals lookup 27 subtable" odieresis.sc
Substitution2: "'aalt' Access All Alternates lookup 0 subtable" odieresis.sc
EndChar
StartChar: divide
Encoding: 247 247 2244
Width: 478
GlyphClass: 2
Flags: MW
HStem: 126 14<237 241> 522 14<237 241>
VStem: 85 308<330 332 330 332>
LayerCount: 2
Back
Fore
SplineSet
239 536 m 0
 243 536 246 533 246 529 c 0
 246 525 243 522 239 522 c 0
 235 522 232 525 232 529 c 0
 232 533 235 536 239 536 c 0
85 330 m 1
 85 332 l 1
 393 332 l 1
 393 330 l 1
 85 330 l 1
239 140 m 0
 243 140 246 137 246 133 c 0
 246 129 243 126 239 126 c 0
 235 126 232 129 232 133 c 0
 232 137 235 140 239 140 c 0
EndSplineSet
Substitution2: "'onum' Oldstyle Figures lookup 25 subtable" divide.osf
Substitution2: "'tnum' Tabular Numbers lookup 24 subtable" divide.tf
AlternateSubs2: "'aalt' Access All Alternates lookup 1 subtable" divide.tf divide.osf
EndChar
StartChar: ugrave
Encoding: 249 249 674
Width: 575
GlyphClass: 2
Flags: MW
HStem: -9 21G<217.5 304> 0 21G<448 450 448 448> 497 20G<120 122 122 122 448 450 450 450>
VStem: 120 330<150 517 0 517>
AnchorPoint: "Anchor-14" 0 0 basechar 0
AnchorPoint: "Anchor-13" 460 517 basechar 0
AnchorPoint: "Anchor-12" 297 746 basechar 0
AnchorPoint: "Anchor-11" 460 0 basechar 0
AnchorPoint: "Anchor-10" 290 0 basechar 0
LayerCount: 2
Back
Fore
SplineSet
212 746 m 1x70
 379 664 l 1
 378 662 l 1
 211 744 l 1
 212 746 l 1x70
450 517 m 1
 450 0 l 1
 448 0 l 1x70
 448 116 l 1
 406 40 347 -9 261 -9 c 0xb0
 174 -9 120 46 120 150 c 2
 120 517 l 1
 122 517 l 1
 122 150 l 2
 122 48 175 -7 261 -7 c 0
 348 -7 407 45 448 120 c 1
 448 517 l 1
 450 517 l 1
EndSplineSet
Substitution2: "'smcp' Lowercase to Small Capitals lookup 27 subtable" ugrave.sc
Substitution2: "'aalt' Access All Alternates lookup 0 subtable" ugrave.sc
EndChar

StartChar: ucircumflex
Encoding: 251 251 242
Width: 575
GlyphClass: 2
Flags: MW
HStem: -9 21G<217.5 304> 0 21G<448 450 448 448> 497 20G<120 122 122 122 448 450 450 450>
VStem: 120 330<150 517>
AnchorPoint: "Anchor-11" 0 0 basechar 0
AnchorPoint: "Anchor-10" 0 0 basechar 0
AnchorPoint: "Anchor-9" 290 517 basechar 0
AnchorPoint: "Anchor-8" 460 0 basechar 0
LayerCount: 2
Fore
SplineSet
184 661 m 1x70
 293 745 l 1
 295 745 l 1
 402 661 l 1
 400 660 l 1
 294 743 l 1
 186 660 l 1
 184 661 l 1x70
450 0 m 1
 448 0 l 1x70
 448 116 l 1
 406 40 347 -9 261 -9 c 0xb0
 174 -9 120 46 120 150 c 2
 120 517 l 1
 122 517 l 1
 122 150 l 2
 122 48 175 -7 261 -7 c 0
 348 -7 407 45 448 120 c 1
 448 517 l 1
 450 517 l 1
 450 0 l 1
EndSplineSet
Substitution2: "'smcp' Lowercase to Small Capitals lookup 24 subtable" ucircumflex.sc
Substitution2: "'aalt' Access All Alternates lookup 0 subtable" ucircumflex.sc
EndChar

StartChar: udieresis
Encoding: 252 252 243
Width: 575
GlyphClass: 2
Flags: MW
HStem: -9 21G<217.5 304> 0 21G<448 450 448 448> 497 20G<120 122 122 122 448 450 450 450> 679 12<213 217 362 366>
VStem: 120 330<150 517>
AnchorPoint: "Anchor-11" 0 0 basechar 0
AnchorPoint: "Anchor-10" 0 0 basechar 0
AnchorPoint: "Anchor-9" 290 597 basechar 0
AnchorPoint: "Anchor-8" 460 0 basechar 0
LayerCount: 2
Fore
SplineSet
215 691 m 0x78
 219 691 221 688 221 685 c 0
 221 682 219 679 215 679 c 0
 211 679 209 682 209 685 c 0
 209 688 211 691 215 691 c 0x78
364 691 m 0
 368 691 370 688 370 685 c 0
 370 682 368 679 364 679 c 0
 360 679 358 682 358 685 c 0
 358 688 360 691 364 691 c 0
450 0 m 1
 448 0 l 1x78
 448 116 l 1
 406 40 347 -9 261 -9 c 0xb8
 174 -9 120 46 120 150 c 2
 120 517 l 1
 122 517 l 1
 122 150 l 2
 122 48 175 -7 261 -7 c 0
 348 -7 407 45 448 120 c 1
 448 517 l 1
 450 517 l 1
 450 0 l 1
EndSplineSet
Substitution2: "'smcp' Lowercase to Small Capitals lookup 24 subtable" udieresis.sc
Substitution2: "'aalt' Access All Alternates lookup 0 subtable" udieresis.sc
EndChar

StartChar: yacute
Encoding: 253 253 258
Width: 434
GlyphClass: 2
Flags: MW
HStem: -189 21G<61 61> 0 21G<222 224 222 222 224 224 226 226> 497 20G<30 32 32 32 402 404 404 404>
VStem: 30 374<517 517>
AnchorPoint: "Anchor-11" 0 0 basechar 0
AnchorPoint: "Anchor-10" 0 0 basechar 0
AnchorPoint: "Anchor-9" 217 517 basechar 0
AnchorPoint: "Anchor-8" 0 0 basechar 0
LayerCount: 2
Fore
SplineSet
129 662 m 1
 128 664 l 1
 295 746 l 1
 296 744 l 1
 129 662 l 1
32 517 m 1
 224 0 l 1
 222 0 l 1
 30 517 l 1
 32 517 l 1
404 517 m 1
 226 0 l 2
 187 -112 165 -159 61 -189 c 1
 61 -187 l 1
 163 -157 185 -112 224 0 c 2
 402 517 l 1
 404 517 l 1
EndSplineSet
Substitution2: "'smcp' Lowercase to Small Capitals lookup 24 subtable" yacute.sc
Substitution2: "'aalt' Access All Alternates lookup 0 subtable" yacute.sc
EndChar
StartChar: amacron
Encoding: 257 257 361
Width: 523
GlyphClass: 2
Flags: MW
HStem: -9 21G<171.5 262.5 447 447> -7 21G<172 263.5 448 448> 302 225<231 269 269 306 231 393> 525 166<231 305.5>
VStem: 70 378<-7 195.5>
AnchorPoint: "Anchor-14" 0 0 basechar 0
AnchorPoint: "Anchor-13" 0 0 basechar 0
AnchorPoint: "Anchor-12" 252 691 basechar 0
AnchorPoint: "Anchor-11" 457 -9 basechar 0
AnchorPoint: "Anchor-10" 250 0 basechar 0
LayerCount: 2
Back
Fore
SplineSet
345 691 m 1x58
 345 689 l 1
 155 689 l 1
 155 691 l 1
 345 691 l 1x58
395 110 m 2
 395 37 405 6 448 -7 c 1
 447 -9 l 1x58
 404 5 393 34 393 105 c 1
 358 31 305 -9 220 -9 c 0
 123 -9 70 56 70 145 c 0
 70 246 146 304 269 304 c 2
 393 304 l 1
 393 372 l 2
 393 466 357 525 254 525 c 0x98
 208 525 162 514 107 491 c 1
 106 493 l 1
 161 516 208 527 254 527 c 0x68
 358 527 395 468 395 372 c 2
 395 110 l 2
220 -7 m 0
 307 -7 357 34 393 109 c 1
 393 302 l 1
 269 302 l 2x68
 147 302 72 244 72 145 c 0
 72 57 124 -7 220 -7 c 0
EndSplineSet
Substitution2: "'smcp' Lowercase to Small Capitals lookup 27 subtable" amacron.sc
Substitution2: "'aalt' Access All Alternates lookup 0 subtable" amacron.sc
EndChar

StartChar: Abreve
Encoding: 258 258 3
Width: 556
GlyphClass: 2
Flags: MW
HStem: 0 21G<35 37 35 35 519 519 519 521> 660 20G<276 278 278 278>
VStem: 35 486<0 0>
AnchorPoint: "Anchor-11" 0 0 basechar 0
AnchorPoint: "Anchor-10" 140 680 basechar 0
AnchorPoint: "Anchor-9" 278 680 basechar 0
AnchorPoint: "Anchor-8" 531 0 basechar 0
LayerCount: 2
Fore
SplineSet
278 774 m 0
 223 774 193 805 182 834 c 1
 184 835 l 1
 197 801 230 776 278 776 c 0
 326 776 359 801 372 835 c 1
 374 834 l 1
 363 805 333 774 278 774 c 0
442.97 213 m 1
 112.4 213 l 1
 37 0 l 1
 35 0 l 1
 276 680 l 1
 278 680 l 1
 521 0 l 1
 519 0 l 1
 442.97 213 l 1
442.261 215 m 1
 277.001 678 l 1
 113.101 215 l 1
 442.261 215 l 1
EndSplineSet
Substitution2: "'c2sc' Capitals to Small Capitals lookup 23 subtable" abreve.sc
Substitution2: "'aalt' Access All Alternates lookup 0 subtable" abreve.sc
Position2: "'cpsp' Capital Spacing lookup 0 subtable" dx=5 dy=0 dh=10 dv=0
EndChar
StartChar: abreve
Encoding: 259 259 337
Width: 523
GlyphClass: 2
Flags: MW
HStem: -9 21G<171.5 262.5 447 447> -7 21G<172 263.5 448 448> 302 225<231 269 269 306 231 393> 525 143<231 274 226 305.5> 717 20G<156 156 344 344>
VStem: 70 378<-7 195.5>
AnchorPoint: "Anchor-14" 0 0 basechar 0
AnchorPoint: "Anchor-13" 0 0 basechar 0
AnchorPoint: "Anchor-12" 252 737 basechar 0
AnchorPoint: "Anchor-11" 457 -9 basechar 0
AnchorPoint: "Anchor-10" 250 0 basechar 0
LayerCount: 2
Back
Fore
SplineSet
250 666 m 0x6c
 195 666 165 698 154 736 c 1
 156 737 l 1
 169 693 202 668 250 668 c 0x5c
 298 668 331 693 344 737 c 1
 346 736 l 1
 335 698 305 666 250 666 c 0x6c
395 110 m 2
 395 37 405 6 448 -7 c 1
 447 -9 l 1x6c
 404 5 393 34 393 105 c 1
 358 31 305 -9 220 -9 c 0
 123 -9 70 56 70 145 c 0
 70 246 146 304 269 304 c 2
 393 304 l 1
 393 372 l 2
 393 466 357 525 254 525 c 0x9c
 208 525 162 514 107 491 c 1
 106 493 l 1
 161 516 208 527 254 527 c 0
 358 527 395 468 395 372 c 2
 395 110 l 2
220 -7 m 0
 307 -7 357 34 393 109 c 1
 393 302 l 1
 269 302 l 2
 147 302 72 244 72 145 c 0
 72 57 124 -7 220 -7 c 0
EndSplineSet
Substitution2: "'smcp' Lowercase to Small Capitals lookup 27 subtable" abreve.sc
Substitution2: "'aalt' Access All Alternates lookup 0 subtable" abreve.sc
EndChar

StartChar: Aogonek
Encoding: 260 260 8
Width: 556
GlyphClass: 2
Flags: MW
HStem: -194 21G 0 21G<35 37 35 35 521 521> 0.559998 21G 660 20G<276 278 278 278>
VStem: 35 486<0 0>
AnchorPoint: "Anchor-11" 0 0 basechar 0
AnchorPoint: "Anchor-10" 140 680 basechar 0
AnchorPoint: "Anchor-9" 278 680 basechar 0
AnchorPoint: "Anchor-8" 531 0 basechar 0
LayerCount: 2
Fore
SplineSet
386 -120 m 0xb8
 386 -168 417.001 -192.001 461.001 -192.001 c 0
 479.001 -192.001 492.001 -190.001 514.001 -184.001 c 1
 514.001 -186.001 l 1
 492.001 -192.001 480.001 -194.001 461.001 -194.001 c 0
 416.001 -194.001 384.001 -169.001 384.001 -120.001 c 0
 384.001 -57.4209 458.021 -21.4805 518.801 0.55957 c 1xb8
 442.971 213 l 1
 112.4 213 l 1
 37 0 l 1
 35 0 l 1
 276 680 l 1
 278 680 l 1
 521 0 l 1xd8
 465 -20 386 -57 386 -120 c 0xb8
442.261 214.999 m 1
 277.001 677.999 l 1
 113.101 214.999 l 1
 442.261 214.999 l 1
EndSplineSet
Substitution2: "'c2sc' Capitals to Small Capitals lookup 23 subtable" aogonek.sc
Substitution2: "'aalt' Access All Alternates lookup 0 subtable" aogonek.sc
Position2: "'cpsp' Capital Spacing lookup 0 subtable" dx=5 dy=0 dh=10 dv=0
EndChar

StartChar: aogonek
Encoding: 261 261 141
Width: 523
GlyphClass: 2
Flags: MW
HStem: -195 21G -9 21G<171.5 262.59 447 447> -8.35001 21G -7 21G<448 448> 302 225
VStem: 70 325<100.5 110 110 195.5>
AnchorPoint: "Anchor-11" 0 0 basechar 0
AnchorPoint: "Anchor-10" 0 0 basechar 0
AnchorPoint: "Anchor-9" 250 517 basechar 0
AnchorPoint: "Anchor-8" 457 -9 basechar 0
LayerCount: 2
Fore
SplineSet
447 -9 m 1x9c
 391 -29 311.999 -65.999 311.999 -128.999 c 0
 311.999 -176.999 342.999 -200.999 386.999 -200.999 c 0
 404.999 -200.999 417.999 -198.999 439.999 -192.999 c 1
 439.999 -194.999 l 1
 417.999 -200.999 405.999 -202.999 386.999 -202.999 c 0
 341.999 -202.999 309.999 -177.999 309.999 -128.999 c 0
 309.999 -66.3291 384.219 -30.3789 445.039 -8.34863 c 1xac
 403.879 5.82129 393.109 34.791 392.999 104.881 c 1
 357.989 31.2305 305.18 -9 220 -9 c 0xcc
 123 -9 70 56 70 145 c 0
 70 246 146 304 269 304 c 2
 393 304 l 1
 393 372 l 2
 393 466 357 525 254 525 c 0
 208 525 162 514 107 491 c 1
 106 493 l 1
 161 516 208 527 254 527 c 0
 358 527 395 468 395 372 c 2
 395 110 l 2
 395 37 405 6 448 -7 c 1
 447 -9 l 1x9c
219.999 -6.99902 m 0
 307.189 -6.99902 357.069 34.2314 392.999 108.911 c 1
 392.999 302.001 l 1
 268.999 302.001 l 2
 146.999 302.001 71.999 244.001 71.999 145.001 c 0
 71.999 57.001 123.999 -6.99902 219.999 -6.99902 c 0
EndSplineSet
Substitution2: "'smcp' Lowercase to Small Capitals lookup 24 subtable" aogonek.sc
Substitution2: "'aalt' Access All Alternates lookup 0 subtable" aogonek.sc
EndChar
StartChar: Ccircumflex
Encoding: 264 264 48
Width: 529
GlyphClass: 2
Flags: MW
HStem: -9 21G<264.5 382> 670 20G<266.5 379>
VStem: 85 418<50 458>
AnchorPoint: "Anchor-14" 323 341 basechar 0
AnchorPoint: "Anchor-13" 413 700 basechar 0
AnchorPoint: "Anchor-12" 342 850 basechar 0
AnchorPoint: "Anchor-11" 0 0 basechar 0
AnchorPoint: "Anchor-10" 341 0 basechar 0
LayerCount: 2
Back
Fore
SplineSet
450 770 m 1
 342 848 l 1
 236 770 l 1
 234 771 l 1
 341 850 l 1
 343 850 l 1
 452 771 l 1
 450 770 l 1
342 690 m 0
 416 690 459 664 494 633 c 1
 493 631 l 1
 458 662 415 688 342 688 c 0
 193 688 87 575 87 339 c 0
 87 115 190 -7 341 -7 c 0
 422 -7 470 25 502 52 c 1
 503 50 l 1
 471 23 423 -9 341 -9 c 0
 188 -9 85 114 85 339 c 0
 85 577 191 690 342 690 c 0
EndSplineSet
Substitution2: "'c2sc' Capitals to Small Capitals lookup 26 subtable" ccircumflex.sc
Substitution2: "'aalt' Access All Alternates lookup 0 subtable" ccircumflex.sc
Position2: "'cpsp' Capital Spacing lookup 0 subtable" dx=5 dy=0 dh=10 dv=0
EndChar

StartChar: Cdotaccent
Encoding: 266 266 19
Width: 529
GlyphClass: 2
Flags: MW
HStem: -9 21G<264.5 382> 670 20G<266.5 379> 820 12<341 345>
VStem: 85 418<50 458>
AnchorPoint: "Anchor-11" 341 0 basechar 0
AnchorPoint: "Anchor-10" 0 0 basechar 0
AnchorPoint: "Anchor-9" 343 680 basechar 0
AnchorPoint: "Anchor-8" 0 0 basechar 0
LayerCount: 2
Fore
SplineSet
343 832 m 0
 347 832 349 829 349 826 c 0
 349 823 347 820 343 820 c 0
 339 820 337 823 337 826 c 0
 337 829 339 832 343 832 c 0
342 690 m 0
 416 690 459 664 494 633 c 1
 493 631 l 1
 458 662 415 688 342 688 c 0
 193 688 87 575 87 339 c 0
 87 115 190 -7 341 -7 c 0
 422 -7 470 25 502 52 c 1
 503 50 l 1
 471 23 423 -9 341 -9 c 0
 188 -9 85 114 85 339 c 0
 85 577 191 690 342 690 c 0
EndSplineSet
Substitution2: "'c2sc' Capitals to Small Capitals lookup 23 subtable" cdotaccent.sc
Substitution2: "'aalt' Access All Alternates lookup 0 subtable" cdotaccent.sc
Position2: "'cpsp' Capital Spacing lookup 0 subtable" dx=5 dy=0 dh=10 dv=0
EndChar

StartChar: cdotaccent
Encoding: 267 267 152
Width: 469
GlyphClass: 2
Flags: MW
HStem: -9 21G<222.5 310.5> 507 20G<219 308.5> 694 12<267 271>
VStem: 80 334<44 341>
AnchorPoint: "Anchor-11" 285 -1 basechar 0
AnchorPoint: "Anchor-10" 0 0 basechar 0
AnchorPoint: "Anchor-9" 269 517 basechar 0
AnchorPoint: "Anchor-8" 0 0 basechar 0
LayerCount: 2
Fore
SplineSet
269 706 m 0
 273 706 275 703 275 700 c 0
 275 697 273 694 269 694 c 0
 265 694 263 697 263 700 c 0
 263 703 265 706 269 706 c 0
282 527 m 0
 335 527 375 510 410 477 c 1
 408 476 l 1
 373 509 333 525 282 525 c 0
 158 525 82 424 82 256 c 0
 82 88 166 -7 280 -7 c 0
 339 -7 379 14 412 45 c 1
 414 44 l 1
 381 13 341 -9 280 -9 c 0
 165 -9 80 86 80 256 c 0
 80 426 156 527 282 527 c 0
EndSplineSet
Substitution2: "'smcp' Lowercase to Small Capitals lookup 24 subtable" cdotaccent.sc
Substitution2: "'aalt' Access All Alternates lookup 0 subtable" cdotaccent.sc
EndChar
StartChar: Ccaron
Encoding: 268 268 46
Width: 529
GlyphClass: 2
Flags: MW
HStem: -9 21G<264.5 382> 670 20G<266.5 379>
VStem: 85 418<50 458>
AnchorPoint: "Anchor-14" 323 341 basechar 0
AnchorPoint: "Anchor-13" 0 0 basechar 0
AnchorPoint: "Anchor-12" 345 845 basechar 0
AnchorPoint: "Anchor-11" 0 0 basechar 0
AnchorPoint: "Anchor-10" 341 0 basechar 0
LayerCount: 2
Back
Fore
SplineSet
450 845 m 1
 452 844 l 1
 343 765 l 1
 341 765 l 1
 234 844 l 1
 236 845 l 1
 342 767 l 1
 450 845 l 1
342 690 m 0
 416 690 459 664 494 633 c 1
 493 631 l 1
 458 662 415 688 342 688 c 0
 193 688 87 575 87 339 c 0
 87 115 190 -7 341 -7 c 0
 422 -7 470 25 502 52 c 1
 503 50 l 1
 471 23 423 -9 341 -9 c 0
 188 -9 85 114 85 339 c 0
 85 577 191 690 342 690 c 0
EndSplineSet
Substitution2: "'c2sc' Capitals to Small Capitals lookup 26 subtable" ccaron.sc
Substitution2: "'aalt' Access All Alternates lookup 0 subtable" ccaron.sc
Position2: "'cpsp' Capital Spacing lookup 0 subtable" dx=5 dy=0 dh=10 dv=0
EndChar
StartChar: Dcaron
Encoding: 270 270 57
Width: 613
GlyphClass: 2
Flags: MW
HStem: 0 21G<130 241 130 130> 660 20G<130 234 234 306> 678 89<132 288>
VStem: 130 398<208.5 487 208.5 680 208.5 680>
AnchorPoint: "Anchor-14" 309 340 basechar 0
AnchorPoint: "Anchor-13" 0 0 basechar 0
AnchorPoint: "Anchor-12" 291 845 basechar 0
AnchorPoint: "Anchor-11" 0 0 basechar 0
AnchorPoint: "Anchor-10" 310 0 basechar 0
LayerCount: 2
Back
Fore
SplineSet
396 845 m 1xb0
 398 844 l 1
 289 765 l 1
 287 765 l 1
 180 844 l 1
 182 845 l 1
 288 767 l 1
 396 845 l 1xb0
234 680 m 2xd0
 378 680 528 626 528 348 c 0
 528 69 380 0 241 0 c 2
 130 0 l 1
 130 680 l 1
 234 680 l 2xd0
234 678 m 2
 132 678 l 1
 132 2 l 1
 241 2 l 2
 380 2 526 71 526 348 c 0xb0
 526 624 377 678 234 678 c 2
EndSplineSet
Substitution2: "'c2sc' Capitals to Small Capitals lookup 26 subtable" dcaron.sc
Substitution2: "'aalt' Access All Alternates lookup 0 subtable" dcaron.sc
Position2: "'cpsp' Capital Spacing lookup 0 subtable" dx=5 dy=0 dh=10 dv=0
EndChar

StartChar: dcaron
Encoding: 271 271 155
Width: 572
GlyphClass: 2
Flags: MW
HStem: -9 21G<216 318.07> 0 21G<445 447 445 445> 507 20G<218.5 323.905> 710 20G<445 447 447 447> 717 20G<559 561 561 561>
VStem: 445 97<600 600 600 730>
LayerCount: 2
Fore
SplineSet
561 737 m 1x6c
 542 600 l 1
 540 600 l 1
 559 737 l 1
 561 737 l 1x6c
445 730 m 1xb4
 447 730 l 1xb4
 447 0 l 1
 445 0 l 1x6c
 445 100.24 l 1
 410.1 39.0703 363.14 -9 273 -9 c 0
 159 -9 85 87 85 257 c 0
 85 417 156 527 281 527 c 0
 366.81 527 420.52 473.49 445 424.05 c 1
 445 730 l 1xb4
273 -7 m 0
 363.13 -7 410.101 41.0703 444.99 104.181 c 1
 444.99 420.971 l 1
 418.65 472.36 365.91 525 281 525 c 0
 158 525 87 415 87 257 c 0
 87 89 160 -7 273 -7 c 0
EndSplineSet
Substitution2: "'smcp' Lowercase to Small Capitals lookup 24 subtable" dcaron.sc
Substitution2: "'aalt' Access All Alternates lookup 0 subtable" dcaron.sc
EndChar
StartChar: dcroat
Encoding: 273 273 396
Width: 577
GlyphClass: 2
Flags: MW
HStem: -9 21G<216 318> 0 21G<445 447 445 445> 507 20G<218.5 324> 525 115<265 323.5> 638 92<265 447 445 522 445 447>
VStem: 265 182<0 640 0 640> 445 77<424 640 638 640 638 730>
AnchorPoint: "Anchor-14" 289 259 basechar 0
AnchorPoint: "Anchor-13" 497 727 basechar 0
AnchorPoint: "Anchor-12" 280 727 basechar 0
AnchorPoint: "Anchor-11" 0 0 basechar 0
AnchorPoint: "Anchor-10" 288 0 basechar 0
LayerCount: 2
Back
Fore
SplineSet
447 640 m 1x54
 522 640 l 1
 522 638 l 1x6a
 447 638 l 1
 447 0 l 1
 445 0 l 1x6c
 445 100 l 1xac
 411 39 363 -9 273 -9 c 0
 159 -9 85 87 85 257 c 0
 85 417 156 527 281 527 c 0
 367 527 421 473 445 424 c 1
 445 638 l 1xaa
 265 638 l 1
 265 640 l 1x54
 445 640 l 1x52
 445 730 l 1
 447 730 l 1x6c
 447 640 l 1x54
273 -7 m 0
 363 -7 410 41 445 104 c 1
 445 421 l 1
 419 472 366 525 281 525 c 0x52
 158 525 87 415 87 257 c 0
 87 89 160 -7 273 -7 c 0
EndSplineSet
Substitution2: "'smcp' Lowercase to Small Capitals lookup 27 subtable" dcroat.sc
Substitution2: "'aalt' Access All Alternates lookup 0 subtable" dcroat.sc
EndChar

StartChar: emacron
Encoding: 275 275 165
Width: 528
GlyphClass: 2
Flags: MW
HStem: -9 263<216.5 309.5> 252 275<216 337.5 216 452.001 82.001 337.5> 525 166<216.616 337.001>
VStem: 80 373<281 339.5>
AnchorPoint: "Anchor-11" 276 0 basechar 0
AnchorPoint: "Anchor-10" 0 0 basechar 0
AnchorPoint: "Anchor-9" 276 517 basechar 0
AnchorPoint: "Anchor-8" 364 4 basechar 0
LayerCount: 2
Fore
SplineSet
371 689 m 1xb0
 181 689 l 1
 181 691 l 1
 371 691 l 1
 371 689 l 1xb0
453 288 m 0
 453 274 453.001 266 452.001 252 c 1
 82.001 252 l 1x50
 82.3105 85.6299 159.23 -7 276 -7 c 0
 341 -7 384 14 429 52 c 1
 430 50 l 1
 385 13 343 -9 276 -9 c 0xb0
 157 -9 80 85 80 253 c 0
 80 426 156 527 276 527 c 0x50
 399 527 453 424 453 288 c 0
450.001 254 m 1
 451.001 267 451.001 275 451.001 288 c 0
 451.001 422 398.001 525 276.001 525 c 0
 157.231 525 82.291 424.39 82.001 254 c 1
 450.001 254 l 1
EndSplineSet
Substitution2: "'smcp' Lowercase to Small Capitals lookup 24 subtable" emacron.sc
Substitution2: "'aalt' Access All Alternates lookup 0 subtable" emacron.sc
EndChar
StartChar: Ebreve
Encoding: 276 276 69
Width: 495
GlyphClass: 2
Flags: MW
HStem: 0 21G<130 445 130 130> 360 320<132 392 132 132> 678 98<260 308 260 435>
VStem: 130 315<0 2 0 680>
AnchorPoint: "Anchor-14" 0 0 basechar 0
AnchorPoint: "Anchor-13" 0 0 basechar 0
AnchorPoint: "Anchor-12" 286 835 basechar 0
AnchorPoint: "Anchor-11" 425 0 basechar 0
AnchorPoint: "Anchor-10" 284 0 basechar 0
LayerCount: 2
Back
Fore
SplineSet
284 774 m 0xb0
 229 774 199 805 188 834 c 1
 190 835 l 1
 203 801 236 776 284 776 c 0
 332 776 365 801 378 835 c 1
 380 834 l 1
 369 805 339 774 284 774 c 0xb0
435 680 m 1
 435 678 l 1
 132 678 l 1xb0
 132 362 l 1
 392 362 l 1
 392 360 l 1
 132 360 l 1
 132 2 l 1
 445 2 l 1
 445 0 l 1
 130 0 l 1
 130 680 l 1xd0
 435 680 l 1
EndSplineSet
Substitution2: "'c2sc' Capitals to Small Capitals lookup 26 subtable" ebreve.sc
Substitution2: "'aalt' Access All Alternates lookup 0 subtable" ebreve.sc
Position2: "'cpsp' Capital Spacing lookup 0 subtable" dx=5 dy=0 dh=10 dv=0
EndChar
StartChar: ebreve
Encoding: 277 277 412
Width: 528
GlyphClass: 2
Flags: MW
HStem: -9 263<216.5 309.5> 252 275<216 337.5 216 452 82 337.5> 525 143<252 300 252 337> 717 20G<182 182 370 370>
VStem: 80 373<281 339.5>
AnchorPoint: "Anchor-14" 0 0 basechar 0
AnchorPoint: "Anchor-13" 0 0 basechar 0
AnchorPoint: "Anchor-12" 278 737 basechar 0
AnchorPoint: "Anchor-11" 364 4 basechar 0
AnchorPoint: "Anchor-10" 276 0 basechar 0
LayerCount: 2
Back
Fore
SplineSet
276 666 m 0x58
 221 666 191 698 180 736 c 1
 182 737 l 1
 195 693 228 668 276 668 c 0x38
 324 668 357 693 370 737 c 1
 372 736 l 1
 361 698 331 666 276 666 c 0x58
453 288 m 0
 453 274 453 266 452 252 c 1
 82 252 l 1x58
 82 86 159 -7 276 -7 c 0
 341 -7 384 14 429 52 c 1
 430 50 l 1
 385 13 343 -9 276 -9 c 0x98
 157 -9 80 85 80 253 c 0
 80 426 156 527 276 527 c 0
 399 527 453 424 453 288 c 0
450 254 m 1xb8
 451 267 451 275 451 288 c 0
 451 422 398 525 276 525 c 0
 157 525 82 424 82 254 c 1
 450 254 l 1xb8
EndSplineSet
Substitution2: "'smcp' Lowercase to Small Capitals lookup 27 subtable" ebreve.sc
Substitution2: "'aalt' Access All Alternates lookup 0 subtable" ebreve.sc
EndChar
StartChar: Edotaccent
Encoding: 278 278 80
Width: 495
GlyphClass: 2
Flags: MW
HStem: 0 21G<130 445 130 130> 360 320<132 392 132 132> 820 12<282 286>
VStem: 130 315<0 2 0 680>
AnchorPoint: "Anchor-14" 0 0 basechar 0
AnchorPoint: "Anchor-13" 0 0 basechar 0
AnchorPoint: "Anchor-12" 286 832 basechar 0
AnchorPoint: "Anchor-11" 425 0 basechar 0
AnchorPoint: "Anchor-10" 284 0 basechar 0
LayerCount: 2
Back
Fore
SplineSet
284 832 m 0
 288 832 290 829 290 826 c 0
 290 823 288 820 284 820 c 0
 280 820 278 823 278 826 c 0
 278 829 280 832 284 832 c 0
435 680 m 1
 435 678 l 1
 132 678 l 1
 132 362 l 1
 392 362 l 1
 392 360 l 1
 132 360 l 1
 132 2 l 1
 445 2 l 1
 445 0 l 1
 130 0 l 1
 130 680 l 1
 435 680 l 1
EndSplineSet
Substitution2: "'c2sc' Capitals to Small Capitals lookup 26 subtable" edotaccent.sc
Substitution2: "'aalt' Access All Alternates lookup 0 subtable" edotaccent.sc
Position2: "'cpsp' Capital Spacing lookup 0 subtable" dx=5 dy=0 dh=10 dv=0
EndChar
StartChar: Eogonek
Encoding: 280 280 86
Width: 495
GlyphClass: 2
Flags: MW
HStem: -194 196<332.5 364.5> 0 21G<130 411 130 130 415 445 415 415> 360 320<132 392 132 132>
VStem: 130 150<-144 680>
AnchorPoint: "Anchor-14" 0 0 basechar 0
AnchorPoint: "Anchor-13" 0 0 basechar 0
AnchorPoint: "Anchor-12" 284 680 basechar 0
AnchorPoint: "Anchor-11" 425 0 basechar 0
AnchorPoint: "Anchor-10" 284 0 basechar 0
LayerCount: 2
Back
Fore
SplineSet
132 2 m 1xb0
 445 2 l 1
 445 0 l 1
 415 0 l 1x70
 359 -20 280 -57 280 -120 c 0
 280 -168 311 -192 355 -192 c 0
 373 -192 386 -190 408 -184 c 1
 408 -186 l 1
 386 -192 374 -194 355 -194 c 0
 310 -194 278 -169 278 -120 c 0xb0
 278 -58 351 -22 411 0 c 1
 130 0 l 1x70
 130 680 l 1
 435 680 l 1
 435 678 l 1
 132 678 l 1
 132 362 l 1
 392 362 l 1
 392 360 l 1
 132 360 l 1
 132 2 l 1xb0
EndSplineSet
Substitution2: "'c2sc' Capitals to Small Capitals lookup 26 subtable" eogonek.sc
Substitution2: "'aalt' Access All Alternates lookup 0 subtable" eogonek.sc
Position2: "'cpsp' Capital Spacing lookup 0 subtable" dx=5 dy=0 dh=10 dv=0
EndChar

StartChar: eogonek
Encoding: 281 281 166
Width: 528
GlyphClass: 2
Flags: MW
HStem: -190 182.99 -9 262.99 -2.66002 21G 251.99 275.01
VStem: 80 373<281 339.5>
AnchorPoint: "Anchor-11" 276 0 basechar 0
AnchorPoint: "Anchor-10" 0 0 basechar 0
AnchorPoint: "Anchor-9" 276 517 basechar 0
AnchorPoint: "Anchor-8" 364 4 basechar 0
LayerCount: 2
Fore
SplineSet
453 288 m 0x38
 453 274 453.001 265.99 452.001 251.99 c 1
 82.001 251.99 l 1
 82.3105 85.6201 159.23 -7.00977 276 -7.00977 c 0
 341 -7.00977 384 13.9902 429 51.9902 c 1
 430 49.9902 l 1
 402.79 27.6201 376.68 10.7305 345.47 0.880859 c 1
 290.33 -19.7588 219 -56.1387 219 -115.999 c 0
 219 -163.999 250 -187.999 294 -187.999 c 0
 312 -187.999 325 -185.999 347 -179.999 c 1
 347 -181.999 l 1
 325 -187.999 313 -189.999 294 -189.999 c 0
 249 -189.999 217 -164.999 217 -115.999 c 0x98
 217 -59.8193 276.64 -25.1094 332.8 -2.65918 c 1
 315.77 -6.80957 297.13 -9 276 -9 c 0x48
 157 -9 80 85 80 253 c 0
 80 426 156 527 276 527 c 0
 399 527 453 424 453 288 c 0x38
450.001 253.99 m 1x48
 451.001 266.99 451.001 274.99 451.001 287.99 c 0
 451.001 421.99 398.001 524.99 276.001 524.99 c 0
 157.231 524.99 82.291 424.391 82.001 253.99 c 1
 450.001 253.99 l 1x48
EndSplineSet
Substitution2: "'smcp' Lowercase to Small Capitals lookup 24 subtable" eogonek.sc
Substitution2: "'aalt' Access All Alternates lookup 0 subtable" eogonek.sc
EndChar

StartChar: Ecaron
Encoding: 282 282 27
Width: 495
GlyphClass: 2
Flags: MW
HStem: 0 21G<130 445 130 130> 360 320<132 392 132 132> 678 89<286 286 286 435>
VStem: 130 315<0 2 0 680>
AnchorPoint: "Anchor-11" 284 0 basechar 0
AnchorPoint: "Anchor-10" 80 680 basechar 0
AnchorPoint: "Anchor-9" 284 680 basechar 0
AnchorPoint: "Anchor-8" 425 0 basechar 0
LayerCount: 2
Fore
SplineSet
396 844 m 1xb0
 287 765 l 1
 285 765 l 1
 178 844 l 1
 180 845 l 1
 286 767 l 1
 394 845 l 1
 396 844 l 1xb0
435 678 m 1
 132 678 l 1xb0
 132 362 l 1
 392 362 l 1
 392 360 l 1
 132 360 l 1
 132 2 l 1
 445 2 l 1
 445 0 l 1
 130 0 l 1
 130 680 l 1xd0
 435 680 l 1
 435 678 l 1
EndSplineSet
Substitution2: "'c2sc' Capitals to Small Capitals lookup 23 subtable" ecaron.sc
Substitution2: "'aalt' Access All Alternates lookup 0 subtable" ecaron.sc
Position2: "'cpsp' Capital Spacing lookup 0 subtable" dx=5 dy=0 dh=10 dv=0
EndChar

StartChar: ecaron
Encoding: 283 283 160
Width: 528
GlyphClass: 2
Flags: MW
HStem: -9 263<216.5 309.5> 252 275<216 337.5 216 452.001 82.001 337.5> 713 20G<172 172 386 386>
VStem: 80 373<281 339.5>
AnchorPoint: "Anchor-11" 276 0 basechar 0
AnchorPoint: "Anchor-10" 0 0 basechar 0
AnchorPoint: "Anchor-9" 276 517 basechar 0
AnchorPoint: "Anchor-8" 364 4 basechar 0
LayerCount: 2
Fore
SplineSet
277 648 m 1x70
 170 732 l 1
 172 733 l 1
 278 650 l 1
 386 733 l 1
 388 732 l 1
 279 648 l 1
 277 648 l 1x70
453 288 m 0
 453 274 453.001 266 452.001 252 c 1
 82.001 252 l 1x70
 82.3105 85.6299 159.23 -7 276 -7 c 0
 341 -7 384 14 429 52 c 1
 430 50 l 1
 385 13 343 -9 276 -9 c 0xb0
 157 -9 80 85 80 253 c 0
 80 426 156 527 276 527 c 0
 399 527 453 424 453 288 c 0
450.001 254 m 1xb0
 451.001 267 451.001 275 451.001 288 c 0
 451.001 422 398.001 525 276.001 525 c 0
 157.231 525 82.291 424.39 82.001 254 c 1
 450.001 254 l 1xb0
EndSplineSet
Substitution2: "'smcp' Lowercase to Small Capitals lookup 24 subtable" ecaron.sc
Substitution2: "'aalt' Access All Alternates lookup 0 subtable" ecaron.sc
EndChar

StartChar: Gcircumflex
Encoding: 284 284 37
Width: 599
GlyphClass: 2
Flags: MW
HStem: -9 21G<271.5 388> 670 20G<280 374>
VStem: 366 153<340 342 39 342>
AnchorPoint: "Anchor-11" 338 0 basechar 0
AnchorPoint: "Anchor-10" 0 0 basechar 0
AnchorPoint: "Anchor-9" 337 680 basechar 0
AnchorPoint: "Anchor-8" 0 0 basechar 0
LayerCount: 2
Fore
SplineSet
336 848 m 1
 230 770 l 1
 228 771 l 1
 335 850 l 1
 337 850 l 1
 446 771 l 1
 444 770 l 1
 336 848 l 1
343 690 m 0
 405 690 452 671 500 635 c 1
 499 633 l 1
 452 669 404 688 343 688 c 0
 218 688 87 580 87 345 c 0
 87 116 190 -7 353 -7 c 0
 424 -7 479 17 517 40 c 1
 517 340 l 1
 366 340 l 1
 366 342 l 1
 519 342 l 1
 519 39 l 1
 479 15 423 -9 353 -9 c 0
 190 -9 85 114 85 345 c 0
 85 582 217 690 343 690 c 0
EndSplineSet
Substitution2: "'c2sc' Capitals to Small Capitals lookup 23 subtable" gcircumflex.sc
Substitution2: "'aalt' Access All Alternates lookup 0 subtable" gcircumflex.sc
Position2: "'cpsp' Capital Spacing lookup 0 subtable" dx=5 dy=0 dh=10 dv=0
EndChar
StartChar: gcircumflex
Encoding: 285 285 456
Width: 487
GlyphClass: 2
Flags: MW
HStem: -192 248<217 308 308 319.5> 54 142<208 217 217 299 208 308> 507 20G<193 319>
VStem: 55 407
AnchorPoint: "Anchor-14" 0 0 basechar 0
AnchorPoint: "Anchor-13" 0 0 basechar 0
AnchorPoint: "Anchor-12" 246 745 basechar 0
AnchorPoint: "Anchor-11" 0 0 basechar 0
AnchorPoint: "Anchor-10" 252 -188 basechar 0
LayerCount: 2
Back
Fore
SplineSet
137 660 m 1xb0
 135 661 l 1
 244 745 l 1
 246 745 l 1
 353 661 l 1
 351 660 l 1
 245 743 l 1
 137 660 l 1xb0
462 544 m 1
 462 542 l 1
 428 532 378 525 272 525 c 1
 371 513 419 445 419 356 c 0
 419 252 351 194 249 194 c 0
 217 194 189 202 164 214 c 1
 132 194 108 165 108 128 c 0
 108 83 144 56 217 56 c 2
 308 56 l 2
 400 56 452 10 452 -59 c 0
 452 -146 387 -192 252 -192 c 0xb0
 115 -192 55 -158 55 -60 c 1
 57 -60 l 1
 57 -157 117 -190 252 -190 c 0
 385 -190 450 -145 450 -59 c 0
 450 10 397 54 308 54 c 2
 217 54 l 2
 143 54 106 82 106 128 c 0x70
 106 168 132 195 162 215 c 1
 112 241 75 286 75 357 c 0
 75 460 145 527 241 527 c 0
 397 527 424 534 462 544 c 1
241 525 m 0
 143 525 77 455 77 357 c 0
 77 250 167 196 249 196 c 0x70
 349 196 417 253 417 356 c 0
 417 481 329 525 241 525 c 0
EndSplineSet
Substitution2: "'smcp' Lowercase to Small Capitals lookup 27 subtable" gcircumflex.sc
Substitution2: "'aalt' Access All Alternates lookup 0 subtable" gcircumflex.sc
EndChar

StartChar: Gbreve
Encoding: 286 286 36
Width: 599
GlyphClass: 2
Flags: MW
HStem: -9 21G<271.5 388> 670 20G<280 374> 688 86<309.5 364.5 309.5 373.5>
VStem: 366 153<340 342 39 342>
AnchorPoint: "Anchor-11" 338 0 basechar 0
AnchorPoint: "Anchor-10" 0 0 basechar 0
AnchorPoint: "Anchor-9" 337 680 basechar 0
AnchorPoint: "Anchor-8" 0 0 basechar 0
LayerCount: 2
Fore
SplineSet
337 776 m 0xb0
 289 776 256 801 243 835 c 1
 241 834 l 1
 252 805 282 774 337 774 c 0
 392 774 422 805 433 834 c 1
 431 835 l 1
 418 801 385 776 337 776 c 0xb0
343 690 m 0xd0
 405 690 452 671 500 635 c 1
 499 633 l 1
 452 669 404 688 343 688 c 0xb0
 218 688 87 580 87 345 c 0
 87 116 190 -7 353 -7 c 0
 424 -7 479 17 517 40 c 1
 517 340 l 1
 366 340 l 1
 366 342 l 1
 519 342 l 1
 519 39 l 1
 479 15 423 -9 353 -9 c 0
 190 -9 85 114 85 345 c 0
 85 582 217 690 343 690 c 0xd0
EndSplineSet
Substitution2: "'c2sc' Capitals to Small Capitals lookup 23 subtable" gbreve.sc
Substitution2: "'aalt' Access All Alternates lookup 0 subtable" gbreve.sc
Position2: "'cpsp' Capital Spacing lookup 0 subtable" dx=5 dy=0 dh=10 dv=0
EndChar
StartChar: gbreve
Encoding: 287 287 454
Width: 487
GlyphClass: 2
Flags: MW
HStem: -192 248<217 308 308 319.5> 54 142<208 217 217 299 208 308> 507 20G<193 319> 525 143<220 268 220 285 220 325> 717 20G<150 150 338 338>
VStem: 55 407
AnchorPoint: "Anchor-14" 0 0 basechar 0
AnchorPoint: "Anchor-13" 0 0 basechar 0
AnchorPoint: "Anchor-12" 246 737 basechar 0
AnchorPoint: "Anchor-11" 0 0 basechar 0
AnchorPoint: "Anchor-10" 252 -188 basechar 0
LayerCount: 2
Back
Fore
SplineSet
244 666 m 0xac
 189 666 159 698 148 736 c 1
 150 737 l 1
 163 693 196 668 244 668 c 0x9c
 292 668 325 693 338 737 c 1
 340 736 l 1
 329 698 299 666 244 666 c 0xac
462 544 m 1x9c
 462 542 l 1x9c
 428 532 378 525 272 525 c 1
 371 513 419 445 419 356 c 0
 419 252 351 194 249 194 c 0
 217 194 189 202 164 214 c 1
 132 194 108 165 108 128 c 0
 108 83 144 56 217 56 c 2
 308 56 l 2
 400 56 452 10 452 -59 c 0
 452 -146 387 -192 252 -192 c 0xac
 115 -192 55 -158 55 -60 c 1
 57 -60 l 1
 57 -157 117 -190 252 -190 c 0
 385 -190 450 -145 450 -59 c 0
 450 10 397 54 308 54 c 2
 217 54 l 2
 143 54 106 82 106 128 c 0
 106 168 132 195 162 215 c 1
 112 241 75 286 75 357 c 0
 75 460 145 527 241 527 c 0x6c
 397 527 424 534 462 544 c 1x9c
241 525 m 0
 143 525 77 455 77 357 c 0
 77 250 167 196 249 196 c 0x6c
 349 196 417 253 417 356 c 0
 417 481 329 525 241 525 c 0
EndSplineSet
Substitution2: "'smcp' Lowercase to Small Capitals lookup 27 subtable" gbreve.sc
Substitution2: "'aalt' Access All Alternates lookup 0 subtable" gbreve.sc
EndChar

StartChar: Gdotaccent
Encoding: 288 288 39
Width: 599
GlyphClass: 2
Flags: MW
HStem: -9 21G<271.5 388> 670 20G<280 374> 820 12<335 339>
VStem: 366 153<340 342 39 342>
AnchorPoint: "Anchor-11" 338 0 basechar 0
AnchorPoint: "Anchor-10" 0 0 basechar 0
AnchorPoint: "Anchor-9" 337 680 basechar 0
AnchorPoint: "Anchor-8" 0 0 basechar 0
LayerCount: 2
Fore
SplineSet
337 832 m 0
 341 832 343 829 343 826 c 0
 343 823 341 820 337 820 c 0
 333 820 331 823 331 826 c 0
 331 829 333 832 337 832 c 0
343 690 m 0
 405 690 452 671 500 635 c 1
 499 633 l 1
 452 669 404 688 343 688 c 0
 218 688 87 580 87 345 c 0
 87 116 190 -7 353 -7 c 0
 424 -7 479 17 517 40 c 1
 517 340 l 1
 366 340 l 1
 366 342 l 1
 519 342 l 1
 519 39 l 1
 479 15 423 -9 353 -9 c 0
 190 -9 85 114 85 345 c 0
 85 582 217 690 343 690 c 0
EndSplineSet
Substitution2: "'c2sc' Capitals to Small Capitals lookup 23 subtable" gdotaccent.sc
Substitution2: "'aalt' Access All Alternates lookup 0 subtable" gdotaccent.sc
Position2: "'cpsp' Capital Spacing lookup 0 subtable" dx=5 dy=0 dh=10 dv=0
EndChar

StartChar: gdotaccent
Encoding: 289 289 172
Width: 487
GlyphClass: 2
Flags: MW
HStem: -192 248<217 308 308 319.5> 54 142<208 217 217 299 208 308> 507 20G<193 319> 694 12<244 248>
VStem: 55 407
AnchorPoint: "Anchor-11" 246 0 basechar 0
AnchorPoint: "Anchor-10" 0 0 basechar 0
AnchorPoint: "Anchor-9" 246 517 basechar 0
AnchorPoint: "Anchor-8" 0 0 basechar 0
LayerCount: 2
Fore
SplineSet
246 706 m 0xb8
 250 706 252 703 252 700 c 0
 252 697 250 694 246 694 c 0
 242 694 240 697 240 700 c 0
 240 703 242 706 246 706 c 0xb8
462 542 m 1
 428 532 378 525 272 525 c 1
 371 513 419 445 419 356 c 0
 419 252 351 194 249 194 c 0
 217 194 189 202 164 214 c 1
 132 194 108 165 108 128 c 0
 108 83 144 56 217 56 c 2
 308 56 l 2
 400 56 452 10 452 -59 c 0
 452 -146 387 -192 252 -192 c 0xb8
 115 -192 55 -158 55 -60 c 1
 57 -60 l 1
 57 -157 117 -190 252 -190 c 0
 385 -190 450 -145 450 -59 c 0
 450 10 397 54 308 54 c 2
 217 54 l 2
 143 54 106 82 106 128 c 0x78
 106 168 132 195 162 215 c 1
 112 241 75 286 75 357 c 0
 75 460 145 527 241 527 c 0
 397 527 424 534 462 544 c 1
 462 542 l 1
241 525 m 0
 143 525 77 455 77 357 c 0
 77 250 167 196 249 196 c 0x78
 349 196 417 253 417 356 c 0
 417 481 329 525 241 525 c 0
EndSplineSet
Substitution2: "'smcp' Lowercase to Small Capitals lookup 24 subtable" gdotaccent.sc
Substitution2: "'aalt' Access All Alternates lookup 0 subtable" gdotaccent.sc
EndChar

StartChar: Gcommaaccent
Encoding: 290 290 38
Width: 599
GlyphClass: 2
Flags: MW
HStem: -117 10<346 348> -9 21G<271.5 388> 670 20G<280 374>
VStem: 342 10<-113 -110.5 -113 -110.5> 366 153<340 342 39 342>
AnchorPoint: "Anchor-11" 338 0 basechar 0
AnchorPoint: "Anchor-10" 0 0 basechar 0
AnchorPoint: "Anchor-9" 337 680 basechar 0
AnchorPoint: "Anchor-8" 0 0 basechar 0
LayerCount: 2
Fore
SplineSet
343 690 m 0
 405 690 452 671 500 635 c 1
 499 633 l 1
 452 669 404 688 343 688 c 0
 218 688 87 580 87 345 c 0
 87 116 190 -7 353 -7 c 0
 424 -7 479 17 517 40 c 1
 517 340 l 1
 366 340 l 1
 366 342 l 1
 519 342 l 1
 519 39 l 1xf8
 479 15 423 -9 353 -9 c 0
 190 -9 85 114 85 345 c 0
 85 582 217 690 343 690 c 0
347 -107 m 0
 350 -107 352 -109 352 -112 c 0
 352 -114 352 -115 351 -120 c 2
 326 -239 l 1
 325 -239 l 1
 348 -117 l 1
 344 -117 342 -115 342 -112 c 0
 342 -109 344 -107 347 -107 c 0
EndSplineSet
Substitution2: "'c2sc' Capitals to Small Capitals lookup 23 subtable" gcommaaccent.sc
Substitution2: "'aalt' Access All Alternates lookup 0 subtable" gcommaaccent.sc
Position2: "'cpsp' Capital Spacing lookup 0 subtable" dx=5 dy=0 dh=10 dv=0
EndChar

StartChar: gcommaaccent
Encoding: 291 291 171
Width: 487
GlyphClass: 2
Flags: MW
HStem: -192 248<217 308 308 319.5> 54 142<208 217 217 299 208 308> 507 20G<193 319> 624 10<236 238 236 238.5>
VStem: 232 10<627.5 630>
AnchorPoint: "Anchor-11" 246 0 basechar 0
AnchorPoint: "Anchor-10" 0 0 basechar 0
AnchorPoint: "Anchor-9" 246 517 basechar 0
AnchorPoint: "Anchor-8" 0 0 basechar 0
LayerCount: 2
Fore
SplineSet
237 624 m 0xb8
 234 624 232 626 232 629 c 0
 232 631 232 632 233 637 c 2
 258 756 l 1
 259 756 l 1
 236 634 l 1
 240 634 242 632 242 629 c 0
 242 626 240 624 237 624 c 0xb8
462 542 m 1
 428 532 378 525 272 525 c 1
 371 513 419 445 419 356 c 0
 419 252 351 194 249 194 c 0
 217 194 189 202 164 214 c 1
 132 194 108 165 108 128 c 0
 108 83 144 56 217 56 c 2
 308 56 l 2
 400 56 452 10 452 -59 c 0
 452 -146 387 -192 252 -192 c 0xb8
 115 -192 55 -158 55 -60 c 1
 57 -60 l 1
 57 -157 117 -190 252 -190 c 0
 385 -190 450 -145 450 -59 c 0
 450 10 397 54 308 54 c 2
 217 54 l 2
 143 54 106 82 106 128 c 0x78
 106 168 132 195 162 215 c 1
 112 241 75 286 75 357 c 0
 75 460 145 527 241 527 c 0
 397 527 424 534 462 544 c 1
 462 542 l 1
241 525 m 0
 143 525 77 455 77 357 c 0
 77 250 167 196 249 196 c 0x78
 349 196 417 253 417 356 c 0
 417 481 329 525 241 525 c 0
EndSplineSet
Substitution2: "'smcp' Lowercase to Small Capitals lookup 24 subtable" gcommaaccent.sc
Substitution2: "'aalt' Access All Alternates lookup 0 subtable" gcommaaccent.sc
EndChar

StartChar: Hcircumflex
Encoding: 292 292 42
Width: 654
GlyphClass: 2
Flags: MW
HStem: 0 21G<130 132 130 130 522 522 522 524> 660 20G<130 132 132 132 522 524 524 524>
VStem: 130 394<0 680 0 680>
AnchorPoint: "Anchor-11" 0 0 basechar 0
AnchorPoint: "Anchor-10" 80 680 basechar 0
AnchorPoint: "Anchor-9" 326 680 basechar 0
AnchorPoint: "Anchor-8" 0 0 basechar 0
LayerCount: 2
Fore
SplineSet
325 848 m 1
 219 770 l 1
 217 771 l 1
 324 850 l 1
 326 850 l 1
 435 771 l 1
 433 770 l 1
 325 848 l 1
522 360 m 1
 132 360 l 1
 132 0 l 1
 130 0 l 1
 130 680 l 1
 132 680 l 1
 132 362 l 1
 522 362 l 1
 522 680 l 1
 524 680 l 1
 524 0 l 1
 522 0 l 1
 522 360 l 1
EndSplineSet
Substitution2: "'c2sc' Capitals to Small Capitals lookup 23 subtable" hcircumflex.sc
Substitution2: "'aalt' Access All Alternates lookup 0 subtable" hcircumflex.sc
Position2: "'cpsp' Capital Spacing lookup 0 subtable" dx=5 dy=0 dh=10 dv=0
EndChar
StartChar: hcircumflex
Encoding: 293 293 472
Width: 580
GlyphClass: 2
Flags: MW
HStem: 0 21G<125 127 125 125 458 460 458 458> 507 20G<282.5 373> 710 20G<125 127 127 127>
VStem: 125 335<0 368 0 730>
AnchorPoint: "Anchor-14" 293 260 basechar 0
AnchorPoint: "Anchor-13" 363 747 basechar 0
AnchorPoint: "Anchor-12" 292 897 basechar 0
AnchorPoint: "Anchor-11" 0 0 basechar 0
AnchorPoint: "Anchor-10" 293 0 basechar 0
LayerCount: 2
Back
Fore
SplineSet
292 895 m 1
 186 817 l 1
 184 818 l 1
 291 897 l 1
 293 897 l 1
 402 818 l 1
 400 817 l 1
 292 895 l 1
326 527 m 0
 420 527 460 465 460 368 c 2
 460 0 l 1
 458 0 l 1
 458 368 l 2
 458 464 419 525 326 525 c 0
 239 525 175 473 127 387 c 1
 127 0 l 1
 125 0 l 1
 125 730 l 1
 127 730 l 1
 127 391 l 1
 175 476 239 527 326 527 c 0
EndSplineSet
Substitution2: "'smcp' Lowercase to Small Capitals lookup 27 subtable" hcircumflex.sc
Substitution2: "'aalt' Access All Alternates lookup 0 subtable" hcircumflex.sc
EndChar

StartChar: Hbar
Encoding: 294 294 41
Width: 668
GlyphClass: 2
Flags: MW
HStem: 0 21G<138 140 138 138 530 532 530 530> 360 168<140 530 85 140> 526 154<85 140 85 140 138 140 138 530>
VStem: 85 55<526 526 528 528> 530 53<362 526 526 526 526 680>
AnchorPoint: "Anchor-11" 0 0 basechar 0
AnchorPoint: "Anchor-10" 88 680 basechar 0
AnchorPoint: "Anchor-9" 334 680 basechar 0
AnchorPoint: "Anchor-8" 0 0 basechar 0
LayerCount: 2
Fore
SplineSet
583 526 m 1xb8
 532 526 l 1xb8
 532 0 l 1
 530 0 l 1
 530 360 l 1
 140 360 l 1xd8
 140 0 l 1
 138 0 l 1
 138 526 l 1xb8
 85 526 l 1
 85 528 l 1
 138 528 l 1xd8
 138 680 l 1
 140 680 l 1xb8
 140 528 l 1
 530 528 l 1xd8
 530 680 l 1
 532 680 l 1xb8
 532 528 l 1xd8
 583 528 l 1
 583 526 l 1xb8
530 526 m 1
 140 526 l 1
 140 362 l 1
 530 362 l 1
 530 526 l 1
EndSplineSet
Substitution2: "'c2sc' Capitals to Small Capitals lookup 23 subtable" hbar.sc
Substitution2: "'aalt' Access All Alternates lookup 0 subtable" hbar.sc
Position2: "'cpsp' Capital Spacing lookup 0 subtable" dx=5 dy=0 dh=10 dv=0
EndChar

StartChar: hbar
Encoding: 295 295 174
Width: 585
GlyphClass: 2
Flags: MW
HStem: 0 21G 507 20G<287.305 378> 525 115 638 92
VStem: 55 77 130 335
AnchorPoint: "Anchor-11" 290 0 basechar 0
AnchorPoint: "Anchor-10" 0 0 basechar 0
AnchorPoint: "Anchor-9" 290 727 basechar 0
AnchorPoint: "Anchor-8" 0 0 basechar 0
LayerCount: 2
Fore
SplineSet
331 527 m 0xd4
 425 527 465.001 464.999 465.001 367.999 c 2
 465.001 -0.000976562 l 1
 463.001 -0.000976562 l 1
 463.001 367.999 l 2
 463.001 463.999 424.001 524.999 331.001 524.999 c 0xa4
 244.001 524.999 180.001 472.999 132.001 386.999 c 1
 132.001 -0.000976562 l 1
 130.001 -0.000976562 l 1
 130.001 637.999 l 1xd4
 55.001 637.999 l 1
 55.001 639.999 l 1xa8
 130.001 639.999 l 1xa4
 130.001 729.999 l 1
 132.001 729.999 l 1xd8
 132.001 639.999 l 1xa8
 323.001 639.999 l 1
 323.001 637.999 l 1xd4
 132.001 637.999 l 1
 132.001 390.779 l 1xd8
 179.891 475.72 243.61 527 331 527 c 0xd4
EndSplineSet
Substitution2: "'smcp' Lowercase to Small Capitals lookup 24 subtable" hbar.sc
Substitution2: "'aalt' Access All Alternates lookup 0 subtable" hbar.sc
EndChar

StartChar: Itilde
Encoding: 296 296 53
Width: 262
GlyphClass: 2
Flags: MW
HStem: 0 21G<130 132 130 130> 660 20G<130 132 132 132> 814 42
VStem: 9 243<822 850>
AnchorPoint: "Anchor-11" 0 0 basechar 0
AnchorPoint: "Anchor-10" 80 680 basechar 0
AnchorPoint: "Anchor-9" 131 680 basechar 0
AnchorPoint: "Anchor-8" 142 0 basechar 0
LayerCount: 2
Fore
SplineSet
188 814 m 0
 145 814 110 858 75 858 c 0
 47 858 32 847 9 822 c 1
 11 821 l 1
 33 845 48 856 75 856 c 0
 108 856 145 812 188 812 c 0
 215 812 231 823 252 850 c 1
 250 851 l 1
 230 825 214 814 188 814 c 0
132 0 m 1
 130 0 l 1
 130 680 l 1
 132 680 l 1
 132 0 l 1
EndSplineSet
Substitution2: "'c2sc' Capitals to Small Capitals lookup 23 subtable" itilde.sc
Substitution2: "'aalt' Access All Alternates lookup 0 subtable" itilde.sc
Position2: "'cpsp' Capital Spacing lookup 0 subtable" dx=5 dy=0 dh=10 dv=0
EndChar

StartChar: itilde
Encoding: 297 297 187
Width: 252
GlyphClass: 2
Flags: MW
HStem: 0 21G<125 127 125 125> 497 20G<125 127 127 127> 666 20G<164.5 199.5> 710 20G<59.5 89.5>
VStem: 7 243<696 724>
AnchorPoint: "Anchor-11" 0 0 basechar 0
AnchorPoint: "Anchor-10" 0 0 basechar 0
AnchorPoint: "Anchor-9" 126 517 basechar 0
AnchorPoint: "Anchor-8" 137 0 basechar 0
LayerCount: 2
Fore
SplineSet
186 688 m 0
 143 688 108 732 73 732 c 0
 45 732 30 721 7 696 c 1
 9 695 l 1
 31 719 46 730 73 730 c 0
 106 730 143 686 186 686 c 0
 213 686 229 697 250 724 c 1
 248 725 l 1
 228 699 212 688 186 688 c 0
127 0 m 1
 125 0 l 1
 125 517 l 1
 127 517 l 1
 127 0 l 1
EndSplineSet
Substitution2: "'smcp' Lowercase to Small Capitals lookup 24 subtable" itilde.sc
Substitution2: "'aalt' Access All Alternates lookup 0 subtable" itilde.sc
EndChar

StartChar: Imacron
Encoding: 298 298 51
Width: 262
GlyphClass: 2
Flags: MW
HStem: 0 21G<130 132 130 130> 660 20G<130 132 132 132>
VStem: 36 190<815 817 815 817>
AnchorPoint: "Anchor-11" 0 0 basechar 0
AnchorPoint: "Anchor-10" 80 680 basechar 0
AnchorPoint: "Anchor-9" 131 680 basechar 0
AnchorPoint: "Anchor-8" 142 0 basechar 0
LayerCount: 2
Fore
SplineSet
36 815 m 1
 36 817 l 1
 226 817 l 1
 226 815 l 1
 36 815 l 1
132 0 m 1
 130 0 l 1
 130 680 l 1
 132 680 l 1
 132 0 l 1
EndSplineSet
Substitution2: "'c2sc' Capitals to Small Capitals lookup 23 subtable" imacron.sc
Substitution2: "'aalt' Access All Alternates lookup 0 subtable" imacron.sc
Position2: "'cpsp' Capital Spacing lookup 0 subtable" dx=5 dy=0 dh=10 dv=0
EndChar
StartChar: imacron
Encoding: 299 299 493
Width: 252
GlyphClass: 2
Flags: MW
HStem: 0 21G<125 127 125 125> 497 20G<125 127 127 127> 671 20G<31 221 221 221>
VStem: 31 190<689 691 689 691>
AnchorPoint: "Anchor-14" 0 0 basechar 0
AnchorPoint: "Anchor-13" 0 0 basechar 0
AnchorPoint: "Anchor-12" 128 691 basechar 0
AnchorPoint: "Anchor-11" 137 0 basechar 0
AnchorPoint: "Anchor-10" 126 0 basechar 0
LayerCount: 2
Back
Fore
SplineSet
221 689 m 1
 31 689 l 1
 31 691 l 1
 221 691 l 1
 221 689 l 1
127 517 m 1
 127 0 l 1
 125 0 l 1
 125 517 l 1
 127 517 l 1
EndSplineSet
Substitution2: "'smcp' Lowercase to Small Capitals lookup 27 subtable" imacron.sc
Substitution2: "'aalt' Access All Alternates lookup 0 subtable" imacron.sc
EndChar

StartChar: Ibreve
Encoding: 300 300 46
Width: 262
GlyphClass: 2
Flags: MW
HStem: 0 21G<130 132 130 130> 660 20G<130 132 132 132>
VStem: 35 192<834 834>
AnchorPoint: "Anchor-11" 0 0 basechar 0
AnchorPoint: "Anchor-10" 80 680 basechar 0
AnchorPoint: "Anchor-9" 131 680 basechar 0
AnchorPoint: "Anchor-8" 142 0 basechar 0
LayerCount: 2
Fore
SplineSet
131 776 m 0
 83 776 50 801 37 835 c 1
 35 834 l 1
 46 805 76 774 131 774 c 0
 186 774 216 805 227 834 c 1
 225 835 l 1
 212 801 179 776 131 776 c 0
132 0 m 1
 130 0 l 1
 130 680 l 1
 132 680 l 1
 132 0 l 1
EndSplineSet
Substitution2: "'c2sc' Capitals to Small Capitals lookup 23 subtable" ibreve.sc
Substitution2: "'aalt' Access All Alternates lookup 0 subtable" ibreve.sc
Position2: "'cpsp' Capital Spacing lookup 0 subtable" dx=5 dy=0 dh=10 dv=0
EndChar

StartChar: ibreve
Encoding: 301 301 179
Width: 252
GlyphClass: 2
Flags: MW
HStem: 0 21G<125 127 125 125> 497 20G<125 127 127 127> 716 20G<30 30 222 222>
VStem: 30 192<736 736>
AnchorPoint: "Anchor-11" 0 0 basechar 0
AnchorPoint: "Anchor-10" 0 0 basechar 0
AnchorPoint: "Anchor-9" 126 517 basechar 0
AnchorPoint: "Anchor-8" 137 0 basechar 0
LayerCount: 2
Fore
SplineSet
126 668 m 0
 78 668 45 693 32 737 c 1
 30 736 l 1
 41 698 71 666 126 666 c 0
 181 666 211 698 222 736 c 1
 220 737 l 1
 207 693 174 668 126 668 c 0
127 0 m 1
 125 0 l 1
 125 517 l 1
 127 517 l 1
 127 0 l 1
EndSplineSet
Substitution2: "'smcp' Lowercase to Small Capitals lookup 24 subtable" ibreve.sc
Substitution2: "'aalt' Access All Alternates lookup 0 subtable" ibreve.sc
EndChar

StartChar: Iogonek
Encoding: 302 302 52
Width: 262
GlyphClass: 2
Flags: MW
HStem: -194 21G 0 21G<132 132> 660 20G<130 132 132 132>
VStem: -5 137<-144.501 0>
AnchorPoint: "Anchor-11" 0 0 basechar 0
AnchorPoint: "Anchor-10" 80 680 basechar 0
AnchorPoint: "Anchor-9" 131 680 basechar 0
AnchorPoint: "Anchor-8" 142 0 basechar 0
LayerCount: 2
Fore
SplineSet
132 0 m 1
 76 -20 -3 -57.001 -3 -120.001 c 0
 -3 -168.001 28 -192.001 72 -192.001 c 0
 90 -192.001 103 -190.001 125 -184.001 c 1
 125 -186.001 l 1
 103 -192.001 91 -194.001 72 -194.001 c 0
 27 -194.001 -5 -169.001 -5 -120.001 c 0
 -5 -57.3408 69.1797 -21.3906 130 0.639648 c 1
 130 680 l 1
 132 680 l 1
 132 0 l 1
EndSplineSet
Substitution2: "'c2sc' Capitals to Small Capitals lookup 23 subtable" iogonek.sc
Substitution2: "'aalt' Access All Alternates lookup 0 subtable" iogonek.sc
Position2: "'cpsp' Capital Spacing lookup 0 subtable" dx=5 dy=0 dh=10 dv=0
EndChar
StartChar: iogonek
Encoding: 303 303 494
Width: 252
GlyphClass: 2
Flags: MW
HStem: -194 21G<44.5 76.5> 0 21G<127 127> 497 20G<125 127 127 127> 694 12<124 128>
VStem: -10 137<-144.5 517>
AnchorPoint: "Anchor-14" 0 0 basechar 0
AnchorPoint: "Anchor-13" 0 0 basechar 0
AnchorPoint: "Anchor-12" 126 706 basechar 0
AnchorPoint: "Anchor-11" 137 0 basechar 0
AnchorPoint: "Anchor-10" 126 0 basechar 0
LayerCount: 2
Back
Fore
SplineSet
126 706 m 0
 130 706 132 703 132 700 c 0
 132 697 130 694 126 694 c 0
 122 694 120 697 120 700 c 0
 120 703 122 706 126 706 c 0
125 1 m 1
 125 517 l 1
 127 517 l 1
 127 0 l 1
 71 -20 -8 -57 -8 -120 c 0
 -8 -168 23 -192 67 -192 c 0
 85 -192 98 -190 120 -184 c 1
 120 -186 l 1
 98 -192 86 -194 67 -194 c 0
 22 -194 -10 -169 -10 -120 c 0
 -10 -57 64 -21 125 1 c 1
EndSplineSet
Substitution2: "'smcp' Lowercase to Small Capitals lookup 27 subtable" iogonek.sc
Substitution2: "'aalt' Access All Alternates lookup 0 subtable" iogonek.sc
EndChar

StartChar: Idotaccent
Encoding: 304 304 49
Width: 262
GlyphClass: 2
Flags: MW
HStem: 0 21G<130 132 130 130> 660 20G<130 132 132 132> 820 12<129 133>
VStem: 125 12<824.5 827.5>
AnchorPoint: "Anchor-11" 0 0 basechar 0
AnchorPoint: "Anchor-10" 80 680 basechar 0
AnchorPoint: "Anchor-9" 131 680 basechar 0
AnchorPoint: "Anchor-8" 142 0 basechar 0
LayerCount: 2
Fore
SplineSet
131 832 m 0
 135 832 137 829 137 826 c 0
 137 823 135 820 131 820 c 0
 127 820 125 823 125 826 c 0
 125 829 127 832 131 832 c 0
132 0 m 1
 130 0 l 1
 130 680 l 1
 132 680 l 1
 132 0 l 1
EndSplineSet
Substitution2: "'c2sc' Capitals to Small Capitals lookup 23 subtable" i.sc.loclTRK
Substitution2: "'aalt' Access All Alternates lookup 0 subtable" i.sc.loclTRK
Position2: "'cpsp' Capital Spacing lookup 0 subtable" dx=5 dy=0 dh=10 dv=0
EndChar
StartChar: dotlessi
Encoding: 305 305 479
Width: 252
GlyphClass: 2
Flags: MW
HStem: 0 21G<125 127 125 125> 497 20G<125 127 127 127>
VStem: 125 2<0 517 0 517>
AnchorPoint: "Anchor-14" 0 0 basechar 0
AnchorPoint: "Anchor-13" 0 0 basechar 0
AnchorPoint: "Anchor-12" 126 517 basechar 0
AnchorPoint: "Anchor-11" 137 0 basechar 0
AnchorPoint: "Anchor-10" 126 0 basechar 0
LayerCount: 2
Back
Fore
SplineSet
127 517 m 1
 127 0 l 1
 125 0 l 1
 125 517 l 1
 127 517 l 1
EndSplineSet
Substitution2: "'smcp' Lowercase to Small Capitals lookup 27 subtable" dotlessi.sc
Substitution2: "'aalt' Access All Alternates lookup 0 subtable" dotlessi.sc
EndChar

StartChar: IJ
Encoding: 306 306 44
Width: 536
GlyphClass: 2
Flags: MW
HStem: 0 21G<130 132 130 130> 660 20G<130 132 132 132 410 412 412 412>
VStem: 130 282<39 85 85 680>
AnchorPoint: "Anchor-11" 0 0 basechar 0
AnchorPoint: "Anchor-10" 80 680 basechar 0
AnchorPoint: "Anchor-9" 412 680 basechar 0
AnchorPoint: "Anchor-8" 142 0 basechar 0
LayerCount: 2
Fore
SplineSet
132 0 m 1
 130 0 l 1
 130 680 l 1
 132 680 l 1
 132 0 l 1
412 85 m 2
 412 -7 393 -50 293 -91 c 1
 292 -89 l 1
 391 -49 410 -6 410 85 c 2
 410 680 l 1
 412 680 l 1
 412 85 l 2
EndSplineSet
Substitution2: "'c2sc' Capitals to Small Capitals lookup 23 subtable" ij.sc
Substitution2: "'aalt' Access All Alternates lookup 0 subtable" ij.sc
Position2: "'cpsp' Capital Spacing lookup 0 subtable" dx=5 dy=0 dh=10 dv=0
EndChar
StartChar: ij
Encoding: 307 307 492
Width: 504
GlyphClass: 2
Flags: MW
HStem: -189 21G<280 280> 0 21G<125 127 125 125> 497 20G<125 127 127 127 377 379 379 379> 694 12<124 128 376 380>
VStem: 125 254<0 1 1 517>
AnchorPoint: "Anchor-14" 0 0 basechar 0
AnchorPoint: "Anchor-13" 0 0 basechar 0
AnchorPoint: "Anchor-12" 378 706 basechar 0
AnchorPoint: "Anchor-11" 137 0 basechar 0
AnchorPoint: "Anchor-10" 378 -188 basechar 0
LayerCount: 2
Back
Fore
SplineSet
126 706 m 0
 130 706 132 703 132 700 c 0
 132 697 130 694 126 694 c 0
 122 694 120 697 120 700 c 0
 120 703 122 706 126 706 c 0
378 706 m 0
 382 706 384 703 384 700 c 0
 384 697 382 694 378 694 c 0
 374 694 372 697 372 700 c 0
 372 703 374 706 378 706 c 0
127 517 m 1
 127 0 l 1
 125 0 l 1
 125 517 l 1
 127 517 l 1
379 517 m 1
 379 1 l 2
 379 -118 350 -154 281 -191 c 1
 280 -189 l 1
 348 -153 377 -117 377 1 c 2
 377 517 l 1
 379 517 l 1
EndSplineSet
Substitution2: "'smcp' Lowercase to Small Capitals lookup 27 subtable" ij.sc
Substitution2: "'aalt' Access All Alternates lookup 0 subtable" ij.sc
EndChar
StartChar: Jcircumflex
Encoding: 308 308 138
Width: 274
GlyphClass: 2
Flags: MW
HStem: 660 20G<148 150 150 150>
VStem: 30 229
AnchorPoint: "Anchor-14" 0 0 basechar 0
AnchorPoint: "Anchor-13" 220 700 basechar 0
AnchorPoint: "Anchor-12" 149 850 basechar 0
AnchorPoint: "Anchor-11" 0 0 basechar 0
AnchorPoint: "Anchor-10" 0 0 basechar 0
LayerCount: 2
Back
Fore
SplineSet
257 770 m 1
 149 848 l 1
 43 770 l 1
 41 771 l 1
 148 850 l 1
 150 850 l 1
 259 771 l 1
 257 770 l 1
150 680 m 1
 150 85 l 2
 150 -7 131 -50 31 -91 c 1
 30 -89 l 1
 129 -49 148 -6 148 85 c 2
 148 680 l 1
 150 680 l 1
EndSplineSet
Substitution2: "'c2sc' Capitals to Small Capitals lookup 26 subtable" jcircumflex.sc
Substitution2: "'aalt' Access All Alternates lookup 0 subtable" jcircumflex.sc
Position2: "'cpsp' Capital Spacing lookup 0 subtable" dx=5 dy=0 dh=10 dv=0
EndChar
StartChar: jcircumflex
Encoding: 309 309 501
Width: 252
GlyphClass: 2
Flags: MW
HStem: -189 21G<28 28> 497 20G<125 127 127 127>
VStem: 17 218<661 661>
AnchorPoint: "Anchor-14" 0 0 basechar 0
AnchorPoint: "Anchor-13" 0 0 basechar 0
AnchorPoint: "Anchor-12" 128 745 basechar 0
AnchorPoint: "Anchor-11" 0 0 basechar 0
AnchorPoint: "Anchor-10" 126 -188 basechar 0
LayerCount: 2
Back
Fore
SplineSet
19 660 m 1
 17 661 l 1
 126 745 l 1
 128 745 l 1
 235 661 l 1
 233 660 l 1
 127 743 l 1
 19 660 l 1
127 517 m 1
 127 1 l 2
 127 -118 98 -154 29 -191 c 1
 28 -189 l 1
 96 -153 125 -117 125 1 c 2
 125 517 l 1
 127 517 l 1
EndSplineSet
Substitution2: "'smcp' Lowercase to Small Capitals lookup 27 subtable" jcircumflex.sc
Substitution2: "'aalt' Access All Alternates lookup 0 subtable" jcircumflex.sc
EndChar

StartChar: Kcommaaccent
Encoding: 310 310 57
Width: 504
GlyphClass: 2
Flags: MW
HStem: -117 10<292 294> 0 21G<486 489 486 486> 1 21G<130 132 130 130> 660 20G<130 132 132 132 470 473 473 473>
VStem: 130 8<366 366 366 680> 288 10<-113 -110.5 -113 -110.5>
AnchorPoint: "Anchor-11" 284 0 basechar 0
AnchorPoint: "Anchor-10" 0 0 basechar 0
AnchorPoint: "Anchor-9" 284 680 basechar 0
AnchorPoint: "Anchor-8" 0 0 basechar 0
LayerCount: 2
Fore
SplineSet
132 1 m 1xb8
 130 1 l 1
 130 680 l 1
 132 680 l 1
 132 1 l 1xb8
138 366 m 1
 489 0 l 1
 486 0 l 1xdc
 135 366 l 1
 470 680 l 1
 473 680 l 1
 138 366 l 1
293 -107 m 0
 296 -107 298 -109 298 -112 c 0
 298 -114 298 -115 297 -120 c 2
 272 -239 l 1
 271 -239 l 1
 294 -117 l 1
 290 -117 288 -115 288 -112 c 0
 288 -109 290 -107 293 -107 c 0
EndSplineSet
Substitution2: "'c2sc' Capitals to Small Capitals lookup 23 subtable" kcommaaccent.sc
Substitution2: "'aalt' Access All Alternates lookup 0 subtable" kcommaaccent.sc
Position2: "'cpsp' Capital Spacing lookup 0 subtable" dx=5 dy=0 dh=10 dv=0
EndChar

StartChar: kcommaaccent
Encoding: 311 311 192
Width: 448
GlyphClass: 2
Flags: MW
HStem: -117 10<277 279> 0 21G<125 127 125 125 420 420 420 423> 497 20G<393 396 396 396> 710 20G<125 127 127 127>
VStem: 125 11<283 283 283 730> 273 10<-113 -110.5 -113 -110.5>
AnchorPoint: "Anchor-11" 269 0 basechar 0
AnchorPoint: "Anchor-10" 0 0 basechar 0
AnchorPoint: "Anchor-9" 0 0 basechar 0
AnchorPoint: "Anchor-8" 0 0 basechar 0
LayerCount: 2
Fore
SplineSet
127 0 m 1
 125 0 l 1
 125 730 l 1
 127 730 l 1
 127 0 l 1
136 283 m 1
 423 0 l 1
 420 0 l 1
 133 283 l 1
 393 517 l 1
 396 517 l 1
 136 283 l 1
278 -107 m 0
 281 -107 283 -109 283 -112 c 0
 283 -114 283 -115 282 -120 c 2
 257 -239 l 1
 256 -239 l 1
 279 -117 l 1
 275 -117 273 -115 273 -112 c 0
 273 -109 275 -107 278 -107 c 0
EndSplineSet
Substitution2: "'smcp' Lowercase to Small Capitals lookup 24 subtable" kcommaaccent.sc
Substitution2: "'aalt' Access All Alternates lookup 0 subtable" kcommaaccent.sc
EndChar
StartChar: kgreenlandic
Encoding: 312 312 509
Width: 446
GlyphClass: 2
Flags: MW
HStem: 0 21G<125 127 125 125 418 418 418 421> 497 20G<125 127 127 127 391 394 394 394>
VStem: 125 9<273 273 273 517>
LayerCount: 2
Back
Fore
SplineSet
127 517 m 1
 127 0 l 1
 125 0 l 1
 125 517 l 1
 127 517 l 1
394 517 m 1
 134 273 l 1
 421 0 l 1
 418 0 l 1
 131 273 l 1
 391 517 l 1
 394 517 l 1
EndSplineSet
Substitution2: "'smcp' Lowercase to Small Capitals lookup 27 subtable" kgreenlandic.sc
Substitution2: "'aalt' Access All Alternates lookup 0 subtable" kgreenlandic.sc
EndChar
StartChar: Lacute
Encoding: 313 313 146
Width: 445
GlyphClass: 2
Flags: MW
HStem: 0 21G<130 420 130 130> 660 20G<130 132 132 132>
VStem: 45 375
AnchorPoint: "Anchor-14" 350 355 basechar 0
AnchorPoint: "Anchor-13" 182 680 basechar 0
AnchorPoint: "Anchor-12" 131 842 basechar 0
AnchorPoint: "Anchor-11" 0 0 basechar 0
AnchorPoint: "Anchor-10" 275 0 basechar 0
LayerCount: 2
Back
Fore
SplineSet
211 842 m 1
 212 840 l 1
 46 771 l 1
 45 773 l 1
 211 842 l 1
132 680 m 1
 132 2 l 1
 420 2 l 1
 420 0 l 1
 130 0 l 1
 130 680 l 1
 132 680 l 1
EndSplineSet
Substitution2: "'c2sc' Capitals to Small Capitals lookup 26 subtable" lacute.sc
Substitution2: "'aalt' Access All Alternates lookup 0 subtable" lacute.sc
Position2: "'cpsp' Capital Spacing lookup 0 subtable" dx=5 dy=0 dh=10 dv=0
EndChar

StartChar: lacute
Encoding: 314 314 195
Width: 275
GlyphClass: 2
Flags: MW
HStem: -9 21G<159 186.5> -1 21G<220 220> 710 20G<120 122 122 122>
VStem: 44.5 77.5 120 100<-1 730>
AnchorPoint: "Anchor-11" 174 0 basechar 0
AnchorPoint: "Anchor-10" 0 0 basechar 0
AnchorPoint: "Anchor-9" 121 730 basechar 0
AnchorPoint: "Anchor-8" 0 0 basechar 0
LayerCount: 2
Fore
SplineSet
211 890 m 1x68
 45 821 l 1
 44 823 l 1x70
 210 892 l 1
 211 890 l 1x68
122 64 m 2
 122 21 140 -7 179 -7 c 0xb0
 194 -7 208 -4 220 1 c 1
 220 -1 l 1
 208 -6 194 -9 179 -9 c 0
 139 -9 120 19 120 64 c 2xa8
 120 730 l 1
 122 730 l 1
 122 64 l 2
EndSplineSet
Substitution2: "'smcp' Lowercase to Small Capitals lookup 24 subtable" lacute.sc
Substitution2: "'aalt' Access All Alternates lookup 0 subtable" lacute.sc
EndChar
StartChar: Lcommaaccent
Encoding: 315 315 150
Width: 445
GlyphClass: 2
Flags: MW
HStem: -117 119<283 285> 0 21G<130 420 130 130> 660 20G<130 132 132 132>
VStem: 279 10<-113 -110.5 -113 -110.5>
AnchorPoint: "Anchor-14" 350 355 basechar 0
AnchorPoint: "Anchor-13" 182 680 basechar 0
AnchorPoint: "Anchor-12" 131 680 basechar 0
AnchorPoint: "Anchor-11" 0 0 basechar 0
AnchorPoint: "Anchor-10" 275 0 basechar 0
LayerCount: 2
Back
Fore
SplineSet
132 680 m 1x70
 132 2 l 1xb0
 420 2 l 1
 420 0 l 1
 130 0 l 1
 130 680 l 1
 132 680 l 1x70
284 -107 m 0
 287 -107 289 -109 289 -112 c 0
 289 -114 289 -115 288 -120 c 2
 263 -239 l 1
 262 -239 l 1
 285 -117 l 2
 281 -117 279 -115 279 -112 c 0
 279 -109 281 -107 284 -107 c 0
EndSplineSet
Substitution2: "'c2sc' Capitals to Small Capitals lookup 26 subtable" lcommaaccent.sc
Substitution2: "'aalt' Access All Alternates lookup 0 subtable" lcommaaccent.sc
Position2: "'cpsp' Capital Spacing lookup 0 subtable" dx=5 dy=0 dh=10 dv=0
EndChar

StartChar: lcommaaccent
Encoding: 316 316 197
Width: 275
GlyphClass: 2
Flags: MW
HStem: -117 10<182 184> -9 21G<159 186.5> -1 21G<220 220> 710 20G<120 122 122 122>
VStem: 120 100<-1 730> 178 10<-113 -110.5 -113 -110.5>
AnchorPoint: "Anchor-11" 174 0 basechar 0
AnchorPoint: "Anchor-10" 0 0 basechar 0
AnchorPoint: "Anchor-9" 121 730 basechar 0
AnchorPoint: "Anchor-8" 0 0 basechar 0
LayerCount: 2
Fore
SplineSet
122 64 m 2xd8
 122 21 140 -7 179 -7 c 0
 194 -7 208 -4 220 1 c 1
 220 -1 l 1
 208 -6 194 -9 179 -9 c 0
 139 -9 120 19 120 64 c 2
 120 730 l 1
 122 730 l 1
 122 64 l 2xd8
183 -107 m 0xb4
 186 -107 188 -109 188 -112 c 0
 188 -114 188 -115 187 -120 c 2
 162 -239 l 1
 161 -239 l 1
 184 -117 l 1
 180 -117 178 -115 178 -112 c 0
 178 -109 180 -107 183 -107 c 0xb4
EndSplineSet
Substitution2: "'smcp' Lowercase to Small Capitals lookup 24 subtable" lcommaaccent.sc
Substitution2: "'aalt' Access All Alternates lookup 0 subtable" lcommaaccent.sc
EndChar

StartChar: Lcaron
Encoding: 317 317 60
Width: 445
GlyphClass: 2
Flags: MW
HStem: 0 21G<130 420 130 130> 660 20G<130 132 132 132> 670 20G<254 256 256 256>
VStem: 130 107<553 553 553 680>
AnchorPoint: "Anchor-11" 275 0 basechar 0
AnchorPoint: "Anchor-10" 0 0 basechar 0
AnchorPoint: "Anchor-9" 131 680 basechar 0
AnchorPoint: "Anchor-8" 0 0 basechar 0
LayerCount: 2
Fore
SplineSet
256 690 m 1xb0
 237 553 l 1
 235 553 l 1
 254 690 l 1
 256 690 l 1xb0
132 2 m 1
 420 2 l 1
 420 0 l 1
 130 0 l 1
 130 680 l 1
 132 680 l 1xd0
 132 2 l 1
EndSplineSet
Substitution2: "'c2sc' Capitals to Small Capitals lookup 23 subtable" lcaron.sc
Substitution2: "'aalt' Access All Alternates lookup 0 subtable" lcaron.sc
Position2: "'cpsp' Capital Spacing lookup 0 subtable" dx=5 dy=0 dh=10 dv=0
EndChar

StartChar: lcaron
Encoding: 318 318 196
Width: 275
GlyphClass: 2
Flags: MW
HStem: -9 21G<159 186.5> -1 21G<220 220> 710 20G<120 122 122 122> 717 20G<234 236 236 236>
VStem: 120 97<600 600 600 730>
AnchorPoint: "Anchor-11" 174 0 basechar 0
AnchorPoint: "Anchor-10" 0 0 basechar 0
AnchorPoint: "Anchor-9" 121 730 basechar 0
AnchorPoint: "Anchor-8" 0 0 basechar 0
LayerCount: 2
Fore
SplineSet
236 737 m 1x58
 217 600 l 1
 215 600 l 1
 234 737 l 1
 236 737 l 1x58
122 64 m 2
 122 21 140 -7 179 -7 c 0
 194 -7 208 -4 220 1 c 1
 220 -1 l 1
 208 -6 194 -9 179 -9 c 0
 139 -9 120 19 120 64 c 2
 120 730 l 1
 122 730 l 1xa8
 122 64 l 2
EndSplineSet
Substitution2: "'smcp' Lowercase to Small Capitals lookup 24 subtable" lcaron.sc
Substitution2: "'aalt' Access All Alternates lookup 0 subtable" lcaron.sc
EndChar
StartChar: Ldot
Encoding: 319 319 151
Width: 445
GlyphClass: 2
Flags: MW
HStem: 0 21G<130 420 130 130> 349 12<348 352> 660 20G<130 132 132 132>
VStem: 130 220
AnchorPoint: "Anchor-14" 350 355 basechar 0
AnchorPoint: "Anchor-13" 182 680 basechar 0
AnchorPoint: "Anchor-12" 350 361 basechar 0
AnchorPoint: "Anchor-11" 0 0 basechar 0
AnchorPoint: "Anchor-10" 275 0 basechar 0
LayerCount: 2
Back
Fore
SplineSet
132 680 m 1
 132 2 l 1
 420 2 l 1
 420 0 l 1
 130 0 l 1
 130 680 l 1
 132 680 l 1
350 361 m 0
 354 361 356 358 356 355 c 0
 356 352 354 349 350 349 c 0
 346 349 344 352 344 355 c 0
 344 358 346 361 350 361 c 0
EndSplineSet
Ligature2: "Ligature Substitution lookup 40 subtable" L periodcentered
Substitution2: "'c2sc' Capitals to Small Capitals lookup 26 subtable" ldot.sc
Substitution2: "'aalt' Access All Alternates lookup 0 subtable" ldot.sc
Position2: "'cpsp' Capital Spacing lookup 0 subtable" dx=5 dy=0 dh=10 dv=0
EndChar
StartChar: ldot
Encoding: 320 320 521
Width: 275
GlyphClass: 2
Flags: MW
HStem: -9 21G<159 186.5> 369 12<254 258> 710 20G<120 122 122 122>
VStem: 120 136
AnchorPoint: "Anchor-14" 256 375 basechar 0
AnchorPoint: "Anchor-13" 182 727 basechar 0
AnchorPoint: "Anchor-12" 256 381 basechar 0
AnchorPoint: "Anchor-11" 0 0 basechar 0
AnchorPoint: "Anchor-10" 174 0 basechar 0
LayerCount: 2
Back
Fore
SplineSet
179 -9 m 0
 139 -9 120 19 120 64 c 2
 120 730 l 1
 122 730 l 1
 122 64 l 2
 122 21 140 -7 179 -7 c 0
 194 -7 208 -4 220 1 c 1
 220 -1 l 1
 208 -6 194 -9 179 -9 c 0
256 381 m 0
 260 381 262 378 262 375 c 0
 262 372 260 369 256 369 c 0
 252 369 250 372 250 375 c 0
 250 378 252 381 256 381 c 0
EndSplineSet
Ligature2: "Ligature Substitution lookup 40 subtable" l periodcentered
Substitution2: "'smcp' Lowercase to Small Capitals lookup 27 subtable" ldot.sc
Substitution2: "'aalt' Access All Alternates lookup 0 subtable" ldot.sc
EndChar
StartChar: Lslash
Encoding: 321 321 154
Width: 447
GlyphClass: 2
Flags: MW
HStem: 0 21G<132 422 132 132> 660 20G<132 134 134 134>
VStem: 52.5 81.5
AnchorPoint: "Anchor-14" 352 355 basechar 0
AnchorPoint: "Anchor-13" 184 680 basechar 0
AnchorPoint: "Anchor-12" 133 680 basechar 0
AnchorPoint: "Anchor-11" 0 0 basechar 0
AnchorPoint: "Anchor-10" 277 0 basechar 0
LayerCount: 2
Back
Fore
SplineSet
134 2 m 1
 422 2 l 1
 422 0 l 1
 132 0 l 1
 132 325 l 1
 53 276 l 1
 52 278 l 1
 132 327 l 1
 132 680 l 1
 134 680 l 1
 134 328 l 1
 341 456 l 1
 342 454 l 1
 134 326 l 1
 134 2 l 1
EndSplineSet
Substitution2: "'c2sc' Capitals to Small Capitals lookup 26 subtable" lslash.sc
Substitution2: "'aalt' Access All Alternates lookup 0 subtable" lslash.sc
Position2: "'cpsp' Capital Spacing lookup 0 subtable" dx=5 dy=0 dh=10 dv=0
EndChar

StartChar: lslash
Encoding: 322 322 199
Width: 275
GlyphClass: 2
Flags: MW
HStem: -9 21G<162 189.5> -1 21G<223 223> 710 20G<123 125 125 125>
VStem: 52.5 72.5 123 111.5
AnchorPoint: "Anchor-11" 177 0 basechar 0
AnchorPoint: "Anchor-10" 0 0 basechar 0
AnchorPoint: "Anchor-9" 124 730 basechar 0
AnchorPoint: "Anchor-8" 0 0 basechar 0
LayerCount: 2
Fore
SplineSet
125 64 m 2x70
 125 21 143 -7 182 -7 c 0xb0
 197 -7 211 -4 223 1 c 1
 223 -1 l 1
 211 -6 197 -9 182 -9 c 0
 142 -9 123 19 123 64 c 2
 123 371.23 l 1xa8
 53 327 l 1
 52 329 l 1x70
 123 373.86 l 1x68
 123 730 l 1
 125 730 l 1
 125 375.12 l 1x70
 234 444 l 1
 235 442 l 1x68
 125 372.49 l 1
 125 64 l 2x70
EndSplineSet
Substitution2: "'smcp' Lowercase to Small Capitals lookup 24 subtable" lslash.sc
Substitution2: "'aalt' Access All Alternates lookup 0 subtable" lslash.sc
EndChar

StartChar: Nacute
Encoding: 323 323 66
Width: 654
GlyphClass: 2
Flags: MW
HStem: 0 21G<130 132 130 130 521 524 521 521> 660 20G<130 133 133 133 522 524 524 524>
VStem: 130 394<0 680>
AnchorPoint: "Anchor-11" 321 0 basechar 0
AnchorPoint: "Anchor-10" 0 0 basechar 0
AnchorPoint: "Anchor-9" 331 680 basechar 0
AnchorPoint: "Anchor-8" 0 0 basechar 0
LayerCount: 2
Fore
SplineSet
421 840 m 1
 255 771 l 1
 254 773 l 1
 420 842 l 1
 421 840 l 1
524 0 m 1
 521 0 l 1
 132 678 l 1
 132 655 132 622 132 575 c 2
 132 0 l 1
 130 0 l 1
 130 680 l 1
 133 680 l 1
 522 2 l 1
 522 43 522 95 522 136 c 2
 522 680 l 1
 524 680 l 1
 524 0 l 1
EndSplineSet
Substitution2: "'c2sc' Capitals to Small Capitals lookup 23 subtable" nacute.sc
Substitution2: "'locl' Localized Forms in Latin lookup 7 subtable" Nacute.loclPLK
AlternateSubs2: "'aalt' Access All Alternates lookup 1 subtable" Nacute.loclPLK nacute.sc
Position2: "'cpsp' Capital Spacing lookup 0 subtable" dx=5 dy=0 dh=10 dv=0
EndChar

StartChar: nacute
Encoding: 324 324 202
Width: 580
GlyphClass: 2
Flags: MW
HStem: 0 21G 497 20G 507 20G<282.305 373.5>
VStem: 125 335
AnchorPoint: "Anchor-11" 287 0 basechar 0
AnchorPoint: "Anchor-10" 115 517 basechar 0
AnchorPoint: "Anchor-9" 295 517 basechar 0
AnchorPoint: "Anchor-8" 0 0 basechar 0
LayerCount: 2
Fore
SplineSet
207 662 m 1xb0
 206 664 l 1
 373 746 l 1
 374 744 l 1
 207 662 l 1xb0
326 527 m 0
 421 527 460.001 466.999 460.001 367.999 c 2
 460.001 -0.000976562 l 1
 458.001 -0.000976562 l 1
 458.001 367.999 l 2
 458.001 465.999 420.001 524.999 326.001 524.999 c 0
 239.001 524.999 175.001 472.999 127.001 386.999 c 1
 127.001 -0.000976562 l 1
 125.001 -0.000976562 l 1
 125.001 516.999 l 1
 127.001 516.999 l 1xd0
 127.001 390.779 l 1
 174.891 475.72 238.61 527 326 527 c 0
EndSplineSet
Substitution2: "'smcp' Lowercase to Small Capitals lookup 24 subtable" nacute.sc
Substitution2: "'locl' Localized Forms in Latin lookup 7 subtable" nacute.loclPLK
AlternateSubs2: "'aalt' Access All Alternates lookup 1 subtable" nacute.loclPLK nacute.sc
EndChar

StartChar: Ncommaaccent
Encoding: 325 325 68
Width: 654
GlyphClass: 2
Flags: MW
HStem: -117 10<329 331> 0 21G<130 132 130 130 521 524 521 521> 660 20G<130 133 133 133 522 524 524 524>
VStem: 325 10<-113 -110.5 -113 -110.5>
AnchorPoint: "Anchor-11" 321 0 basechar 0
AnchorPoint: "Anchor-10" 0 0 basechar 0
AnchorPoint: "Anchor-9" 331 680 basechar 0
AnchorPoint: "Anchor-8" 0 0 basechar 0
LayerCount: 2
Fore
SplineSet
524 0 m 1
 521 0 l 1
 132 678 l 1
 132 655 132 622 132 575 c 2
 132 0 l 1
 130 0 l 1
 130 680 l 1
 133 680 l 1
 522 2 l 1
 522 43 522 95 522 136 c 2
 522 680 l 1
 524 680 l 1
 524 0 l 1
330 -107 m 0
 333 -107 335 -109 335 -112 c 0
 335 -114 335 -115 334 -120 c 2
 309 -239 l 1
 308 -239 l 1
 331 -117 l 1
 327 -117 325 -115 325 -112 c 0
 325 -109 327 -107 330 -107 c 0
EndSplineSet
Substitution2: "'c2sc' Capitals to Small Capitals lookup 23 subtable" ncommaaccent.sc
Substitution2: "'aalt' Access All Alternates lookup 0 subtable" ncommaaccent.sc
Position2: "'cpsp' Capital Spacing lookup 0 subtable" dx=5 dy=0 dh=10 dv=0
EndChar

StartChar: ncommaaccent
Encoding: 326 326 205
Width: 580
GlyphClass: 2
Flags: MW
HStem: -117 10 0 21G 497 20G 507 20G<282.305 373.5>
VStem: 125 335 291 10
AnchorPoint: "Anchor-11" 287 0 basechar 0
AnchorPoint: "Anchor-10" 115 517 basechar 0
AnchorPoint: "Anchor-9" 295 517 basechar 0
AnchorPoint: "Anchor-8" 0 0 basechar 0
LayerCount: 2
Fore
SplineSet
326 527 m 0xd8
 421 527 460.001 466.999 460.001 367.999 c 2
 460.001 -0.000976562 l 1
 458.001 -0.000976562 l 1
 458.001 367.999 l 2
 458.001 465.999 420.001 524.999 326.001 524.999 c 0
 239.001 524.999 175.001 472.999 127.001 386.999 c 1
 127.001 -0.000976562 l 1
 125.001 -0.000976562 l 1
 125.001 516.999 l 1
 127.001 516.999 l 1xe8
 127.001 390.779 l 1
 174.891 475.72 238.61 527 326 527 c 0xd8
296.001 -107.001 m 0xd4
 299.001 -107.001 301.001 -109.001 301.001 -112.001 c 0
 301.001 -114.001 301.001 -115.001 300.001 -120.001 c 2
 275.001 -239.001 l 1
 274.001 -239.001 l 1
 297.001 -117.001 l 1
 293.001 -117.001 291.001 -115.001 291.001 -112.001 c 0
 291.001 -109.001 293.001 -107.001 296.001 -107.001 c 0xd4
EndSplineSet
Substitution2: "'smcp' Lowercase to Small Capitals lookup 24 subtable" ncommaaccent.sc
Substitution2: "'aalt' Access All Alternates lookup 0 subtable" ncommaaccent.sc
EndChar

StartChar: Ncaron
Encoding: 327 327 67
Width: 654
GlyphClass: 2
Flags: MW
HStem: 0 21G<130 132 130 130 521 524 521 521> 660 20G<130 133 133 133 522 524 524 524>
VStem: 130 394<0 680>
AnchorPoint: "Anchor-11" 321 0 basechar 0
AnchorPoint: "Anchor-10" 0 0 basechar 0
AnchorPoint: "Anchor-9" 331 680 basechar 0
AnchorPoint: "Anchor-8" 0 0 basechar 0
LayerCount: 2
Fore
SplineSet
443 844 m 1
 334 765 l 1
 332 765 l 1
 225 844 l 1
 227 845 l 1
 333 767 l 1
 441 845 l 1
 443 844 l 1
524 0 m 1
 521 0 l 1
 132 678 l 1
 132 655 132 622 132 575 c 2
 132 0 l 1
 130 0 l 1
 130 680 l 1
 133 680 l 1
 522 2 l 1
 522 43 522 95 522 136 c 2
 522 680 l 1
 524 680 l 1
 524 0 l 1
EndSplineSet
Substitution2: "'c2sc' Capitals to Small Capitals lookup 23 subtable" ncaron.sc
Substitution2: "'aalt' Access All Alternates lookup 0 subtable" ncaron.sc
Position2: "'cpsp' Capital Spacing lookup 0 subtable" dx=5 dy=0 dh=10 dv=0
EndChar

StartChar: ncaron
Encoding: 328 328 204
Width: 580
GlyphClass: 2
Flags: MW
HStem: 0 21G 497 20G 507 20G<282.305 373.5> 713 20G<191 191 405 405>
VStem: 125 335
AnchorPoint: "Anchor-11" 287 0 basechar 0
AnchorPoint: "Anchor-10" 115 517 basechar 0
AnchorPoint: "Anchor-9" 295 517 basechar 0
AnchorPoint: "Anchor-8" 0 0 basechar 0
LayerCount: 2
Fore
SplineSet
296 648 m 1xb8
 189 732 l 1
 191 733 l 1
 297 650 l 1
 405 733 l 1
 407 732 l 1
 298 648 l 1
 296 648 l 1xb8
326 527 m 0
 421 527 460.001 466.999 460.001 367.999 c 2
 460.001 -0.000976562 l 1
 458.001 -0.000976562 l 1
 458.001 367.999 l 2
 458.001 465.999 420.001 524.999 326.001 524.999 c 0
 239.001 524.999 175.001 472.999 127.001 386.999 c 1
 127.001 -0.000976562 l 1
 125.001 -0.000976562 l 1
 125.001 516.999 l 1
 127.001 516.999 l 1xd8
 127.001 390.779 l 1
 174.891 475.72 238.61 527 326 527 c 0
EndSplineSet
Substitution2: "'smcp' Lowercase to Small Capitals lookup 24 subtable" ncaron.sc
Substitution2: "'aalt' Access All Alternates lookup 0 subtable" ncaron.sc
EndChar

StartChar: napostrophe
Encoding: 329 329 203
Width: 640
GlyphClass: 2
Flags: MW
HStem: 0 21G 497 20G 507 20G<282.305 373.5> 708 20G
VStem: 125 335 142 10<727 729.5 727 729.5>
AnchorPoint: "Anchor-11" 287 0 basechar 0
AnchorPoint: "Anchor-10" 115 517 basechar 0
AnchorPoint: "Anchor-9" 295 517 basechar 0
AnchorPoint: "Anchor-8" 0 0 basechar 0
LayerCount: 2
Fore
SplineSet
125 601 m 1xb4
 148 723 l 1
 144 723 142 725 142 728 c 0
 142 731 144 733 147 733 c 0
 150 733 152 731 152 728 c 0
 152 726 152 725 151 720 c 2
 126 601 l 1
 125 601 l 1xb4
326 527 m 0xb8
 421 527 460.001 466.999 460.001 367.999 c 2
 460.001 -0.000976562 l 1
 458.001 -0.000976562 l 1
 458.001 367.999 l 2
 458.001 465.999 420.001 524.999 326.001 524.999 c 0
 239.001 524.999 175.001 472.999 127.001 386.999 c 1
 127.001 -0.000976562 l 1
 125.001 -0.000976562 l 1
 125.001 516.999 l 1
 127.001 516.999 l 1xd8
 127.001 390.779 l 1
 174.891 475.72 238.61 527 326 527 c 0xb8
EndSplineSet
Substitution2: "'smcp' Lowercase to Small Capitals lookup 24 subtable" napostrophe.sc
Substitution2: "'aalt' Access All Alternates lookup 0 subtable" napostrophe.sc
EndChar
StartChar: Eng
Encoding: 330 330 169
Width: 654
GlyphClass: 2
Flags: MW
HStem: -192 21G<421 465> 0 21G<130 132 130 130 521 522 521 521> 660 20G<130 133 133 133 522 524 524 524>
VStem: 361.5 162.5
AnchorPoint: "Anchor-14" 0 0 basechar 0
AnchorPoint: "Anchor-13" 0 0 basechar 0
AnchorPoint: "Anchor-12" 331 680 basechar 0
AnchorPoint: "Anchor-11" 0 0 basechar 0
AnchorPoint: "Anchor-10" 321 0 basechar 0
LayerCount: 2
Back
Fore
SplineSet
522 680 m 1
 524 680 l 1
 524 -97 l 2
 524 -159 490 -192 440 -192 c 0
 402 -192 379 -179 361 -164 c 1
 362 -162 l 1
 381 -178 403 -190 440 -190 c 0
 489 -190 522 -158 522 -97 c 2
 522 0 l 1
 521 0 l 1
 132 678 l 1
 132 575 l 1
 132 0 l 1
 130 0 l 1
 130 680 l 1
 133 680 l 1
 522 2 l 1
 522 136 l 1
 522 680 l 1
EndSplineSet
Substitution2: "'ss01' Style Set 1 lookup 33 subtable" Eng.ss01
Substitution2: "'salt' Stylistic Alternatives lookup 32 subtable" Eng.ss01
Substitution2: "'c2sc' Capitals to Small Capitals lookup 26 subtable" eng.sc
AlternateSubs2: "'aalt' Access All Alternates lookup 1 subtable" eng.sc Eng.ss01
Position2: "'cpsp' Capital Spacing lookup 0 subtable" dx=5 dy=0 dh=10 dv=0
EndChar
StartChar: eng
Encoding: 331 331 547
Width: 580
GlyphClass: 2
Flags: MW
HStem: -192 21G<357 401> 0 21G<125 127 125 125> 497 20G<125 127 127 127> 507 20G<282.5 373.5>
VStem: 125 335<0 368>
AnchorPoint: "Anchor-14" 0 0 basechar 0
AnchorPoint: "Anchor-13" 0 0 basechar 0
AnchorPoint: "Anchor-12" 295 517 basechar 0
AnchorPoint: "Anchor-11" 0 0 basechar 0
AnchorPoint: "Anchor-10" 290 -188 basechar 0
LayerCount: 2
Back
Fore
SplineSet
326 527 m 0xd8
 421 527 460 467 460 368 c 2
 460 -97 l 2
 460 -159 426 -192 376 -192 c 0
 338 -192 315 -179 297 -164 c 1
 298 -162 l 1
 317 -178 339 -190 376 -190 c 0
 425 -190 458 -158 458 -97 c 2
 458 368 l 2
 458 466 420 525 326 525 c 0
 239 525 175 473 127 387 c 1
 127 0 l 1
 125 0 l 1
 125 517 l 1
 127 517 l 1xe8
 127 391 l 1
 175 476 239 527 326 527 c 0xd8
EndSplineSet
Substitution2: "'smcp' Lowercase to Small Capitals lookup 27 subtable" eng.sc
Substitution2: "'aalt' Access All Alternates lookup 0 subtable" eng.sc
EndChar

StartChar: omacron
Encoding: 333 333 215
Width: 559
GlyphClass: 2
Flags: MW
HStem: -9 21G<217 340.5> 507 20G<220.5 342> 525 166<221 341.5>
VStem: 80 399<175.5 344.5>
AnchorPoint: "Anchor-11" 0 0 basechar 0
AnchorPoint: "Anchor-10" 0 0 basechar 0
AnchorPoint: "Anchor-9" 280 517 basechar 0
AnchorPoint: "Anchor-8" 0 0 basechar 0
LayerCount: 2
Fore
SplineSet
185 689 m 1xb0
 185 691 l 1
 375 691 l 1
 375 689 l 1
 185 689 l 1xb0
281 527 m 0xd0
 403 527 479 429 479 262 c 0
 479 89 402 -9 279 -9 c 0
 155 -9 80 91 80 258 c 0
 80 431 160 527 281 527 c 0xd0
281 525 m 0xb0
 161 525 82 429 82 258 c 0
 82 93 156 -7 279 -7 c 0
 401 -7 477 91 477 262 c 0
 477 427 402 525 281 525 c 0xb0
EndSplineSet
Substitution2: "'smcp' Lowercase to Small Capitals lookup 24 subtable" omacron.sc
Substitution2: "'aalt' Access All Alternates lookup 0 subtable" omacron.sc
EndChar

StartChar: Obreve
Encoding: 334 334 73
Width: 687
GlyphClass: 2
Flags: MW
HStem: -9 21G<263.5 426.5> 670 20G<265.5 423.5> 688 86<314.5 369.5 314.5 423>
VStem: 85 517<230 447.5>
AnchorPoint: "Anchor-11" 0 0 basechar 0
AnchorPoint: "Anchor-10" 102 680 basechar 0
AnchorPoint: "Anchor-9" 342 680 basechar 0
AnchorPoint: "Anchor-8" 0 0 basechar 0
LayerCount: 2
Fore
SplineSet
342 776 m 0xb0
 294 776 261 801 248 835 c 1
 246 834 l 1
 257 805 287 774 342 774 c 0
 397 774 427 805 438 834 c 1
 436 835 l 1
 423 801 390 776 342 776 c 0xb0
343 690 m 0xd0
 504 690 602 563 602 340 c 0
 602 120 510 -9 343 -9 c 0
 184 -9 85 119 85 338 c 0
 85 557 188 690 343 690 c 0xd0
343 688 m 0xb0
 189 688 87 555 87 338 c 0
 87 121 185 -7 343 -7 c 0
 509 -7 600 122 600 340 c 0
 600 561 503 688 343 688 c 0xb0
EndSplineSet
Substitution2: "'c2sc' Capitals to Small Capitals lookup 23 subtable" obreve.sc
Substitution2: "'aalt' Access All Alternates lookup 0 subtable" obreve.sc
Position2: "'cpsp' Capital Spacing lookup 0 subtable" dx=5 dy=0 dh=10 dv=0
EndChar

StartChar: Ohungarumlaut
Encoding: 336 336 77
Width: 687
GlyphClass: 2
Flags: MW
HStem: -9 21G<263.5 426.5> 670 20G<265.5 423.5>
VStem: 85 517<230 447.5>
AnchorPoint: "Anchor-11" 0 0 basechar 0
AnchorPoint: "Anchor-10" 102 680 basechar 0
AnchorPoint: "Anchor-9" 342 680 basechar 0
AnchorPoint: "Anchor-8" 0 0 basechar 0
LayerCount: 2
Fore
SplineSet
456 910 m 1
 390 787 l 1
 388 788 l 1
 454 911 l 1
 456 910 l 1
350 907 m 1
 289 789 l 1
 287 790 l 1
 348 908 l 1
 350 907 l 1
343 690 m 0
 504 690 602 563 602 340 c 0
 602 120 510 -9 343 -9 c 0
 184 -9 85 119 85 338 c 0
 85 557 188 690 343 690 c 0
343 688 m 0
 189 688 87 555 87 338 c 0
 87 121 185 -7 343 -7 c 0
 509 -7 600 122 600 340 c 0
 600 561 503 688 343 688 c 0
EndSplineSet
Substitution2: "'c2sc' Capitals to Small Capitals lookup 23 subtable" ohungarumlaut.sc
Substitution2: "'aalt' Access All Alternates lookup 0 subtable" ohungarumlaut.sc
Position2: "'cpsp' Capital Spacing lookup 0 subtable" dx=5 dy=0 dh=10 dv=0
EndChar

StartChar: OE
Encoding: 338 338 82
Width: 838
GlyphClass: 2
Flags: MW
HStem: -9 11 0 21G<392.57 788 392.57 392.57> 360 320<572.001 735.001 572.001 572.001> 678 12
VStem: 85 703 570 165
LayerCount: 2
Fore
SplineSet
788 0 m 1x58
 392.57 -0 l 1x54
 373.37 -5.44043 351.351 -9 324.001 -9 c 0
 178.001 -9 85.001 119 85.001 338 c 0
 85.001 557 182.001 690 324.001 690 c 0x98
 351.371 690 376.961 685.54 394.881 680 c 1xa8
 778.001 680 l 1
 778.001 678 l 1
 401.111 678 l 1x94
 510.921 641.85 571.751 523.96 572.001 362 c 1
 735.001 362 l 1
 735.001 360 l 1xa4
 572.001 360 l 1
 571.791 157.56 510.011 37.2598 399.23 2 c 1xa8
 788 2 l 1
 788 0 l 1x58
87 338 m 0
 87 121 179 -7 324 -7 c 0
 484 -7 570 122 570 361 c 0
 570 561 478 688 324 688 c 0
 183 688 87 555 87 338 c 0
EndSplineSet
Substitution2: "'c2sc' Capitals to Small Capitals lookup 23 subtable" oe.sc
Substitution2: "'aalt' Access All Alternates lookup 0 subtable" oe.sc
Position2: "'cpsp' Capital Spacing lookup 0 subtable" dx=5 dy=0 dh=10 dv=0
EndChar
StartChar: oe
Encoding: 339 339 595
Width: 925
GlyphClass: 2
Flags: MW
HStem: -9 21G<217 336 617 706.5> 225 29<478 478> 252 275<617.5 734.5 220.5 479>
VStem: 80 770<281 344.5>
AnchorPoint: "Anchor-14" 0 0 basechar 0
AnchorPoint: "Anchor-13" 0 0 basechar 0
AnchorPoint: "Anchor-12" 477 517 basechar 0
AnchorPoint: "Anchor-11" 0 0 basechar 0
AnchorPoint: "Anchor-10" 478 0 basechar 0
LayerCount: 2
Back
Fore
SplineSet
850 288 m 0xb0
 850 274 850 266 849 252 c 1
 479 252 l 1xb0
 479 86 556 -7 673 -7 c 0
 738 -7 781 14 826 52 c 1
 827 50 l 1
 782 13 740 -9 673 -9 c 0
 561 -9 486 75 478 225 c 1xd0
 467 75 393 -9 279 -9 c 0
 155 -9 80 91 80 258 c 0
 80 431 160 527 281 527 c 0
 396 527 470 440 478 290 c 1
 489 440 562 527 673 527 c 0
 796 527 850 424 850 288 c 0xb0
279 -7 m 0
 401 -7 477 91 477 262 c 0
 477 427 402 525 281 525 c 0
 161 525 82 429 82 258 c 0
 82 93 156 -7 279 -7 c 0
847 254 m 1xd0
 848 267 848 275 848 288 c 0
 848 422 795 525 673 525 c 0
 554 525 479 424 479 254 c 1
 847 254 l 1xd0
EndSplineSet
Substitution2: "'smcp' Lowercase to Small Capitals lookup 27 subtable" oe.sc
Substitution2: "'aalt' Access All Alternates lookup 0 subtable" oe.sc
EndChar
StartChar: Racute
Encoding: 340 340 226
Width: 561
GlyphClass: 2
Flags: MW
HStem: 0 21G<130 132 130 130 503 506 503 503> 660 20G<130 267 267 347>
VStem: 130 376<0 680>
AnchorPoint: "Anchor-14" 0 0 basechar 0
AnchorPoint: "Anchor-13" 0 0 basechar 0
AnchorPoint: "Anchor-12" 281 842 basechar 0
AnchorPoint: "Anchor-11" 0 0 basechar 0
AnchorPoint: "Anchor-10" 301 0 basechar 0
LayerCount: 2
Back
Fore
SplineSet
362 840 m 1
 196 771 l 1
 195 773 l 1
 361 842 l 1
 362 840 l 1
503 0 m 1
 312 334 l 1
 132 334 l 1
 132 0 l 1
 130 0 l 1
 130 680 l 1
 267 680 l 2
 427 680 482 612 482 506 c 0
 482 383 394 337 314 334 c 1
 506 0 l 1
 503 0 l 1
132 336 m 1
 306 336 l 2
 392 336 480 383 480 506 c 0
 480 611 426 678 267 678 c 2
 132 678 l 1
 132 336 l 1
EndSplineSet
Substitution2: "'c2sc' Capitals to Small Capitals lookup 26 subtable" racute.sc
Substitution2: "'aalt' Access All Alternates lookup 0 subtable" racute.sc
Position2: "'cpsp' Capital Spacing lookup 0 subtable" dx=5 dy=0 dh=10 dv=0
EndChar

StartChar: racute
Encoding: 341 341 224
Width: 361
GlyphClass: 2
Flags: MW
HStem: 0 21G 497 20G 520 7
VStem: 125 211
AnchorPoint: "Anchor-11" 126 0 basechar 0
AnchorPoint: "Anchor-10" 0 0 basechar 0
AnchorPoint: "Anchor-9" 230 517 basechar 0
AnchorPoint: "Anchor-8" 0 0 basechar 0
LayerCount: 2
Fore
SplineSet
142 662 m 1
 141 664 l 1
 308 746 l 1
 309 744 l 1
 142 662 l 1
290 527 m 0
 310 527 323.001 525.001 336.001 522.001 c 1
 336.001 520.001 l 1
 323.001 523.001 310.001 525.001 290.001 525.001 c 0xb0
 208.801 525.001 160.94 482.831 127 368.401 c 1
 127 0.000976562 l 1
 125 0.000976562 l 1
 125 517.001 l 1
 127 517.001 l 1xd0
 127 375.351 l 1
 159.99 484.86 208.82 527 290 527 c 0
EndSplineSet
Substitution2: "'smcp' Lowercase to Small Capitals lookup 24 subtable" racute.sc
Substitution2: "'aalt' Access All Alternates lookup 0 subtable" racute.sc
EndChar

StartChar: Rcommaaccent
Encoding: 342 342 89
Width: 561
GlyphClass: 2
Flags: MW
HStem: -117 10<309 311> 0 21G<130 132 130 130 503 506 503 503> 660 20G<130 267 267 347>
VStem: 305 10<-113 -110.5 -113 -110.5>
AnchorPoint: "Anchor-11" 301 0 basechar 0
AnchorPoint: "Anchor-10" 0 0 basechar 0
AnchorPoint: "Anchor-9" 281 680 basechar 0
AnchorPoint: "Anchor-8" 0 0 basechar 0
LayerCount: 2
Fore
SplineSet
506 0 m 1
 503 0 l 1
 311.57 334 l 1
 132 334 l 1
 132 0 l 1
 130 0 l 1
 130 680 l 1
 267 680 l 2
 427 680 482 612 482 506 c 0
 482 382.79 394.13 336.59 313.55 334.04 c 1
 506 0 l 1
306 336 m 2
 392 336 480 383 480 506 c 0
 480 611 426 678 267 678 c 2
 132 678 l 1
 132 336 l 1
 306 336 l 2
310 -107 m 0
 313 -107 315 -109 315 -112 c 0
 315 -114 315 -115 314 -120 c 2
 289 -239 l 1
 288 -239 l 1
 311 -117 l 1
 307 -117 305 -115 305 -112 c 0
 305 -109 307 -107 310 -107 c 0
EndSplineSet
Substitution2: "'c2sc' Capitals to Small Capitals lookup 23 subtable" rcommaaccent.sc
Substitution2: "'aalt' Access All Alternates lookup 0 subtable" rcommaaccent.sc
Position2: "'cpsp' Capital Spacing lookup 0 subtable" dx=5 dy=0 dh=10 dv=0
EndChar

StartChar: rcommaaccent
Encoding: 343 343 226
Width: 361
GlyphClass: 2
Flags: MW
HStem: -117 10 0 21G 497 20G 520 7
VStem: 125 211 130 10
AnchorPoint: "Anchor-11" 126 0 basechar 0
AnchorPoint: "Anchor-10" 0 0 basechar 0
AnchorPoint: "Anchor-9" 230 517 basechar 0
AnchorPoint: "Anchor-8" 0 0 basechar 0
LayerCount: 2
Fore
SplineSet
290 527 m 0xd4
 310 527 323.001 525.001 336.001 522.001 c 1
 336.001 520.001 l 1
 323.001 523.001 310.001 525.001 290.001 525.001 c 0xd8
 208.801 525.001 160.94 482.831 127 368.401 c 1
 127 0.000976562 l 1
 125 0.000976562 l 1
 125 517.001 l 1
 127 517.001 l 1xe8
 127 375.351 l 1xd8
 159.99 484.86 208.82 527 290 527 c 0xd4
135.001 -106.999 m 0
 138.001 -106.999 140.001 -108.999 140.001 -111.999 c 0
 140.001 -113.999 140.001 -114.999 139.001 -119.999 c 2
 114.001 -238.999 l 1
 113.001 -238.999 l 1
 136.001 -116.999 l 1
 132.001 -116.999 130.001 -114.999 130.001 -111.999 c 0
 130.001 -108.999 132.001 -106.999 135.001 -106.999 c 0
EndSplineSet
Substitution2: "'smcp' Lowercase to Small Capitals lookup 24 subtable" rcommaaccent.sc
Substitution2: "'aalt' Access All Alternates lookup 0 subtable" rcommaaccent.sc
EndChar
StartChar: Rcaron
Encoding: 344 344 227
Width: 561
GlyphClass: 2
Flags: MW
HStem: 0 21G<130 132 130 130 503 506 503 503> 660 20G<130 267 267 347> 678 89<132 280>
VStem: 130 376<0 680>
AnchorPoint: "Anchor-14" 0 0 basechar 0
AnchorPoint: "Anchor-13" 0 0 basechar 0
AnchorPoint: "Anchor-12" 283 845 basechar 0
AnchorPoint: "Anchor-11" 0 0 basechar 0
AnchorPoint: "Anchor-10" 301 0 basechar 0
LayerCount: 2
Back
Fore
SplineSet
281 765 m 1xb0
 279 765 l 1
 172 844 l 1
 174 845 l 1
 280 767 l 1
 388 845 l 1
 390 844 l 1
 281 765 l 1xb0
503 0 m 1
 312 334 l 1
 132 334 l 1
 132 0 l 1
 130 0 l 1
 130 680 l 1
 267 680 l 2xd0
 427 680 482 612 482 506 c 0
 482 383 394 337 314 334 c 1
 506 0 l 1
 503 0 l 1
132 336 m 1
 306 336 l 2
 392 336 480 383 480 506 c 0
 480 611 426 678 267 678 c 2
 132 678 l 1xb0
 132 336 l 1
EndSplineSet
Substitution2: "'c2sc' Capitals to Small Capitals lookup 26 subtable" rcaron.sc
Substitution2: "'aalt' Access All Alternates lookup 0 subtable" rcaron.sc
Position2: "'cpsp' Capital Spacing lookup 0 subtable" dx=5 dy=0 dh=10 dv=0
EndChar

StartChar: rcaron
Encoding: 345 345 225
Width: 361
GlyphClass: 2
Flags: MW
HStem: 0 21G<125 127 125 125> 497 20G<125 127 127 127> 520 7 713 20G<126 126 340 340>
VStem: 124 218<732 732> 125 211
AnchorPoint: "Anchor-11" 126 0 basechar 0
AnchorPoint: "Anchor-10" 0 0 basechar 0
AnchorPoint: "Anchor-9" 230 517 basechar 0
AnchorPoint: "Anchor-8" 0 0 basechar 0
LayerCount: 2
Fore
SplineSet
231 648 m 1xb8
 124 732 l 1
 126 733 l 1
 232 650 l 1
 340 733 l 1
 342 732 l 1
 233 648 l 1
 231 648 l 1xb8
127 375.35 m 1xb4
 159.99 484.859 208.821 527 290.001 527 c 0
 310.001 527 323.001 525 336.001 522 c 1
 336.001 520 l 1
 323.001 523 310.001 525 290.001 525 c 0xb4
 208.801 525 160.94 482.83 127 368.4 c 1
 127 0 l 1
 125 0 l 1
 125 517 l 1
 127 517 l 1xd4
 127 375.35 l 1xb4
EndSplineSet
Substitution2: "'smcp' Lowercase to Small Capitals lookup 24 subtable" rcaron.sc
Substitution2: "'aalt' Access All Alternates lookup 0 subtable" rcaron.sc
EndChar

StartChar: Sacute
Encoding: 346 346 91
Width: 540
GlyphClass: 2
Flags: MW
HStem: -9 21G<214 320> 670 20G<211 305.5>
VStem: 65 395<69 233>
AnchorPoint: "Anchor-11" 261 0 basechar 0
AnchorPoint: "Anchor-10" 0 0 basechar 0
AnchorPoint: "Anchor-9" 273 680 basechar 0
AnchorPoint: "Anchor-8" 0 0 basechar 0
LayerCount: 2
Fore
SplineSet
363 840 m 1
 197 771 l 1
 196 773 l 1
 362 842 l 1
 363 840 l 1
264 690 m 0
 347 690 395 663 437 626 c 1
 436 624 l 1
 394 662 345 688 264 688 c 0
 159 688 90 622 90 538 c 0
 90 449 132 414 270 370 c 0
 399 329 460 288 460 178 c 0
 460 68 380 -9 260 -9 c 0
 168 -9 114 22 65 69 c 1
 66 71 l 1
 115 24 168 -7 260 -7 c 0
 378 -7 458 69 458 178 c 0
 458 287 397 327 269 368 c 0
 132 412 88 447 88 538 c 0
 88 624 158 690 264 690 c 0
EndSplineSet
Substitution2: "'c2sc' Capitals to Small Capitals lookup 23 subtable" sacute.sc
Substitution2: "'locl' Localized Forms in Latin lookup 7 subtable" Sacute.loclPLK
AlternateSubs2: "'aalt' Access All Alternates lookup 1 subtable" Sacute.loclPLK sacute.sc
Position2: "'cpsp' Capital Spacing lookup 0 subtable" dx=5 dy=0 dh=10 dv=0
EndChar
StartChar: scircumflex
Encoding: 349 349 630
Width: 457
GlyphClass: 2
Flags: MW
HStem: -9 21G<187.5 272.5> 507 20G<183.5 256.5>
VStem: 60 327<57 172.5>
AnchorPoint: "Anchor-14" 0 0 basechar 0
AnchorPoint: "Anchor-13" 0 0 basechar 0
AnchorPoint: "Anchor-12" 236 745 basechar 0
AnchorPoint: "Anchor-11" 0 0 basechar 0
AnchorPoint: "Anchor-10" 229 0 basechar 0
LayerCount: 2
Back
Fore
SplineSet
127 660 m 1
 125 661 l 1
 234 745 l 1
 236 745 l 1
 343 661 l 1
 341 660 l 1
 235 743 l 1
 127 660 l 1
224 527 m 0
 289 527 332 509 372 475 c 1
 371 473 l 1
 330 508 288 525 224 525 c 0
 145 525 79 476 79 405 c 0
 79 339 121 307 231 276 c 0
 345 244 387 215 387 130 c 0
 387 44 318 -9 227 -9 c 0
 148 -9 101 19 60 57 c 1
 61 59 l 1
 102 21 148 -7 227 -7 c 0
 317 -7 385 46 385 130 c 0
 385 215 342 242 230 274 c 0
 120 305 77 337 77 405 c 0
 77 477 143 527 224 527 c 0
EndSplineSet
Substitution2: "'smcp' Lowercase to Small Capitals lookup 27 subtable" scircumflex.sc
Substitution2: "'aalt' Access All Alternates lookup 0 subtable" scircumflex.sc
EndChar
StartChar: Scedilla
Encoding: 350 350 240
Width: 540
GlyphClass: 2
Flags: MW
HStem: -202 120<255 294> -84 77<253 253> -9 21G<257 257 259 260 259 259> 670 20G<211 305.5>
VStem: 255 90<-163.5 -82>
AnchorPoint: "Anchor-14" 0 0 basechar 0
AnchorPoint: "Anchor-13" 0 0 basechar 0
AnchorPoint: "Anchor-12" 273 680 basechar 0
AnchorPoint: "Anchor-11" 0 0 basechar 0
AnchorPoint: "Anchor-10" 283 -202 basechar 0
LayerCount: 2
Back
Fore
SplineSet
260 -9 m 2xb8
 259 -9 l 1
 255 -82 l 1
 310 -83 345 -98 345 -141 c 0
 345 -186 311 -202 277 -202 c 0
 248 -202 232 -196 216 -186 c 1
 217 -184 l 1
 234 -195 250 -200 277 -200 c 0xb8
 310 -200 343 -185 343 -141 c 0
 343 -104 317 -85 253 -84 c 1x58
 257 -9 l 1xb8
 167 -8 113 23 65 69 c 1
 66 71 l 1
 115 24 168 -7 260 -7 c 0x58
 378 -7 458 69 458 178 c 0
 458 287 397 327 269 368 c 0
 132 412 88 447 88 538 c 0
 88 624 158 690 264 690 c 0
 347 690 395 663 437 626 c 1
 436 624 l 1
 394 662 345 688 264 688 c 0
 159 688 90 622 90 538 c 0
 90 449 132 414 270 370 c 0
 399 329 460 288 460 178 c 0
 460 68 380 -9 260 -9 c 2xb8
EndSplineSet
Substitution2: "'c2sc' Capitals to Small Capitals lookup 26 subtable" scedilla.sc
Substitution2: "'locl' Localized Forms in Latin lookup 5 subtable" Scommaaccent
Substitution2: "'locl' Localized Forms in Latin lookup 4 subtable" Scommaaccent
AlternateSubs2: "'aalt' Access All Alternates lookup 1 subtable" Scommaaccent scedilla.sc
Position2: "'cpsp' Capital Spacing lookup 0 subtable" dx=5 dy=0 dh=10 dv=0
EndChar

StartChar: scedilla
Encoding: 351 351 230
Width: 457
GlyphClass: 2
Flags: MW
HStem: -202 120 -84 77 -8.96001 21G -8.92999 21G 507 20G<183.5 256.5>
VStem: 217.97 90.03
AnchorPoint: "Anchor-11" 229 0 basechar 0
AnchorPoint: "Anchor-10" 0 0 basechar 0
AnchorPoint: "Anchor-9" 234 517 basechar 0
AnchorPoint: "Anchor-8" 0 0 basechar 0
LayerCount: 2
Fore
SplineSet
227 -9 m 0xac
 225.3 -9 223.62 -8.99121 221.95 -8.96094 c 1
 218 -82.001 l 1
 273 -83.001 308 -98.001 308 -141.001 c 0
 308 -186.001 274 -202.001 240 -202.001 c 0
 211 -202.001 195 -196.001 179 -186.001 c 1
 180 -184.001 l 1
 197 -195.001 213 -200.001 240 -200.001 c 0xac
 273 -200.001 306 -185.001 306 -141.001 c 0
 306 -104.001 280 -85.001 216 -84.001 c 1x4c
 219.95 -8.93066 l 1x9c
 145.17 -7.31055 99.7598 20.1396 60 57 c 1
 61 59 l 1
 102 21 148 -7 227 -7 c 0x4c
 317 -7 385 46 385 130 c 0
 385 215 342 242 230 274 c 0
 120 305 77 337 77 405 c 0
 77 477 143 527 224 527 c 0
 289 527 332 509 372 475 c 1
 371 473 l 1
 330 508 288 525 224 525 c 0
 145 525 79 476 79 405 c 0
 79 339 121 307 231 276 c 0
 345 244 387 215 387 130 c 0
 387 44 318 -9 227 -9 c 0xac
EndSplineSet
Substitution2: "'smcp' Lowercase to Small Capitals lookup 24 subtable" scedilla.sc
Substitution2: "'locl' Localized Forms in Latin lookup 5 subtable" scommaaccent
Substitution2: "'locl' Localized Forms in Latin lookup 4 subtable" scommaaccent
AlternateSubs2: "'aalt' Access All Alternates lookup 1 subtable" scommaaccent scedilla.sc
EndChar
StartChar: scaron
Encoding: 353 353 627
Width: 457
GlyphClass: 2
Flags: MW
HStem: -9 21G<187.5 272.5> 507 20G<183.5 256.5> 713 20G<128 128 342 342>
VStem: 60 327<57 172.5>
AnchorPoint: "Anchor-14" 0 0 basechar 0
AnchorPoint: "Anchor-13" 0 0 basechar 0
AnchorPoint: "Anchor-12" 237 733 basechar 0
AnchorPoint: "Anchor-11" 0 0 basechar 0
AnchorPoint: "Anchor-10" 229 0 basechar 0
LayerCount: 2
Back
Fore
SplineSet
342 733 m 1
 344 732 l 1
 235 648 l 1
 233 648 l 1
 126 732 l 1
 128 733 l 1
 234 650 l 1
 342 733 l 1
224 527 m 0
 289 527 332 509 372 475 c 1
 371 473 l 1
 330 508 288 525 224 525 c 0
 145 525 79 476 79 405 c 0
 79 339 121 307 231 276 c 0
 345 244 387 215 387 130 c 0
 387 44 318 -9 227 -9 c 0
 148 -9 101 19 60 57 c 1
 61 59 l 1
 102 21 148 -7 227 -7 c 0
 317 -7 385 46 385 130 c 0
 385 215 342 242 230 274 c 0
 120 305 77 337 77 405 c 0
 77 477 143 527 224 527 c 0
EndSplineSet
Substitution2: "'smcp' Lowercase to Small Capitals lookup 27 subtable" scaron.sc
Substitution2: "'aalt' Access All Alternates lookup 0 subtable" scaron.sc
EndChar

StartChar: Tcedilla
Encoding: 354 354 99
Width: 472
GlyphClass: 2
Flags: MW
HStem: -202 120<232 271> 660 20G<20 452 452 452>
VStem: 230 7 235 87
AnchorPoint: "Anchor-11" 236 0 basechar 0
AnchorPoint: "Anchor-10" 0 0 basechar 0
AnchorPoint: "Anchor-9" 223 680 basechar 0
AnchorPoint: "Anchor-8" 0 0 basechar 0
LayerCount: 2
Fore
SplineSet
237 0 m 1xe0
 232 -82 l 1
 287 -83 322 -98 322 -141 c 0
 322 -186 288 -202 254 -202 c 0
 225 -202 209 -196 193 -186 c 1
 194 -184 l 1
 211 -195 227 -200 254 -200 c 0
 287 -200 320 -185 320 -141 c 0
 320 -104 294 -84 230 -84 c 1
 235 0 l 1
 235 678 l 1xd0
 20 678 l 1
 20 680 l 1
 452 680 l 1
 452 678 l 1
 237 678 l 1
 237 0 l 1xe0
EndSplineSet
Substitution2: "'c2sc' Capitals to Small Capitals lookup 23 subtable" tcedilla.sc
Substitution2: "'locl' Localized Forms in Latin lookup 5 subtable" uni021A
Substitution2: "'locl' Localized Forms in Latin lookup 4 subtable" uni021A
AlternateSubs2: "'aalt' Access All Alternates lookup 1 subtable" uni021A tcedilla.sc
Position2: "'cpsp' Capital Spacing lookup 0 subtable" dx=5 dy=0 dh=10 dv=0
EndChar
